SplineFontDB: 3.0
FontName: Crimson-Bold
FullName: Crimson Bold
FamilyName: Crimson
Weight: Bold
Copyright: Copyright (c) 2010, Sebastian Kosch (sebastian@aldusleaf.org),\nwith Reserved Font Name "Crimson".\nThis Font Software is licensed under the SIL Open Font License, Version 1.1.\nThis license is available with a FAQ at: http://scripts.sil.org/OFL
UComments: "2010-5-14: Created." 
Version: 0.7
ItalicAngle: 0
UnderlinePosition: -102
UnderlineWidth: 51
Ascent: 717
Descent: 307
sfntRevision: 0x0000b333
LayerCount: 2
Layer: 0 0 "Back"  1
Layer: 1 0 "Fore"  0
NeedsXUIDChange: 1
XUID: [1021 85 519305545 5082149]
FSType: 0
OS2Version: 0
OS2_WeightWidthSlopeOnly: 0
OS2_UseTypoMetrics: 1
CreationTime: 1273891947
ModificationTime: 1316897436
PfmFamily: 17
TTFWeight: 700
TTFWidth: 5
LineGap: 0
VLineGap: 0
OS2TypoAscent: 1106
OS2TypoAOffset: 0
OS2TypoDescent: -740
OS2TypoDOffset: 0
OS2TypoLinegap: 0
OS2WinAscent: 1106
OS2WinAOffset: 0
OS2WinDescent: 740
OS2WinDOffset: 0
HheadAscent: 1106
HheadAOffset: 0
HheadDescent: -740
HheadDOffset: 0
OS2Vendor: 'PfEd'
Lookup: 1 0 0 "'onum' Oldstyle Figures in Latin lookup 3"  {"'onum' Oldstyle Figures in Latin lookup 3-1" ("oldstyle" ) } ['onum' ('DFLT' <'dflt' > 'latn' <'dflt' > ) ]
Lookup: 1 0 0 "'smcp' Lowercase to Small Capitals in Latin lookup 0"  {"'smcp' Lowercase to Small Capitals in Latin lookup 0 subtable" ("sc" ) } ['smcp' ('DFLT' <'dflt' > 'latn' <'dflt' > ) ]
Lookup: 1 0 0 "'c2sc' Capitals to Small Capitals in Latin lookup 0"  {"'c2sc' Capitals to Small Capitals in Latin lookup 0 subtable"  } ['c2sc' ('DFLT' <'dflt' > 'latn' <'dflt' > ) ]
Lookup: 258 0 0 "Crimson-Bold-'kern' Horizontal Kerning in Latin lookup 0"  {"Crimson-Bold-'kern' Horizontal Kerning in Latin lookup 0 per glyph data 0"  "Crimson-Bold-'kern' Horizontal Kerning in Latin lookup 0 kerning class 1"  } ['kern' ('latn' <'dflt' > ) ]
MarkAttachClasses: 1
DEI: 91125
KernClass2: 101+ 78 "Crimson-Bold-'kern' Horizontal Kerning in Latin lookup 0 kerning class 1" 

StartChar: exclam
Encoding: 33 33 1
Width: 263
Flags: HW
HStem: -11 150<78.25 182.969> 622 20G<117 150.5>
VStem: 56 150<12.2802 116> 69 128<370.997 626.241>
LayerCount: 2
Fore
SplineSet
56 66 m 0
 56 106 90 139 131 139 c 27
 173 139 206 103 206 63 c 0xe0
 206 23 173 -11 132 -11 c 27
 90 -11 56 23 56 66 c 0
135 642 m 0
 166 642 197 617 197 574 c 0
 197 546 168 309 155 221 c 1
 151 208 147 199 135 195 c 1
 130 195 118 202 112 212 c 1
 101 279 69 524 69 575 c 0xd0
 69 617 99 642 135 642 c 0
EndSplineSet
Substitution2: "'smcp' Lowercase to Small Capitals in Latin lookup 0 subtable" exclam.sc
EndChar

StartChar: quotedbl
Encoding: 34 34 2
Width: 323
Flags: W
HStem: 431 269<75.1769 111.588 235.177 271.588>
VStem: 36 93<508.041 678.334> 196 93<508.041 678.334>
LayerCount: 2
Fore
SplineSet
258 700 m 0
 272 700 280 696 289 684 c 1
 289 650 279 516 272 454 c 1
 268 447 257 436 248 431 c 1
 244 431 240 434 238 439 c 1
 213 524 196 584 196 617 c 0
 196 650 220 700 258 700 c 0
98 700 m 0
 112 700 120 696 129 684 c 1
 129 650 119 516 112 454 c 1
 108 447 97 436 88 431 c 1
 84 431 80 434 78 439 c 1
 53 524 36 584 36 617 c 0
 36 650 60 700 98 700 c 0
EndSplineSet
Substitution2: "'smcp' Lowercase to Small Capitals in Latin lookup 0 subtable" quotedbl.sc
EndChar

StartChar: numbersign
Encoding: 35 35 3
Width: 469
Flags: W
HStem: 148 67<58.4228 383.356> 339 67<85.5013 411.291>
LayerCount: 2
Fore
SplineSet
405.234 339 m 1
 246.234 339 246.234 339 76.2344 339 c 1
 64.2344 339 79.2344 402 92.2344 406 c 9
 418.234 406 l 17
 432.234 406 418.234 345 405.234 339 c 1
377.234 148 m 1
 218.234 148 218.234 148 48.2344 148 c 1
 36.2344 148 52.2344 211 65.2344 215 c 9
 391.234 215 l 17
 405.234 215 390.234 154 377.234 148 c 1
376.234 528 m 1
 297.234 36 l 2
 296.234 32 281.234 23 266.234 23 c 0
 256.234 23 255.234 27 255.234 27 c 1
 334.234 518 l 1
 337.234 527 344.234 531 363.234 531 c 0
 372.234 531 373.234 530 376.234 528 c 1
215.234 528 m 1
 135.234 36 l 2
 134.234 32 120.234 23 105.234 23 c 0
 95.2344 23 94.2344 27 94.2344 27 c 1
 173.234 518 l 1
 176.234 527 183.234 531 202.234 531 c 0
 211.234 531 212.234 530 215.234 528 c 1
EndSplineSet
Validated: 549
Substitution2: "'smcp' Lowercase to Small Capitals in Latin lookup 0 subtable" numbersign.sc
EndChar

StartChar: dollar
Encoding: 36 36 4
Width: 512
Flags: HW
HStem: -10 40<219.611 306.248> 450 21G<421.5 425> 601 40<210.095 276.092> 648 20G<281.738 289>
VStem: 51 40<131.239 189.022> 58 127<462.101 543.456> 171 39<-35.9908 4.01403> 285 39<624.049 664.779> 339 126<88.2504 184.301> 394 39<450.001 513.559>
LayerCount: 2
Fore
SplineSet
262 641 m 0
 318 641 365 626 423 614 c 1
 428 563 430 513 433 455 c 1
 430 451 427 450 423 450 c 0
 420 450 396 448 394 456 c 0
 386 510 341 601 267 601 c 0
 230 601 185 582 185 518 c 0xf540
 185 459 261 401 324 361 c 0
 388 320 465 294 465 167 c 0
 465 62 361 -10 256 -10 c 0
 200 -10 131 2 74 15 c 1
 64 57 53 151 51 178 c 1
 55 184 74 191 79 191 c 0
 86 191 90 189 91 183 c 0
 100 131 160 30 246 30 c 0xf980
 282 30 339 47 339 124 c 0xf980
 339 199 246 249 198 282 c 0
 128 329 58 368 58 468 c 0
 58 567 163 641 262 641 c 0
285 668 m 17
 293 668 324 667 324 660 c 9
 210 -40 l 17
 201 -40 171 -38 171 -31 c 9xf3
 285 668 l 17
EndSplineSet
Substitution2: "'smcp' Lowercase to Small Capitals in Latin lookup 0 subtable" dollar.sc
EndChar

StartChar: percent
Encoding: 37 37 5
Width: 682
Flags: HW
HStem: 0 31<465.28 530.815> 274 30<449.791 515.192> 337 31<168.28 233.815> 611 30<152.791 218.192>
VStem: 37 95<408.108 565.734> 255 95<412.743 570.7> 334 95<71.1076 228.734> 552 95<75.7433 233.7>
LayerCount: 2
Fore
SplineSet
185 611 m 3
 136 611 132 548 132 500 c 24
 132 442 152 368 201 368 c 3
 250 368 255 430 255 477 c 24xfd
 255 536 234 611 185 611 c 3
193 641 m 0
 285 641 350 577 350 492 c 0
 350 408 282 337 194 337 c 0
 101 337 37 403 37 487 c 0
 37 571 105 641 193 641 c 0
482 274 m 3
 433 274 429 211 429 163 c 24xfb
 429 105 449 31 498 31 c 3
 547 31 552 93 552 140 c 24
 552 199 531 274 482 274 c 3
490 304 m 0
 582 304 647 240 647 155 c 0
 647 71 579 0 491 0 c 0
 398 0 334 66 334 150 c 0
 334 234 402 304 490 304 c 0
621 635 m 1xf9
 105 -5 l 2
 101 -11 81 -20 64 -20 c 0
 49 -20 49 -8 49 -8 c 1
 565 632 l 1
 573 639 588 645 605 645 c 0
 614 645 621 640 621 635 c 1xf9
EndSplineSet
Substitution2: "'smcp' Lowercase to Small Capitals in Latin lookup 0 subtable" percent.sc
EndChar

StartChar: ampersand
Encoding: 38 38 6
Width: 673
Flags: W
HStem: -4 76<185.5 336.851> -3 83<482 563.669> 280 32<470.172 520.879 598.817 669.93> 609 36<266.539 335.492>
VStem: 46 130<137.885 247.308> 129 116<447.772 573.657> 359 103<455.616 587.791>
LayerCount: 2
Fore
SplineSet
372 95 m 1xba
 344 133 249 264 214 313 c 1
 192 294 176 266 176 220 c 0
 176 154 217 72 308 72 c 0
 342 72 359 84 372 95 c 1xba
302 609 m 0
 267 609 245 574 245 526 c 0x36
 245 474 277 430 294 407 c 1
 338 430 359 467 359 513 c 0
 359 545 347 609 302 609 c 0
285 645 m 0
 386 645 462 599 462 529 c 0
 462 439 381 391 320 370 c 1
 348 333 429 222 460 181 c 1
 484 209 521 250 521 262 c 0
 521 285 479 278 472 280 c 1
 468 286 468 310 473 312 c 1
 541 311 l 2
 576 310 624 312 669 314 c 1
 673 312 673 287 667 281 c 1
 660 280 615 280 598 266 c 0
 584 255 515 173 488 145 c 1
 495 137 540 80 562 80 c 0
 590 80 615 119 626 133 c 1
 635 133 646 125 651 115 c 1
 647 103 571 -3 509 -3 c 3x76
 455 -3 427 28 399 60 c 1
 354 17 294 -4 227 -4 c 3
 144 -4 46 55 46 156 c 0xba
 46 273 132 320 186 354 c 1
 165 385 129 423 129 490 c 0
 129 580 191 645 285 645 c 0
EndSplineSet
Substitution2: "'smcp' Lowercase to Small Capitals in Latin lookup 0 subtable" ampersand.sc
EndChar

StartChar: quotesingle
Encoding: 39 39 7
Width: 177
Flags: W
HStem: 451 260<81.1421 118.807>
VStem: 31 111<531.556 686.937>
LayerCount: 2
Fore
SplineSet
104 711 m 0
 120 711 135 704 142 689 c 1
 137 626 131 539 119 470 c 1
 115 464 104 455 93 451 c 1
 89 451 84 453 81 457 c 1
 59 515 31 580 31 627 c 0
 31 671 62 711 104 711 c 0
EndSplineSet
Validated: 513
Substitution2: "'smcp' Lowercase to Small Capitals in Latin lookup 0 subtable" quotesingle.sc
EndChar

StartChar: parenleft
Encoding: 40 40 8
Width: 285
Flags: HW
VStem: 30 111<147.177 462.823>
LayerCount: 2
Fore
SplineSet
141 305 m 0
 141 74 239 -76 278 -110 c 1
 279 -113 274 -134 269 -137 c 1
 194 -103 30 36 30 305 c 0
 30 574 194 713 269 747 c 1
 274 744 279 723 278 720 c 1
 239 686 141 536 141 305 c 0
EndSplineSet
Substitution2: "'smcp' Lowercase to Small Capitals in Latin lookup 0 subtable" parenleft.sc
EndChar

StartChar: parenright
Encoding: 41 41 9
Width: 285
Flags: W
VStem: 144.129 111<147.177 462.823>
LayerCount: 2
Fore
SplineSet
255.129 305 m 0
 255.129 36 91.1289 -103 16.1289 -137 c 1
 11.1289 -134 6.12891 -113 7.12891 -110 c 1
 46.1289 -76 144.129 74 144.129 305 c 0
 144.129 536 46.1289 686 7.12891 720 c 1
 6.12891 723 11.1289 744 16.1289 747 c 1
 91.1289 713 255.129 574 255.129 305 c 0
EndSplineSet
Validated: 1
Substitution2: "'smcp' Lowercase to Small Capitals in Latin lookup 0 subtable" parenright.sc
EndChar

StartChar: asterisk
Encoding: 42 42 10
Width: 437
Flags: HW
HStem: 424 89<41.1699 142.657>
VStem: 153.42 91<309.181 407.934>
LayerCount: 2
Fore
SplineSet
286.42 618 m 0
 307.42 642 340.42 640 355.42 626 c 0
 371.42 610 375.42 581 354.42 557 c 0
 322.42 521 285.42 533 257.42 506 c 1
 257.42 506 250.42 498 250.42 493 c 0
 250.42 489 253.42 487 258.42 485 c 0
 293.42 469 320.42 485 364.42 466 c 0
 393.42 454 402.42 421 393.42 402 c 0
 383.42 382 356.42 370 327.42 382 c 0
 283.42 401 282.42 440 248.42 458 c 1
 248.42 458 238.42 464 234.42 461 c 0
 232.42 460 231.42 459 230.42 453 c 0
 226.42 415 249.42 395 244.42 347 c 0
 241.42 316 213.42 298 193.42 300 c 0
 171.42 304 150.42 325 153.42 356 c 0
 158.42 404 194.42 417 201.42 455 c 1
 201.42 455 202.42 465 199.42 469 c 0
 198.42 471 196.42 471 190.42 470 c 0
 153.42 462 140.42 435 93.4199 424 c 0
 62.4199 417 37.4199 438 33.4199 458 c 0
 30.4199 480 43.4199 506 74.4199 513 c 0
 121.42 524 144.42 493 183.42 498 c 1
 183.42 498 195.42 499 196.42 504 c 0
 197.42 507 195.42 510 192.42 515 c 0
 173.42 548 143.42 551 118.42 593 c 0
 102.42 620 114.42 651 132.42 661 c 0
 152.42 671 181.42 666 197.42 639 c 0
 222.42 597 199.42 566 216.42 531 c 1
 216.42 531 221.42 521 226.42 520 c 0
 228.42 520 231.42 520 235.42 524 c 0
 261.42 552 254.42 582 286.42 618 c 0
EndSplineSet
Substitution2: "'smcp' Lowercase to Small Capitals in Latin lookup 0 subtable" asterisk.sc
EndChar

StartChar: plus
Encoding: 43 43 11
Width: 541
Flags: W
HStem: 217 58<32.3928 239 298 507.297>
VStem: 240 58<11.0188 217 275 482.557>
LayerCount: 2
Fore
SplineSet
240 474 m 1
 251 483 278 485 282 485 c 0
 292 485 298 483 298 476 c 2
 297 275 l 5
 501 275 l 6
 507 275 510 267 510 261 c 4
 510 240 504 227 496 217 c 5
 298 217 l 5
 298 19 l 1
 286 11 261 8 251 8 c 0
 245 8 240 12 240 16 c 2
 240 217 l 5
 36 217 l 6
 31 217 30 223 30 233 c 4
 30 237 32 263 40 275 c 5
 239 275 l 5
 240 474 l 1
EndSplineSet
Substitution2: "'smcp' Lowercase to Small Capitals in Latin lookup 0 subtable" plus.sc
EndChar

StartChar: comma
Encoding: 44 44 12
Width: 218
Flags: W
HStem: -157 296
VStem: 87 87<-35.4663 70>
LayerCount: 2
Fore
SplineSet
116 139 m 0
 133 139 149 131 160 123 c 1
 168 108 174 82 174 58 c 0
 174 -37 107 -122 37 -157 c 1
 26 -154 16 -139 16 -133 c 1
 35 -121 87 -76 87 -27 c 0
 87 6 39 3 39 68 c 0
 39 84 54 139 116 139 c 0
EndSplineSet
Validated: 513
Substitution2: "'smcp' Lowercase to Small Capitals in Latin lookup 0 subtable" comma.sc
EndChar

StartChar: hyphen
Encoding: 45 45 13
Width: 369
Flags: W
HStem: 210 69<70.344 309.262>
VStem: 53 263
LayerCount: 2
Fore
SplineSet
68 267 m 1
 68 267 276 278 309 279 c 0
 313 279 316 278 316 270 c 0
 316 253 309 227 301 210 c 1
 254 207 151 203 60 199 c 0
 55 199 53 201 53 210 c 0
 53 229 61 252 68 267 c 1
EndSplineSet
Validated: 513
Substitution2: "'smcp' Lowercase to Small Capitals in Latin lookup 0 subtable" hyphen.sc
EndChar

StartChar: period
Encoding: 46 46 14
Width: 228
Flags: W
HStem: -11 150<61.25 165.969>
VStem: 39 150<12.2802 116>
LayerCount: 2
Fore
SplineSet
39 66 m 0
 39 106 73 139 114 139 c 27
 156 139 189 103 189 63 c 0
 189 23 156 -11 115 -11 c 27
 73 -11 39 23 39 66 c 0
EndSplineSet
Substitution2: "'smcp' Lowercase to Small Capitals in Latin lookup 0 subtable" period.sc
EndChar

StartChar: slash
Encoding: 47 47 15
Width: 419
Flags: HW
LayerCount: 2
Fore
SplineSet
373 761 m 0
 387 761 391 757 392 753 c 1
 96 -14 l 2
 94 -21 81 -35 46 -35 c 0
 31 -35 28 -28 28 -28 c 1
 324 739 l 1
 328 747 343 761 373 761 c 0
EndSplineSet
Substitution2: "'smcp' Lowercase to Small Capitals in Latin lookup 0 subtable" slash.sc
EndChar

StartChar: zero
Encoding: 48 48 16
Width: 539
Flags: HW
HStem: -3 42<237.783 311.187> 583 42<233.243 311.139>
VStem: 49 130<168.111 441.573> 360 130<174 457.716>
LayerCount: 2
Fore
SplineSet
273 583 m 0
 208 583 179 459 179 302 c 0
 179 145 222 39 273 39 c 0
 338 39 360 171 360 328 c 0
 360 485 328 583 273 583 c 0
272 625 m 0
 392 625 490 511 490 311 c 0
 490 137 392 -3 272 -3 c 0
 152 -3 49 111 49 311 c 0
 49 485 152 625 272 625 c 0
EndSplineSet
Substitution2: "'smcp' Lowercase to Small Capitals in Latin lookup 0 subtable" zero.sc
Substitution2: "'c2sc' Capitals to Small Capitals in Latin lookup 0 subtable" zero.sc
Substitution2: "'onum' Oldstyle Figures in Latin lookup 3-1" zero.onum
EndChar

StartChar: one
Encoding: 49 49 17
Width: 367
Flags: W
HStem: -4 37<56.8807 123.159 269.162 335.44> 623 20G<254.66 261.16>
VStem: 131.16 130<41.2661 533.021>
LayerCount: 2
Fore
SplineSet
131.16 145 m 2
 131.16 482 l 2
 131.16 526 126.16 535 110.16 535 c 0
 101.16 535 59.1602 524 38.1602 512 c 1
 30.1602 516 25.1602 525 25.1602 531 c 0
 25.1602 533 24.1602 542 27.1602 543 c 0
 142.16 592 253.16 643 256.16 643 c 2
 258.16 643 l 2
 264.16 643 269.16 629 270.16 624 c 1
 270.16 624 261.16 595 261.16 530 c 2
 261.16 145 l 2
 261.16 102 261.16 71 269.16 51 c 0
 274.16 38 320.16 34 333.16 33 c 1
 338.16 26 337.16 2 333.16 -4 c 1
 294.16 0 238.16 3 196.16 3 c 0
 154.16 3 98.1602 0 59.1602 -4 c 1
 55.1602 2 54.1602 26 59.1602 33 c 1
 72.1602 34 118.16 38 123.16 51 c 0
 131.16 71 131.16 102 131.16 145 c 2
EndSplineSet
Validated: 545
Substitution2: "'smcp' Lowercase to Small Capitals in Latin lookup 0 subtable" one.sc
Substitution2: "'c2sc' Capitals to Small Capitals in Latin lookup 0 subtable" one.sc
Substitution2: "'onum' Oldstyle Figures in Latin lookup 3-1" one.onum
EndChar

StartChar: two
Encoding: 50 50 18
Width: 492
Flags: W
HStem: 0 102<156 383.012> 564 78<152.499 294>
VStem: 289 131<381.569 516.668> 422 34<155.14 197.879>
LayerCount: 2
Fore
SplineSet
456 192 m 1
 445 145 402 19 396 0 c 9
 32 0 l 1
 27 5 24 13 23 18 c 1
 100 103 161 161 231 271 c 0
 277 344 289 404 289 449 c 0
 289 515 236 564 182 564 c 0
 112 564 75 501 67 493 c 1
 62 493 46 502 46 517 c 1
 63 555 134 642 246 642 c 0
 342 642 420 582 420 474 c 0
 420 413 390 354 344 300 c 0
 289 236 225 165 156 102 c 1
 172 102 328 102 328 102 c 2
 388 102 406 155 422 191 c 0
 424 196 430 198 436 198 c 0
 443 198 451 196 456 192 c 1
EndSplineSet
Validated: 513
Substitution2: "'smcp' Lowercase to Small Capitals in Latin lookup 0 subtable" two.sc
Substitution2: "'c2sc' Capitals to Small Capitals in Latin lookup 0 subtable" two.sc
Substitution2: "'onum' Oldstyle Figures in Latin lookup 3-1" two.onum
EndChar

StartChar: three
Encoding: 51 51 19
Width: 485
Flags: W
HStem: -6 42<167.235 269.423> 313 33<136.165 195.352> 568 74<158.612 274>
VStem: 283 117<442.547 531.989> 308 133<129.219 265.223>
LayerCount: 2
Fore
SplineSet
250 642 m 0xf0
 298 642 400 614 400 514 c 0xf0
 400 430 317 382 292 372 c 1
 324 370 441 340 441 220 c 0
 441 79 302 -6 174 -6 c 0
 109 -6 59 15 39 31 c 1
 32 40 27 64 27 74 c 0
 27 98 45 127 79 127 c 0
 106 127 127 99 143 80 c 0
 161 59 188 36 214 36 c 0
 276 36 308 88 308 178 c 0xe8
 308 253 266 322 199 322 c 0
 193 322 170 320 144 313 c 1
 140 318 135 329 135 337 c 0
 135 341 135 343 136 346 c 1
 193 356 283 387 283 458 c 0
 283 519 249 568 189 568 c 0
 135 568 87 524 80 516 c 1
 73 518 68 535 68 544 c 1
 105 593 170 642 250 642 c 0xf0
EndSplineSet
Validated: 513
Substitution2: "'smcp' Lowercase to Small Capitals in Latin lookup 0 subtable" three.sc
Substitution2: "'c2sc' Capitals to Small Capitals in Latin lookup 0 subtable" three.sc
Substitution2: "'onum' Oldstyle Figures in Latin lookup 3-1" three.onum
EndChar

StartChar: four
Encoding: 52 52 20
Width: 499
Flags: W
HStem: -5 21G<312 350> 174 68<91.7757 271 397 453.913> 624 20G<366 373>
VStem: 271 126<-1.13095 174 242 466>
LayerCount: 2
Fore
SplineSet
370 644 m 0
 376 644 397 628 397 616 c 10
 397 242 l 25
 442 242 l 2
 449 242 456 224 456 195 c 0
 456 180 447 174 447 174 c 9
 397 174 l 25
 397 4 l 17
 397 4 371 -5 329 -5 c 0
 295 -5 271 -1 271 8 c 2
 271 174 l 25
 17 174 l 17
 9 178 6 186 6 199 c 1
 126 348 244 498 350 630 c 0
 357 638 362 644 370 644 c 0
271 466 m 17
 236 421 111 262 92 242 c 1
 85 242 221 242 271 242 c 1
 271 315 271 466 271 466 c 17
EndSplineSet
Substitution2: "'smcp' Lowercase to Small Capitals in Latin lookup 0 subtable" four.sc
Substitution2: "'c2sc' Capitals to Small Capitals in Latin lookup 0 subtable" four.sc
Substitution2: "'onum' Oldstyle Figures in Latin lookup 3-1" four.onum
EndChar

StartChar: five
Encoding: 53 53 21
Width: 476
Flags: HW
HStem: -6 42<168.235 270.032> 328 95<131.819 286> 527 108<154 366.727> 626 20G<388 397.5>
VStem: 309 128<137.052 255.276>
LayerCount: 2
Fore
SplineSet
237 423 m 0
 335 423 437 335 437 230 c 0
 437 89 303 -6 175 -6 c 0
 110 -6 60 15 40 31 c 1
 33 40 28 64 28 74 c 0
 28 98 46 127 80 127 c 0
 107 127 128 99 144 80 c 0
 162 59 189 36 215 36 c 0
 277 36 309 88 309 178 c 0
 309 269 228 328 171 328 c 0
 108 328 89 318 79 314 c 1
 73 314 69 328 69 334 c 1xe8
 70 337 117 585 125 635 c 1
 168 635 239 635 303 635 c 0xe8
 345 635 381 643 395 646 c 1xd8
 400 644 408 643 408 632 c 0
 408 615 378 549 371 536 c 1
 319.069 531.435 263.555 529.149 221 528.028 c 0
 188.985 527.184 164.304 527 154 527 c 1
 152 517 131 410 131 410 c 1
 156 416 200 423 237 423 c 0
EndSplineSet
Substitution2: "'smcp' Lowercase to Small Capitals in Latin lookup 0 subtable" five.sc
Substitution2: "'c2sc' Capitals to Small Capitals in Latin lookup 0 subtable" five.sc
Substitution2: "'onum' Oldstyle Figures in Latin lookup 3-1" five.onum
EndChar

StartChar: six
Encoding: 54 54 22
Width: 497
Flags: HW
HStem: -6 42<215.975 293.478> 346 59<198.01 284.393> 619 26<395.02 420.755>
VStem: 43 131<132.653 330.882> 327 131<118.753 295.085>
LayerCount: 2
Fore
SplineSet
181 327 m 1
 176 292 174 249 174 221 c 0
 174 137 194 36 258 36 c 0
 297 36 327 92 327 182 c 0
 327 267 302 346 231 346 c 0
 219 346 195 341 181 327 c 1
275 405 m 0
 372 405 458 352 458 207 c 0
 458 90 353 -6 247 -6 c 0
 135 -6 43 112 43 242 c 3
 43 353 100 449 159 511 c 0
 245 602 347 636 415 645 c 1
 423 639 424 629 422 619 c 1
 296 567 225 481 193 380 c 1
 219 395 250 405 275 405 c 0
EndSplineSet
Substitution2: "'smcp' Lowercase to Small Capitals in Latin lookup 0 subtable" six.sc
Substitution2: "'c2sc' Capitals to Small Capitals in Latin lookup 0 subtable" six.sc
Substitution2: "'onum' Oldstyle Figures in Latin lookup 3-1" six.onum
EndChar

StartChar: seven
Encoding: 55 55 23
Width: 450
Flags: W
HStem: -11 21G<130.5 135> 536 100<87.3025 367>
VStem: 21 36<446.097 495.277>
LayerCount: 2
Fore
SplineSet
353 637 m 2
 388 637 437 641 443 641 c 0
 449 641 450 631 450 626 c 0
 450 617 439 598 423 565 c 2
 151 -8 l 1
 147 -11 136 -11 134 -11 c 0
 127 -11 90 -6 90 13 c 1
 132 73 276 344 367 536 c 1
 306 536 136 536 136 536 c 2
 86 536 70 490 57 452 c 0
 56 449 55 447 45 446 c 0
 35 445 25 450 21 454 c 1
 34 503 58 605 65 636 c 1
 81 636 353 637 353 637 c 2
EndSplineSet
Validated: 513
Substitution2: "'smcp' Lowercase to Small Capitals in Latin lookup 0 subtable" seven.sc
Substitution2: "'c2sc' Capitals to Small Capitals in Latin lookup 0 subtable" seven.sc
Substitution2: "'onum' Oldstyle Figures in Latin lookup 3-1" seven.onum
EndChar

StartChar: eight
Encoding: 56 56 24
Width: 518
Flags: HW
HStem: -6 42<218.792 317.823> 592 41<216.384 295.608>
VStem: 53 131<70.2294 227.187> 68 129<443.366 553.051> 322 125<420.964 558.947> 341 131<89.4662 186.982>
LayerCount: 2
Fore
SplineSet
266 36 m 3xe4
 315 36 341 73 341 118 c 3
 341 195 260 253 230 275 c 0
 225 279 223 280 221 280 c 0
 219 280 217 281 216 279 c 0
 194 252 184 206 184 156 c 27
 184 99 207 36 266 36 c 3xe4
258 592 m 3
 221 592 197 556 197 512 c 3
 197 443 258 399 283 386 c 0
 286 384 291 381 295 381 c 0
 298 381 300 383 301 384 c 0
 319 411 322 446 322 486 c 3xd8
 322 531 303 592 258 592 c 3
260 633 m 27
 352 633 447 584 447 489 c 3xd8
 447 426 393 378 336 354 c 0
 334 353 334 350 336 349 c 0
 373 327 472 257 472 167 c 3
 472 60 365 -6 258 -6 c 27
 157 -6 53 33 53 153 c 3xe4
 53 236 121 288 181 306 c 0
 183 307 183 308 179 311 c 0
 144 341 68 392 68 486 c 3
 68 574 166 633 260 633 c 27
EndSplineSet
Substitution2: "'smcp' Lowercase to Small Capitals in Latin lookup 0 subtable" eight.sc
Substitution2: "'c2sc' Capitals to Small Capitals in Latin lookup 0 subtable" eight.sc
Substitution2: "'onum' Oldstyle Figures in Latin lookup 3-1" eight.onum
EndChar

StartChar: nine
Encoding: 57 57 25
Width: 498
Flags: HW
HStem: -6 26<77.2447 102.98> 234 59<213.607 299.99> 603 42<204.522 282.025>
VStem: 40 131<343.915 520.247> 324 131<308.118 506.347>
LayerCount: 2
Fore
SplineSet
317 312 m 1
 323 341 324 386 324 418 c 0
 324 502 304 603 240 603 c 0
 201 603 171 547 171 457 c 0
 171 372 196 293 267 293 c 0
 279 293 303 298 317 312 c 1
76 20 m 1
 202 72 273 158 305 259 c 1
 279 244 248 234 223 234 c 0
 126 234 40 287 40 432 c 0
 40 549 145 645 251 645 c 0
 363 645 455 527 455 397 c 3
 455 286 398 190 339 128 c 0
 253 37 151 3 83 -6 c 1
 75 0 74 10 76 20 c 1
EndSplineSet
Substitution2: "'smcp' Lowercase to Small Capitals in Latin lookup 0 subtable" nine.sc
Substitution2: "'c2sc' Capitals to Small Capitals in Latin lookup 0 subtable" nine.sc
Substitution2: "'onum' Oldstyle Figures in Latin lookup 3-1" nine.onum
EndChar

StartChar: colon
Encoding: 58 58 26
Width: 256
Flags: W
HStem: -11 150<75.25 179.969> 281 150<75.25 179.969>
VStem: 53 150<12.2802 116 304.28 408>
LayerCount: 2
Fore
SplineSet
53 358 m 0
 53 398 87 431 128 431 c 27
 170 431 203 395 203 355 c 0
 203 315 170 281 129 281 c 27
 87 281 53 315 53 358 c 0
53 66 m 0
 53 106 87 139 128 139 c 27
 170 139 203 103 203 63 c 0
 203 23 170 -11 129 -11 c 27
 87 -11 53 23 53 66 c 0
EndSplineSet
Substitution2: "'smcp' Lowercase to Small Capitals in Latin lookup 0 subtable" colon.sc
EndChar

StartChar: semicolon
Encoding: 59 59 27
Width: 242
Flags: HW
HStem: 281 151<63.8889 163.448>
VStem: 39 147<305 409.243> 100 87<-35.4663 70>
LayerCount: 2
Fore
SplineSet
129 139 m 0xa0
 146 139 162 131 173 123 c 1
 181 108 187 82 187 58 c 0
 187 -37 120 -122 50 -157 c 1
 39 -154 29 -139 29 -133 c 1
 48 -121 100 -76 100 -27 c 0
 100 6 52 3 52 68 c 0
 52 84 67 139 129 139 c 0xa0
39 359 m 0xc0
 39 399 74 432 115 432 c 27
 155 432 186 399 186 359 c 0
 186 319 156 281 115 281 c 27
 73 281 39 319 39 359 c 0xc0
EndSplineSet
Substitution2: "'smcp' Lowercase to Small Capitals in Latin lookup 0 subtable" semicolon.sc
EndChar

StartChar: less
Encoding: 60 60 28
Width: 493
Flags: W
LayerCount: 2
Fore
SplineSet
443 45 m 0
 443 38 433 -15 427 -15 c 0
 426 -15 424 -14 422 -13 c 2
 47 177 l 2
 32 185 29 200 29 217 c 0
 29 228 37 236 47 241 c 2
 420 428 l 2
 422 429 424 430 425 430 c 0
 428 430 435 410 442 373 c 0
 443 367 439 364 439 364 c 1
 121 209 l 1
 440 51 l 1
 440 51 443 50 443 45 c 0
EndSplineSet
Validated: 1
Substitution2: "'smcp' Lowercase to Small Capitals in Latin lookup 0 subtable" less.sc
EndChar

StartChar: equal
Encoding: 61 61 29
Width: 553
Flags: W
HStem: 134 59<76.4601 480.545> 278 59<76.4601 480.545>
LayerCount: 2
Fore
SplineSet
473.547 134 m 1
 312.547 134 239.547 134 67.5469 134 c 1
 55.5469 134 69.5469 188 83.5469 193 c 9
 486.547 193 l 17
 500.547 193 487.547 141 473.547 134 c 1
473.547 278 m 1
 312.547 278 239.547 278 67.5469 278 c 1
 55.5469 278 69.5469 332 83.5469 337 c 9
 486.547 337 l 17
 500.547 337 487.547 285 473.547 278 c 1
EndSplineSet
Validated: 33
Substitution2: "'smcp' Lowercase to Small Capitals in Latin lookup 0 subtable" equal.sc
EndChar

StartChar: greater
Encoding: 62 62 30
Width: 493
Flags: W
LayerCount: 2
Fore
SplineSet
50 45 m 0
 50 50 53 51 53 51 c 1
 372 209 l 1
 54 364 l 1
 54 364 50 367 51 373 c 0
 58 410 65 430 68 430 c 0
 69 430 71 429 73 428 c 2
 446 241 l 2
 456 236 464 228 464 217 c 0
 464 200 461 185 446 177 c 2
 71 -13 l 2
 69 -14 67 -15 66 -15 c 0
 60 -15 50 38 50 45 c 0
EndSplineSet
Validated: 1
Substitution2: "'smcp' Lowercase to Small Capitals in Latin lookup 0 subtable" greater.sc
EndChar

StartChar: question
Encoding: 63 63 31
Width: 396
Flags: W
HStem: -11 150<89.2891 190.25> 580 67<132.5 248.214>
VStem: 65 147<13.4641 117.875> 112 38<196.662 255.523> 278 85<427 549.841>
LayerCount: 2
Fore
SplineSet
65 66 m 0xe8
 65 108 99 139 137 139 c 0
 179 139 212 107 212 66 c 0
 212 25 181 -11 141 -11 c 0
 104 -11 65 21 65 66 c 0xe8
114 518 m 0
 76 518 52 551 52 584 c 0
 52 601 60 624 67 630 c 1
 81 638 108 647 157 647 c 0
 202 647 363 610 363 471 c 0
 363 383 290 349 237 316 c 0
 210 299 172 281 155 256 c 0
 148 246 150 224 150 214 c 1
 148 208 140 196 135 196 c 0
 127 196 116 204 112 208 c 1xd8
 105 224 92 268 92 308 c 0
 92 366 136 398 172 422 c 0
 222 455 278 498 278 532 c 0
 278 553 260 580 224 580 c 0
 188 580 156 518 114 518 c 0
EndSplineSet
Validated: 33
Substitution2: "'smcp' Lowercase to Small Capitals in Latin lookup 0 subtable" question.sc
EndChar

StartChar: at
Encoding: 64 64 32
Width: 764
Flags: HW
HStem: -124 20<263.434 290> -7 62<484.5 587.258> -5 99<247.5 360> 389 54<392.77 500.5> 538 40<338.048 549.908>
VStem: 44 48<55.6187 284.93> 176 123<99.7792 218.188> 411 122<55.1974 162.287> 686 44<171.217 401.388>
LayerCount: 2
Fore
SplineSet
444 578 m 0xdf80
 640 578 730 446 730 290 c 0
 730 137 626 -7 509 -7 c 0xdf80
 460 -7 411 18 411 79 c 0
 411 87 412 100 415 108 c 1
 396 71 334 -5 273 -5 c 3xbf80
 222 -5 176 16 176 120 c 3
 176 266 341 443 483 443 c 0
 518 443 573 437 592 430 c 9
 536 127 l 2
 535 123 533 107 533 102 c 0
 533 88 529 55 556 55 c 0
 606 55 686 158 686 283 c 0
 686 418 618 538 444 538 c 0
 240 538 92 344 92 170 c 0
 92 53 155 -35 227 -77 c 0
 263 -98 285 -101 304 -104 c 1
 304 -112 280 -124 264 -124 c 0
 247 -124 232 -120 219 -115 c 0
 127 -81 44 24 44 165 c 0
 44 361 212 578 444 578 c 0xdf80
441 389 m 3
 358 389 299 263 299 148 c 0
 299 111 316 94 339 94 c 3xbf80
 381 94 425 164 447 274 c 2
 467 376 l 17
 458 386 454 389 441 389 c 3
EndSplineSet
Validated: 33
Substitution2: "'smcp' Lowercase to Small Capitals in Latin lookup 0 subtable" at.sc
EndChar

StartChar: A
Encoding: 65 65 33
Width: 669
Flags: HW
HStem: -4 37<138.091 207.043 388.617 449.514 615.004 676.724> 4 29<144.875 203.544> 225 48<207.181 375.18> 642 20G<335.681 345.681>
LayerCount: 2
Fore
SplineSet
91.1807 134 m 2xb0
 304.181 624 l 2
 310.181 637 330.181 662 341.181 662 c 0
 350.181 662 360.181 658 362.181 655 c 1
 567.181 148 l 2
 580.181 117 586.181 97 595.181 76 c 0
 612.181 35 666.181 33 674.181 33 c 1
 679.181 24 680.181 0 676.181 -4 c 1xb0
 636.181 -2 586.181 4 542.181 4 c 0x70
 496.181 4 427.181 -2 391.181 -4 c 1
 386.181 1 386.181 33 391.181 33 c 1
 408.181 33 436.181 39 450.181 51 c 0
 456.181 56 459.181 61 459.181 68 c 0
 459.181 77 399.181 220 399.181 220 c 1
 399.181 220 395.181 224 392.181 224 c 0
 354.181 226 321.181 225 296.181 225 c 0
 255.181 225 227.181 225 192.181 224 c 0
 189.181 224 186.181 221 185.181 219 c 1
 185.181 219 160.181 163 149.181 135 c 0
 139.181 110 127.181 74 127.181 67 c 0
 127.181 41 196.181 33 204.181 33 c 1
 210.181 26 208.181 0 205.181 -4 c 1xb0
 170.181 0 141.181 4 97.1807 4 c 0x70
 51.1807 4 23.1807 0 -11.8193 -4 c 1
 -15.8193 0 -17.8193 21 -13.8193 32 c 1
 -1.81934 32 46.1807 48 56.1807 64 c 0
 73.1807 92 79.1807 106 91.1807 134 c 2xb0
292.181 476 m 1
 207.181 280 l 1
 207.181 280 207.181 276 209.181 276 c 0
 229.181 274 269.181 273 292.181 273 c 0
 323.181 273 341.181 273 372.181 275 c 0
 374.181 275 375.181 280 375.181 280 c 1
 292.181 476 l 1
EndSplineSet
Substitution2: "'c2sc' Capitals to Small Capitals in Latin lookup 0 subtable" a.sc
Substitution2: "'c2sc' Capitals to Small Capitals in Latin lookup 0 subtable" a.sc
EndChar

StartChar: B
Encoding: 66 66 34
Width: 613
Flags: HW
HStem: -3 42<34.3223 102.026 255.776 378.011> 332 39<247.386 349.524> 620 40<33.624 101.734 250.068 352.679>
VStem: 107.386 140<51.5828 332 371 616.164> 385.386 148<434.432 579.961> 424.386 157<112.237 268.147>
LayerCount: 2
Fore
SplineSet
247.386 332 m 1
 247.386 109 l 2
 247.386 103 247.386 63 255.386 51 c 0
 263.386 40 292.386 39 318.386 39 c 0
 364.386 39 424.386 73 424.386 176 c 0xf4
 424.386 251 394.386 332 299.386 332 c 2
 247.386 332 l 1
247.386 371 m 1
 299.386 371 l 2
 349.386 371 385.386 412 385.386 487 c 0
 385.386 582 353.386 620 302.386 620 c 0
 279.386 620 257.386 619 252.386 608 c 0
 247.386 596 247.386 576 247.386 547 c 2xf8
 247.386 371 l 1
331.386 660 m 0
 424.386 660 533.386 618 533.386 502 c 0xf8
 533.386 422 452.386 376 425.386 366 c 0
 417.386 363 419.386 360 420.386 360 c 0
 470.386 354 581.386 296 581.386 192 c 0xf4
 581.386 126 538.386 67 476.386 30 c 0
 417.386 -5 342.386 -4 268.386 -3 c 0
 226.386 -3 74.3857 -2 35.3857 -3 c 1
 31.3857 3 30.3857 27 35.3857 34 c 1
 48.3857 35 94.3857 38 99.3857 51 c 0
 107.386 71 107.386 102 107.386 145 c 2
 107.386 513 l 2
 107.386 556 107.386 587 99.3857 607 c 0
 94.3857 620 48.3857 622 35.3857 623 c 1
 30.3857 630 31.3857 654 35.3857 660 c 1
 80.3857 657 136.386 657 178.386 657 c 0
 220.386 657 273.386 660 331.386 660 c 0
EndSplineSet
Substitution2: "'c2sc' Capitals to Small Capitals in Latin lookup 0 subtable" b.sc
Substitution2: "'c2sc' Capitals to Small Capitals in Latin lookup 0 subtable" b.sc
EndChar

StartChar: C
Encoding: 67 67 35
Width: 669
Flags: HW
HStem: -7 44<327.113 506.021> 624 43<305.986 489.296>
VStem: 37 160<204.574 441.519> 606 35<160.241 196.828>
LayerCount: 2
Fore
SplineSet
383 667 m 0
 449 667 532 660 591 648 c 1
 593 637 625 509 625 497 c 0
 625 491 611 482 599 482 c 3
 594 482 589 482 585 486 c 1
 575 525 533 624 392 624 c 0
 251 624 197 492 197 352 c 0
 197 196 261 37 412 37 c 0
 472 37 509 55 536 80 c 0
 578 118 604 196 606 204 c 1
 621 204 633 199 641 192 c 1
 641 181 615 46 600 40 c 0
 537 17 473 -7 381 -7 c 0
 193 -7 37 133 37 322 c 0
 37 515 193 667 383 667 c 0
EndSplineSet
Substitution2: "'c2sc' Capitals to Small Capitals in Latin lookup 0 subtable" c.sc
Substitution2: "'c2sc' Capitals to Small Capitals in Latin lookup 0 subtable" c.sc
EndChar

StartChar: D
Encoding: 68 68 36
Width: 755
Flags: HW
HStem: -3 42<34.3223 102.026 256.796 429.893> 620 40<33.624 101.734 250.068 404.285>
VStem: 107.386 140<49.4974 616.164> 556.386 159<207.017 459.229>
LayerCount: 2
Fore
SplineSet
247.386 547 m 2
 247.386 141 l 2
 247.386 135 247.386 82 255.386 62 c 0
 261.386 48 292.386 39 318.386 39 c 0
 481.386 39 556.386 130 556.386 325 c 0
 556.386 521 450.386 620 302.386 620 c 0
 279.386 620 257.386 619 252.386 608 c 0
 247.386 596 247.386 576 247.386 547 c 2
331.386 660 m 0
 562.386 660 715.386 541 715.386 336 c 0
 715.386 102 540.386 -3 324.386 -3 c 0
 282.386 -3 74.3857 -2 35.3857 -3 c 1
 31.3857 3 30.3857 27 35.3857 34 c 1
 48.3857 35 94.3857 38 99.3857 51 c 0
 107.386 71 107.386 102 107.386 145 c 2
 107.386 513 l 2
 107.386 556 107.386 587 99.3857 607 c 0
 94.3857 620 48.3857 622 35.3857 623 c 1
 30.3857 630 31.3857 654 35.3857 660 c 1
 80.3857 657 136.386 657 178.386 657 c 0
 220.386 657 272.386 659 331.386 660 c 0
EndSplineSet
Substitution2: "'c2sc' Capitals to Small Capitals in Latin lookup 0 subtable" d.sc
Substitution2: "'c2sc' Capitals to Small Capitals in Latin lookup 0 subtable" d.sc
EndChar

StartChar: E
Encoding: 69 69 37
Width: 596
Flags: HW
HStem: -3 37<33.1063 99.7549> -2 44<254.659 465.519> 310 47<247.386 394.813> 620 37<34.0322 101.118 250.389 440.827>
VStem: 107.386 140<50.3979 306.897 358.474 616.164> 431.386 31<386.617 434.825>
LayerCount: 2
Fore
SplineSet
178.386 657 m 0
 220.386 657 444.386 663 503.386 664 c 1
 510.386 614 523.386 561 532.386 516 c 1
 529.386 513 516.386 511 509.386 511 c 0
 502.386 511 495.386 514 493.386 519 c 0
 472.386 574 446.386 620 385.386 620 c 2
 302.386 620 l 0
 279.386 620 257.386 619 252.386 608 c 0
 247.386 596 247.386 576 247.386 547 c 2xbc
 247.386 368 l 2
 247.386 362 268.386 357 290.386 357 c 2
 343.386 357 l 2
 402.386 357 415.386 369 431.386 427 c 0
 432.386 432 436.386 435 443.386 435 c 0
 450.386 435 459.386 433 462.386 430 c 1
 462.386 238 l 1
 460.386 236 451.386 234 444.386 234 c 0
 437.386 234 431.386 237 430.386 242 c 0
 418.386 290 404.386 299 395.386 303 c 0
 383.386 308 357.386 310 319.386 310 c 0
 291.386 310 247.386 308 247.386 296 c 2
 247.386 141 l 2
 247.386 135 247.386 82 255.386 62 c 0
 261.386 48 294.386 42 320.386 42 c 0
 386.386 42 l 2
 424.386 42 456.386 52 479.386 75 c 0
 500.386 96 516.386 125 533.386 170 c 0
 534.386 174 540.386 176 547.386 176 c 0
 557.386 176 574.386 173 577.386 170 c 1
 558.386 116 530.386 42 523.386 -2 c 1x7c
 481.386 -2 74.3857 -2 35.3857 -3 c 1
 31.3857 3 30.3857 27 35.3857 34 c 1
 48.3857 35 94.3857 38 99.3857 51 c 0
 107.386 71 107.386 102 107.386 145 c 2
 107.386 513 l 2
 107.386 556 107.386 587 99.3857 607 c 0
 94.3857 620 48.3857 622 35.3857 623 c 1
 30.3857 630 31.3857 654 35.3857 660 c 1
 80.3857 657 136.386 657 178.386 657 c 0
EndSplineSet
Substitution2: "'c2sc' Capitals to Small Capitals in Latin lookup 0 subtable" e.sc
Substitution2: "'c2sc' Capitals to Small Capitals in Latin lookup 0 subtable" e.sc
EndChar

StartChar: F
Encoding: 70 70 38
Width: 542
Flags: W
HStem: -4 37<33.1062 99.3842 255.387 330.665> 306 47<247.386 394.813> 620 37<34.0322 101.118 250.389 440.827>
VStem: 107.386 140<42.0335 302.897 354.474 616.164> 431.386 31<382.617 430.825>
LayerCount: 2
Fore
SplineSet
178.386 657 m 0
 220.386 657 444.386 663 503.386 664 c 1
 510.386 614 523.386 561 532.386 516 c 1
 529.386 513 516.386 511 509.386 511 c 0
 502.386 511 495.386 514 493.386 519 c 0
 472.386 574 446.386 620 385.386 620 c 2
 302.386 620 l 0
 279.386 620 257.386 619 252.386 608 c 0
 247.386 596 247.386 576 247.386 547 c 2
 247.386 364 l 2
 247.386 358 268.386 353 290.386 353 c 2
 343.386 353 l 2
 402.386 353 415.386 365 431.386 423 c 0
 432.386 428 436.386 431 443.386 431 c 0
 450.386 431 459.386 429 462.386 426 c 1
 462.386 234 l 1
 460.386 232 451.386 230 444.386 230 c 0
 437.386 230 431.386 233 430.386 238 c 0
 418.386 286 404.386 295 395.386 299 c 0
 383.386 304 357.386 306 319.386 306 c 0
 291.386 306 247.386 304 247.386 292 c 2
 247.386 145 l 2
 247.386 102 247.386 71 255.386 51 c 0
 260.386 38 315.386 34 328.386 33 c 1
 333.386 26 332.386 2 328.386 -4 c 1
 289.386 0 218.386 3 176.386 3 c 0
 134.386 3 74.3857 0 35.3857 -4 c 1
 31.3857 2 30.3857 26 35.3857 33 c 1
 48.3857 34 94.3857 38 99.3857 51 c 0
 107.386 71 107.386 102 107.386 145 c 2
 107.386 513 l 2
 107.386 556 107.386 587 99.3857 607 c 0
 94.3857 620 48.3857 622 35.3857 623 c 1
 30.3857 630 31.3857 654 35.3857 660 c 1
 80.3857 657 136.386 657 178.386 657 c 0
EndSplineSet
Substitution2: "'c2sc' Capitals to Small Capitals in Latin lookup 0 subtable" f.sc
Substitution2: "'c2sc' Capitals to Small Capitals in Latin lookup 0 subtable" f.sc
EndChar

StartChar: G
Encoding: 71 71 39
Width: 716
Flags: HW
HStem: -7 43<327.684 491.644> 261 37<421.657 485.882 646.532 701.455> 624 43<305.404 491.806>
VStem: 37 160<205.849 438.124> 496 138<46.6322 247.801>
LayerCount: 2
Fore
SplineSet
496 183 m 0
 496 203 497 212 491 234 c 0
 484 259 437 261 425 261 c 0
 420 261 419 293 424 298 c 1
 475 296 526 292 577 292 c 0
 619 292 660 296 700 298 c 1
 704 285 702 261 699 261 c 1
 691 261 657 255 646 248 c 0
 640 244 634 224 634 205 c 0
 634 168 634 132 634 98 c 0
 634 89 640 74 640 69 c 0
 640 58 618 48 605 43 c 0
 542 19 473 -7 381 -7 c 0
 192 -7 37 133 37 322 c 0
 37 509 193 667 383 667 c 0
 449 667 532 660 591 648 c 1
 593 637 625 509 625 497 c 0
 625 491 611 482 599 482 c 3
 594 482 589 482 585 486 c 1
 575 525 535 624 394 624 c 0
 246 624 197 487 197 347 c 0
 197 191 268 36 409 36 c 0
 447 36 469 44 487 52 c 0
 491 54 496 58 496 67 c 0
 496 82 496 135 496 183 c 0
EndSplineSet
Substitution2: "'c2sc' Capitals to Small Capitals in Latin lookup 0 subtable" g.sc
Substitution2: "'c2sc' Capitals to Small Capitals in Latin lookup 0 subtable" g.sc
EndChar

StartChar: H
Encoding: 72 72 40
Width: 735
Flags: HW
HStem: -4 37<33.1063 99.3842 255.387 321.665 414.106 480.384 636.387 702.665> 317 51<248.53 488.386> 625 37<33.1063 99.3842 255.387 321.665 414.106 480.384 636.387 702.665>
VStem: 107.386 140<41.2661 312.952 368.001 616.734> 488.386 140<41.2661 314.998 368.001 616.734>
LayerCount: 2
Fore
SplineSet
178.386 655 m 0
 220.386 655 280.386 658 319.386 662 c 1
 323.386 656 324.386 632 319.386 625 c 1
 306.386 624 260.386 620 255.386 607 c 0
 247.386 587 247.386 556 247.386 513 c 2
 247.386 371 l 1
 247.386 369 249.386 368 249.386 368 c 1
 288.386 367 325.386 365 370.386 365 c 0
 407.386 365 451.386 367 487.386 368 c 1
 487.386 368 489.386 370 489.386 372 c 0
 488.386 513 l 2
 488.386 556 488.386 587 480.386 607 c 0
 475.386 620 429.386 624 416.386 625 c 1
 411.386 632 412.386 656 416.386 662 c 1
 455.386 658 517.386 655 559.386 655 c 0
 601.386 655 661.386 658 700.386 662 c 1
 704.386 656 705.386 632 700.386 625 c 1
 687.386 624 641.386 620 636.386 607 c 0
 628.386 587 628.386 556 628.386 513 c 2
 628.386 145 l 2
 628.386 102 628.386 71 636.386 51 c 0
 641.386 38 687.386 34 700.386 33 c 1
 705.386 26 704.386 2 700.386 -4 c 1
 661.386 0 599.386 3 557.386 3 c 0
 515.386 3 455.386 0 416.386 -4 c 1
 412.386 2 411.386 26 416.386 33 c 1
 429.386 34 475.386 38 480.386 51 c 0
 488.386 71 488.386 102 488.386 145 c 2
 488.386 310 l 0
 488.386 312 486.386 315 486.386 315 c 1
 449.386 316 411.386 317 370.386 317 c 0
 259.386 317 251.386 315 248.386 313 c 1
 247.386 312 247.386 309 247.386 309 c 1
 247.386 145 l 2
 247.386 102 247.386 71 255.386 51 c 0
 260.386 38 306.386 34 319.386 33 c 1
 324.386 26 323.386 2 319.386 -4 c 1
 280.386 0 218.386 3 176.386 3 c 0
 134.386 3 74.3857 0 35.3857 -4 c 1
 31.3857 2 30.3857 26 35.3857 33 c 1
 48.3857 34 94.3857 38 99.3857 51 c 0
 107.386 71 107.386 102 107.386 145 c 2
 107.386 513 l 2
 107.386 556 107.386 587 99.3857 607 c 0
 94.3857 620 48.3857 624 35.3857 625 c 1
 30.3857 632 31.3857 656 35.3857 662 c 1
 74.3857 658 136.386 655 178.386 655 c 0
EndSplineSet
Substitution2: "'c2sc' Capitals to Small Capitals in Latin lookup 0 subtable" h.sc
Substitution2: "'c2sc' Capitals to Small Capitals in Latin lookup 0 subtable" h.sc
EndChar

StartChar: I
Encoding: 73 73 41
Width: 354
Flags: W
HStem: -4 37<33.1063 99.3842 255.387 321.665> 625 37<33.1063 99.3842 255.387 321.665>
VStem: 107.386 140<41.2661 616.734>
LayerCount: 2
Fore
SplineSet
178.386 655 m 0
 220.386 655 280.386 658 319.386 662 c 1
 323.386 656 324.386 632 319.386 625 c 1
 306.386 624 260.386 620 255.386 607 c 0
 247.386 587 247.386 556 247.386 513 c 2
 247.386 145 l 2
 247.386 102 247.386 71 255.386 51 c 0
 260.386 38 306.386 34 319.386 33 c 1
 324.386 26 323.386 2 319.386 -4 c 1
 280.386 0 218.386 3 176.386 3 c 0
 134.386 3 74.3857 0 35.3857 -4 c 1
 31.3857 2 30.3857 26 35.3857 33 c 1
 48.3857 34 94.3857 38 99.3857 51 c 0
 107.386 71 107.386 102 107.386 145 c 2
 107.386 513 l 2
 107.386 556 107.386 587 99.3857 607 c 0
 94.3857 620 48.3857 624 35.3857 625 c 1
 30.3857 632 31.3857 656 35.3857 662 c 1
 74.3857 658 136.386 655 178.386 655 c 0
EndSplineSet
Validated: 33
Substitution2: "'c2sc' Capitals to Small Capitals in Latin lookup 0 subtable" i.sc
Substitution2: "'c2sc' Capitals to Small Capitals in Latin lookup 0 subtable" i.sc
EndChar

StartChar: J
Encoding: 74 74 42
Width: 340
Flags: HW
HStem: -218 61<-64.5 62.2742> 625 37<26.7205 92.9985 249.001 315.279>
VStem: 101 140<-9.59375 616.734>
LayerCount: 2
Fore
SplineSet
172 655 m 0
 214 655 274 658 313 662 c 1
 317 656 318 632 313 625 c 1
 300 624 254 620 249 607 c 0
 241 587 241 556 241 513 c 2
 241 143 l 2
 241 -85 127 -218 -55 -218 c 3
 -74 -218 -103 -207 -112 -200 c 1
 -119 -189 -128 -178 -128 -157 c 3
 -128 -123 -100 -90 -68 -90 c 3
 -45.6136 -90 -27.4344 -106.581 -11 -123.246 c 0
 5.60111 -140.08 20.4218 -157 36 -157 c 3
 99 -157 101 -31 101 135 c 2
 101 513 l 2
 101 556 101 587 93 607 c 0
 88 620 42 624 29 625 c 1
 24 632 25 656 29 662 c 1
 68 658 130 655 172 655 c 0
EndSplineSet
Substitution2: "'c2sc' Capitals to Small Capitals in Latin lookup 0 subtable" j.sc
Substitution2: "'c2sc' Capitals to Small Capitals in Latin lookup 0 subtable" j.sc
EndChar

StartChar: K
Encoding: 75 75 43
Width: 712
Flags: HW
HStem: -4 37<34.0322 97.7082 256.203 320.739 660.138 728.106> 625 37<33.1063 99.3842 255.387 321.665 432.941 490.911 608.33 687.684>
VStem: 107.386 140<41.2661 305.999 337 616.734>
LayerCount: 2
Fore
SplineSet
178.386 655 m 0
 220.386 655 280.386 658 319.386 662 c 1
 323.386 656 324.386 632 319.386 625 c 1
 306.386 624 260.386 620 255.386 607 c 0
 247.386 587 247.386 556 247.386 513 c 2
 247.386 337 l 1
 291.386 372 327.386 403 351.386 428 c 0
 411.386 489 439.386 514 481.386 570 c 0
 491.386 583 491.386 596 491.386 603 c 0
 491.386 624 449.386 626 435.386 626 c 1
 430.386 634 430.386 653 433.386 662 c 1
 470.386 660 526.386 655 563.386 655 c 0
 607.386 655 650.386 658 687.386 662 c 1
 690.386 655 690.386 633 685.386 627 c 1
 676.386 626 608.386 619 572.386 583 c 2
 572.386 583 459.386 468 384.386 389 c 0
 378.386 382 378.386 378 381.386 373 c 0
 454.386 275 561.386 130 561.386 130 c 1
 635.386 36 719.386 33 727.386 33 c 1
 732.386 26 728.386 -2 727.386 -4 c 1
 698.386 -6 637.386 -8 596.386 -8 c 0
 519.386 -8 468.386 33 443.386 67 c 0
 417.386 103 311.386 243 267.386 302 c 0
 264.386 305 259.386 306 257.386 306 c 0
 253.386 306 249.386 304 247.386 300 c 1
 247.386 145 l 2
 247.386 102 247.386 71 255.386 51 c 0
 260.386 38 306.386 34 319.386 33 c 1
 324.386 26 323.386 2 319.386 -4 c 1
 280.386 0 218.386 3 176.386 3 c 0
 134.386 3 74.3857 0 35.3857 -4 c 1
 31.3857 2 30.3857 26 35.3857 33 c 1
 48.3857 34 94.3857 38 99.3857 51 c 0
 107.386 71 107.386 102 107.386 145 c 2
 107.386 513 l 2
 107.386 556 107.386 587 99.3857 607 c 0
 94.3857 620 48.3857 624 35.3857 625 c 1
 30.3857 632 31.3857 656 35.3857 662 c 1
 74.3857 658 136.386 655 178.386 655 c 0
EndSplineSet
Validated: 33
Substitution2: "'c2sc' Capitals to Small Capitals in Latin lookup 0 subtable" k.sc
Substitution2: "'c2sc' Capitals to Small Capitals in Latin lookup 0 subtable" k.sc
EndChar

StartChar: L
Encoding: 76 76 44
Width: 573
Flags: HW
HStem: -3 37<33.1063 99.7549> -2 44<254.659 465.519> 625 37<33.1063 99.3842 255.387 321.665>
VStem: 107.386 140<50.3979 616.734>
LayerCount: 2
Fore
SplineSet
247.386 141 m 2xb0
 247.386 135 247.386 82 255.386 62 c 0
 261.386 48 294.386 42 320.386 42 c 0
 386.386 42 l 2
 424.386 42 456.386 52 479.386 75 c 0
 500.386 96 516.386 125 533.386 170 c 0
 534.386 174 540.386 176 547.386 176 c 0
 557.386 176 574.386 173 577.386 170 c 1
 558.386 116 530.386 42 523.386 -2 c 1x70
 495.94 -2 312.631 -2 178 -2.27905 c 0
 106.606 -2.42702 48.9004 -2.65347 35.3857 -3 c 1
 31.3857 3 30.3857 27 35.3857 34 c 1
 48.3857 35 94.3857 38 99.3857 51 c 0
 107.386 71 107.386 102 107.386 145 c 2
 107.386 513 l 2
 107.386 556 107.386 587 99.3857 607 c 0
 94.3857 620 48.3857 624 35.3857 625 c 1
 30.3857 632 31.3857 656 35.3857 662 c 1
 74.3857 658 136.386 655 178.386 655 c 0
 220.386 655 280.386 658 319.386 662 c 1
 323.386 656 324.386 632 319.386 625 c 1
 306.386 624 260.386 620 255.386 607 c 0
 247.386 587 247 556 247.386 513 c 2
 247.386 141 l 2xb0
EndSplineSet
Substitution2: "'c2sc' Capitals to Small Capitals in Latin lookup 0 subtable" l.sc
Substitution2: "'c2sc' Capitals to Small Capitals in Latin lookup 0 subtable" l.sc
EndChar

StartChar: M
Encoding: 77 77 45
Width: 901
Flags: HW
HStem: -4 37<14.9725 83.3426 192.139 266.032 581.605 649.649 812.84 877.323> 625 37<58.2435 121.437 798.625 849.332>
LayerCount: 2
Fore
SplineSet
168.139 656 m 0
 202.139 656 233.139 660 273.139 662 c 1
 302.139 598 387.139 408 462.139 238 c 1
 462.139 238 465.139 236 466.139 236 c 0
 467.139 236 470.139 241 470.139 242 c 2
 470.139 242 545 426 588.139 546 c 24
 604 589 621.139 658 621.139 658 c 1
 630.139 657 710 655 729 655 c 0
 763 655 806.139 660 846.139 662 c 1
 850.139 658 855.139 632 850.139 624 c 1
 842.139 624 808.139 620 798.139 613 c 0
 788.139 606 783.139 599 784.139 572 c 0
 787.139 502 793.139 280 799.139 152 c 0
 801.139 113 802.139 77 812.139 51 c 0
 818.139 37 867.139 33 875.139 33 c 1
 879.139 24 880.139 6 877.139 -4 c 1
 837.139 -2 785.139 4 741.139 4 c 0
 695.139 4 630.139 -2 584.139 -4 c 1
 580.139 0 579.139 25 582.139 33 c 1
 594.139 33 643.139 38 652.139 52 c 0
 657.139 60 660.139 77 660.139 87 c 0
 660.139 97 660 130 659.139 148 c 2
 649 497 l 2
 648.913 499.997 649.139 523 642.139 523 c 0
 640.139 523 639.139 521 637.139 516 c 2
 461.139 40 l 2
 458.139 31 436.139 -2 418.139 -2 c 0
 415.139 -2 412.139 -1 409.139 0 c 1
 186.139 523 l 1
 179.139 315 179.139 291 173.139 134 c 0
 172.139 112 175.139 72 177.139 65 c 0
 183.139 44 256.139 33 264.139 33 c 1
 267.139 26 269.139 6 266.139 -4 c 1
 226.139 -2 186.139 4 142.139 4 c 0
 96.1387 4 63.1387 -2 17.1387 -4 c 1
 13.1387 3 13.1387 22 16.1387 32 c 1
 28.1387 32 90.1387 42 101.139 68 c 0
 105.139 78 112.139 140 113.139 156 c 0
 119.139 273 128.139 534 130.139 581 c 0
 130.139 588 130.139 596 125.139 603 c 0
 117.139 614 77.1387 625 60.1387 625 c 1
 54.1387 633 58.1387 660 60.1387 662 c 1
 106.139 660 122.139 656 168.139 656 c 0
EndSplineSet
Substitution2: "'c2sc' Capitals to Small Capitals in Latin lookup 0 subtable" m.sc
Substitution2: "'c2sc' Capitals to Small Capitals in Latin lookup 0 subtable" m.sc
EndChar

StartChar: N
Encoding: 78 78 46
Width: 753
Flags: W
HStem: -4 37<27.0117 100.45 201.383 277.32> 625 38<33.1811 99.9414 486.012 566.671 654.402 736.32> 625 30<36.1931 95.2556>
VStem: 120.736 61<49.9165 518.032> 579.736 61<248.338 612.714>
LayerCount: 2
Fore
SplineSet
147.736 655 m 0xb8
 182.736 655 224.736 658 256.736 662 c 1
 294.736 584 454.736 401 577.736 248 c 1
 579.736 255 579.736 275 579.736 289 c 2
 579.736 476 l 0
 579.736 514 575.736 589 568.736 604 c 0
 560.736 622 499.736 626 487.736 626 c 1
 485.736 626 482.736 654 487.736 663 c 1xd8
 533.736 661 563.736 655 609.736 655 c 0xb8
 653.736 655 695.736 661 735.736 663 c 1
 737.736 657 739.736 635 733.736 625 c 1
 725.736 625 658.736 623 650.736 602 c 0
 645.736 588 640.736 515 640.736 479 c 2
 640.736 139 l 2
 640.736 81 642.736 51 644.736 -1 c 1
 641.736 -4 622.736 -5 619.736 -5 c 0
 610.736 -5 598.736 5 588.736 18 c 2
 181.736 519 l 1
 181.736 157 l 2
 181.736 121 187.736 74 192.736 60 c 0
 199.736 41 266.736 34 274.736 34 c 1
 280.736 24 278.736 2 276.736 -4 c 1
 236.736 -2 194.736 4 150.736 4 c 0
 104.736 4 74.7363 -2 28.7363 -4 c 1
 23.7363 5 26.7363 33 28.7363 33 c 1
 40.7363 33 100.736 41 108.736 59 c 0
 115.736 74 120.736 122 120.736 160 c 0
 120.736 291 120.736 383 120.736 514 c 0
 120.736 542 115.736 585 102.736 604 c 0
 93.7363 617 48.7363 625 36.7363 625 c 0xd8
 31.7363 625 29.7363 657 34.7363 662 c 1
 65.7363 660 101.736 655 147.736 655 c 0xb8
EndSplineSet
Validated: 33
Substitution2: "'c2sc' Capitals to Small Capitals in Latin lookup 0 subtable" n.sc
Substitution2: "'c2sc' Capitals to Small Capitals in Latin lookup 0 subtable" n.sc
EndChar

StartChar: O
Encoding: 79 79 47
Width: 752
Flags: W
HStem: -10 43<318.356 466.535> 624 43<284.38 432.304>
VStem: 36 160<211.696 443.97> 556 160<211.714 444.117>
LayerCount: 2
Fore
SplineSet
352 624 m 3
 234 624 196 484 196 363 c 3
 196 210 248 33 397 33 c 3
 516 33 556 171 556 292 c 3
 556 445 501 624 352 624 c 3
376 667 m 0
 552 667 716 515 716 328 c 0
 716 141 552 -10 376 -10 c 0
 200 -10 36 141 36 328 c 0
 36 515 200 667 376 667 c 0
EndSplineSet
Validated: 1
Substitution2: "'c2sc' Capitals to Small Capitals in Latin lookup 0 subtable" o.sc
Substitution2: "'c2sc' Capitals to Small Capitals in Latin lookup 0 subtable" o.sc
EndChar

StartChar: P
Encoding: 80 80 48
Width: 579
Flags: HW
HStem: -4 37<33.1063 99.3842 255.387 321.665> 287 51<293.019 376.535> 620 40<33.624 101.734 250.068 355.568>
VStem: 107.386 140<41.2661 616.164> 413.386 149<391.288 558.828>
LayerCount: 2
Fore
SplineSet
562.386 482 m 0
 562.386 362 462.386 287 361.386 287 c 0
 325.386 287 299.386 303 292.386 310 c 0
 288.392 313.994 284.841 326.85 284.978 335 c 0
 285.047 339.094 286.046 342 288.386 342 c 1
 298.386 339 314.386 338 329.386 338 c 0
 378.386 338 413.386 391 413.386 468 c 0
 413.386 547 369.386 620 302.386 620 c 0
 279.386 620 257.386 619 252.386 608 c 0
 247.386 596 247.386 576 247.386 547 c 2
 247.386 145 l 2
 247.386 102 247.386 71 255.386 51 c 0
 260.386 38 306.386 34 319.386 33 c 1
 324.386 26 323.386 2 319.386 -4 c 1
 280.386 0 218.386 3 176.386 3 c 0
 134.386 3 74.3857 0 35.3857 -4 c 1
 31.3857 2 30.3857 26 35.3857 33 c 1
 48.3857 34 94.3857 38 99.3857 51 c 0
 107.386 71 107.386 102 107.386 145 c 2
 107.386 513 l 2
 107.386 556 107.386 587 99.3857 607 c 0
 94.3857 620 48.3857 622 35.3857 623 c 1
 30.3857 630 31.3857 654 35.3857 660 c 1
 80.3857 657 136.386 657 178.386 657 c 0
 220.386 657 273.386 660 332.386 660 c 0
 457.386 660 562.386 596 562.386 482 c 0
EndSplineSet
Substitution2: "'c2sc' Capitals to Small Capitals in Latin lookup 0 subtable" p.sc
Substitution2: "'c2sc' Capitals to Small Capitals in Latin lookup 0 subtable" p.sc
EndChar

StartChar: Q
Encoding: 81 81 49
Width: 752
Flags: HW
HStem: -143 69<535.354 712.078> 624 43<284.38 432.304>
VStem: 36 160<213.589 443.97> 556 160<213.119 444.117>
LayerCount: 2
Fore
SplineSet
376 667 m 0
 552 667 716 515 716 328 c 0
 716 178 610 51 478 7 c 1
 570 -38 599 -74 701 -74 c 0
 741 -74 765 -66 772 -66 c 1
 778 -66 789.767 -71.1504 795 -79 c 0
 797 -82 797 -84 797 -84 c 1
 742 -113 653 -143 592 -143 c 0
 482 -143 405 -33 297 0 c 0
 153 38 36 170 36 328 c 0
 36 515 200 667 376 667 c 0
352 624 m 0
 234 624 196 484 196 363 c 0
 196 210 248 33 397 33 c 0
 516 33 556 171 556 292 c 0
 556 445 501 624 352 624 c 0
EndSplineSet
Substitution2: "'c2sc' Capitals to Small Capitals in Latin lookup 0 subtable" q.sc
Substitution2: "'c2sc' Capitals to Small Capitals in Latin lookup 0 subtable" q.sc
EndChar

StartChar: R
Encoding: 82 82 50
Width: 687
Flags: W
HStem: -4 37<34.0322 97.7082 256.203 320.739 659.138 727.106> 299 39<247.386 282.917> 620 40<33.624 101.734 250.068 361.085>
VStem: 107.386 140<41.2661 299 338 616.164> 402.386 149<406.517 566.818>
LayerCount: 2
Fore
SplineSet
332.386 660 m 0
 457.386 660 551.386 598 551.386 478 c 0
 551.386 396 463.386 328 415.386 316 c 1
 488.386 218 560.386 130 560.386 130 c 1
 634.386 36 718.386 33 726.386 33 c 1
 731.386 26 727.386 -2 726.386 -4 c 1
 697.386 -6 636.386 -8 595.386 -8 c 0
 518.386 -8 467.386 33 442.386 67 c 0
 280.386 284 l 0
 280.386 284 270.386 299 262.386 299 c 0
 255.386 299 247.386 299 247.386 299 c 9
 247.386 145 l 2
 247.386 102 247.386 71 255.386 51 c 0
 260.386 38 306.386 34 319.386 33 c 1
 324.386 26 323.386 2 319.386 -4 c 1
 280.386 0 218.386 3 176.386 3 c 0
 134.386 3 74.3857 0 35.3857 -4 c 1
 31.3857 2 30.3857 26 35.3857 33 c 1
 48.3857 34 94.3857 38 99.3857 51 c 0
 107.386 71 107.386 102 107.386 145 c 2
 107.386 513 l 2
 107.386 556 107.386 587 99.3857 607 c 0
 94.3857 620 48.3857 622 35.3857 623 c 1
 30.3857 630 31.3857 654 35.3857 660 c 1
 80.3857 657 136.386 657 178.386 657 c 0
 220.386 657 273.386 660 332.386 660 c 0
402.386 468 m 0
 402.386 547 384.386 620 302.386 620 c 0
 279.386 620 257.386 619 252.386 608 c 0
 247.386 596 247.386 576 247.386 547 c 2
 247.386 338 l 17
 293.386 338 l 0
 350.386 338 402.386 391 402.386 468 c 0
EndSplineSet
Validated: 33
Substitution2: "'c2sc' Capitals to Small Capitals in Latin lookup 0 subtable" r.sc
Substitution2: "'c2sc' Capitals to Small Capitals in Latin lookup 0 subtable" r.sc
EndChar

StartChar: S
Encoding: 83 83 51
Width: 515
Flags: HW
HStem: -10 42<182.098 313.967> 628 42<209.864 326.921>
VStem: 44 42<137.613 197.961> 51 133<484.422 565.673> 345 131<94.5926 187.223> 402 41<470.077 538.743>
LayerCount: 2
Fore
SplineSet
264 670 m 0
 323 670 371 655 432 642 c 1
 437 589 440 537 443 476 c 1
 440 472 436 470 432 470 c 0
 429 470 404 469 402 477 c 0
 394 533 346 628 269 628 c 0
 230 628 184 608 184 541 c 0xd4
 184 479 268 422 329 381 c 0
 395 337 476 294 476 175 c 0
 476 65 368 -10 258 -10 c 0
 199 -10 128 2 68 16 c 1
 58 60 46 158 44 186 c 1
 48 192 68 200 73 200 c 0
 80 200 85 198 86 192 c 0
 95 138 158 32 248 32 c 0xe8
 299 32 345 58 345 129 c 0xe8
 345 200 247 258 197 292 c 0
 124 341 51 385 51 489 c 0
 51 592 161 670 264 670 c 0
EndSplineSet
Substitution2: "'c2sc' Capitals to Small Capitals in Latin lookup 0 subtable" s.sc
Substitution2: "'c2sc' Capitals to Small Capitals in Latin lookup 0 subtable" s.sc
EndChar

StartChar: T
Encoding: 84 84 52
Width: 628
Flags: W
HStem: -4 37<169.721 235.999 392.001 458.279> 613 44<99.6343 244 384 528.366>
VStem: 5 39<482.931 537.849> 244 140<41.2661 613> 584 39<482.931 537.849>
CounterMasks: 1 38
LayerCount: 2
Fore
SplineSet
480 657 m 0
 552 657 566 676 584 676 c 0
 592 676 592 675 596 673 c 1
 623 489 l 1
 620 486 603 482 594 482 c 0
 589 482 585 483 584 487 c 0
 574 552 528 613 477 613 c 2
 384 613 l 1
 384 145 l 2
 384 102 384 71 392 51 c 0
 397 38 443 34 456 33 c 1
 461 26 460 2 456 -4 c 1
 417 0 355 3 313 3 c 0
 271 3 211 0 172 -4 c 1
 168 2 167 26 172 33 c 1
 185 34 231 38 236 51 c 0
 244 71 244 102 244 145 c 2
 244 613 l 1
 151 613 l 2
 100 613 54 552 44 487 c 0
 43 483 39 482 34 482 c 0
 25 482 8 486 5 489 c 1
 32 673 l 1
 36 675 36 676 44 676 c 0
 62 676 76 657 148 657 c 0
 237 657 391 657 480 657 c 0
EndSplineSet
Validated: 33
Substitution2: "'c2sc' Capitals to Small Capitals in Latin lookup 0 subtable" t.sc
Substitution2: "'c2sc' Capitals to Small Capitals in Latin lookup 0 subtable" t.sc
EndChar

StartChar: U
Encoding: 85 85 53
Width: 727
Flags: HW
HStem: -9 72<320.115 475.237> 625 37<18.1063 84.3842 240.387 306.665 480.106 553.224 651.614 726.665>
VStem: 92.3857 140<166.436 616.734> 571.386 62<175.49 609.521>
LayerCount: 2
Fore
SplineSet
163.386 655 m 0
 205.386 655 265.386 658 304.386 662 c 1
 308.386 656 309.386 632 304.386 625 c 1
 291.386 624 245.386 620 240.386 607 c 0
 232.386 587 232.386 556 232.386 513 c 2
 232.386 330 l 2
 232.386 262 234.386 212 257.386 159 c 0
 295.386 71 370.386 63 409.386 63 c 0
 489.386 63 571.386 134 571.386 309 c 2
 571.386 479 l 2
 571.386 522 565.386 581 557.386 601 c 0
 549.386 620 495.386 624 482.386 625 c 1
 477.386 632 478.386 656 482.386 662 c 1
 529.386 658 561.386 655 607.386 655 c 0
 651.386 655 683.386 660 724.386 662 c 1
 728.386 656 729.386 632 724.386 625 c 1
 711.386 624 655.386 622 647.386 601 c 0
 639.386 581 633.386 523 633.386 480 c 2
 633.386 286 l 2
 633.386 82 503.386 -9 359.386 -9 c 0
 275.386 -9 196.386 19 148.386 79 c 0
 109.386 128 92.3857 197 92.3857 301 c 2
 92.3857 513 l 2
 92.3857 556 92.3857 587 84.3857 607 c 0
 79.3857 620 33.3857 624 20.3857 625 c 1
 15.3857 632 16.3857 656 20.3857 662 c 1
 59.3857 658 121.386 655 163.386 655 c 0
EndSplineSet
Substitution2: "'c2sc' Capitals to Small Capitals in Latin lookup 0 subtable" u.sc
Substitution2: "'c2sc' Capitals to Small Capitals in Latin lookup 0 subtable" u.sc
EndChar

StartChar: V
Encoding: 86 86 54
Width: 680
Flags: HW
HStem: -11 21G<325.886 336.386> 625 37<-6.89375 50.625 221.003 281.665 463.106 542.481 626.389 698.665>
LayerCount: 2
Fore
SplineSet
138.386 655 m 0
 180.386 655 240.386 658 279.386 662 c 1
 283.386 656 284.386 632 279.386 625 c 1
 266.386 624 218.386 623 218.386 598 c 0
 218.386 582 230.386 551 242.386 523 c 0
 300.386 390 391.386 186 391.386 186 c 1
 391.386 186 513.386 493 523.386 521 c 0
 532.386 547 545.386 580 545.386 601 c 0
 545.386 619 478.386 624 465.386 625 c 1
 460.386 632 461.386 656 465.386 662 c 1
 512.386 658 538.386 655 584.386 655 c 0
 628.386 655 655.386 660 696.386 662 c 1
 700.386 656 701.386 632 696.386 625 c 1
 683.386 624 638.386 623 626.386 607 c 0
 611.386 587 599.386 557 585.386 524 c 0
 503.386 323 455.386 215 378.386 30 c 0
 370.386 12 342.386 -11 330.386 -11 c 0
 321.386 -11 321.386 -4 316.386 3 c 1
 98.3857 510 l 2
 86.3857 539 72.3857 572 63.3857 592 c 0
 51.3857 618 8.38574 624 -4.61426 625 c 1
 -9.61426 632 -8.61426 656 -4.61426 662 c 1
 34.3857 658 96.3857 655 138.386 655 c 0
EndSplineSet
Substitution2: "'c2sc' Capitals to Small Capitals in Latin lookup 0 subtable" v.sc
Substitution2: "'c2sc' Capitals to Small Capitals in Latin lookup 0 subtable" v.sc
EndChar

StartChar: W
Encoding: 87 87 55
Width: 947
Flags: HW
HStem: -11 21G<293.287 303.787 639.287 649.787> 625 37<-6.61855 51.0263 221.404 282.067 725.508 802.969 888.791 961.067>
LayerCount: 2
Fore
SplineSet
138.787 655 m 0
 180.787 655 240.787 658 279.787 662 c 1
 283.787 656 284.787 632 279.787 625 c 1
 266.787 624 218.787 623 218.787 598 c 0
 218.787 582 231.787 552 242.787 523 c 0
 286.787 401 340.787 251 340.787 251 c 1
 340.787 251 449.787 560 473.787 625 c 0
 480.787 644 493.787 662 504.787 662 c 0
 508.787 662 512.787 657 516.787 646 c 0
 582.787 478 687.787 214 687.787 214 c 1
 687.787 214 775.787 489 785.787 521 c 0
 793.787 547 805.787 580 805.787 601 c 0
 805.787 619 740.787 624 727.787 625 c 1
 722.787 632 723.787 656 727.787 662 c 1
 774.787 658 800.787 655 846.787 655 c 0
 890.787 655 917.787 660 958.787 662 c 1
 962.787 656 963.787 632 958.787 625 c 1
 945.787 624 900.787 623 888.787 607 c 0
 873.787 587 858.787 559 847.787 524 c 0
 785.787 335 746.787 225 683.787 40 c 0
 674.787 15 655.787 -11 643.787 -11 c 0
 634.787 -11 629.787 -4 624.787 3 c 1
 459.787 418 l 1
 459.787 418 381.787 188 332.787 44 c 0
 328.787 33 309.787 -11 297.787 -11 c 0
 288.787 -11 283.787 -4 278.787 3 c 1
 98.7871 510 l 2
 88.7871 540 72.7871 572 63.7871 592 c 0
 51.7871 618 8.78711 624 -4.21289 625 c 1
 -10.2129 632 -8.21289 656 -4.21289 662 c 1
 34.7871 658 96.7871 655 138.787 655 c 0
EndSplineSet
Substitution2: "'c2sc' Capitals to Small Capitals in Latin lookup 0 subtable" w.sc
Substitution2: "'c2sc' Capitals to Small Capitals in Latin lookup 0 subtable" w.sc
EndChar

StartChar: X
Encoding: 88 88 56
Width: 704
Flags: HW
HStem: -4 37<-10.8135 67.15 174.5 251.606 388.195 442.842 639.912 709.791> 625 37<14.1865 84.0735 262.356 317.748 436.407 506.145 622.169 693.39>
LayerCount: 2
Fore
SplineSet
172.75 656 m 0
 221.75 656 276.75 660 316.75 662 c 1
 318.75 656 319.75 625 314.75 625 c 1
 300.75 625 262.75 619 261.75 604 c 0
 261.75 598 265.75 588 269.75 582 c 2
 380.75 414 l 1
 425.25 470.96 495.888 550.89 510.891 584 c 0
 512.746 588.093 513.75 591.47 513.75 594 c 0
 513.75 611 473.75 625 439.75 625 c 1
 434.75 625 433.75 657 438.75 662 c 1
 473.75 658 534.75 655 571.75 655 c 0
 623.75 655 662.75 658 691.75 662 c 1
 694.75 656 695.75 625 690.75 625 c 1
 682.75 625 621.75 623 578.75 572 c 2
 407.75 369 l 1
 491.75 242 593.75 93 608.75 76 c 0
 637.75 41 693.75 33 707.75 33 c 1
 711.75 24 712.75 4 707.75 -4 c 1
 667.75 -2 588.75 2 547.75 2 c 0
 491.75 2 445.75 -2 389.75 -4 c 1
 384.75 1 386.75 33 391.75 33 c 0
 402.75 33 447.75 43 447.75 61 c 0
 447.75 64 446.75 69 444.75 72 c 2
 311.75 273 l 1
 296.48 252.64 202.044 130.083 173.752 83 c 0
 168.694 74.5831 165.75 68.5781 165.75 66 c 0
 165.75 42 218.75 33 248.75 33 c 1
 253.75 26 254.75 7 251.75 -4 c 1
 218.75 -2 156.75 2 119.75 2 c 0
 67.75 2 31.75 -2 -8.25 -4 c 1
 -13.25 2 -13.25 26 -8.25 33 c 1
 -0.25 33 68.75 35 100.75 79 c 2
 278.75 322 l 1
 138.75 537 l 2
 120.75 564 98.75 600 84.75 610 c 0
 70.75 620 28.75 625 16.75 625 c 1
 11.75 625 11.75 657 16.75 662 c 1
 65.75 660 123.75 656 172.75 656 c 0
EndSplineSet
Substitution2: "'c2sc' Capitals to Small Capitals in Latin lookup 0 subtable" x.sc
Substitution2: "'c2sc' Capitals to Small Capitals in Latin lookup 0 subtable" x.sc
EndChar

StartChar: Y
Encoding: 89 89 57
Width: 617
Flags: HW
HStem: -4 37<155.106 221.384 377.387 443.665> 625 37<-2.89375 53.3885 225.003 285.665 404.106 477.739 563.336 633.665>
VStem: 229.386 140<41.2661 325.418>
LayerCount: 2
Fore
SplineSet
229.386 145 m 2
 229.386 284 l 0
 229.386 291 227.333 296.173 223.74 304 c 0
 198.637 358.69 98.3857 537 98.3857 537 c 2
 83.3857 565 79.3857 572 67.3857 592 c 0
 52.3857 617 12.3857 624 -0.614258 625 c 1
 -5.61426 632 -4.61426 656 -0.614258 662 c 1
 38.3857 658 100.386 655 142.386 655 c 0
 184.386 655 244.386 658 283.386 662 c 1
 287.386 656 288.386 632 283.386 625 c 1
 270.386 624 222.386 623 222.386 598 c 0
 222.386 594 225.386 589 229.386 582 c 2
 349.386 361 l 1
 354.386 356 432.386 498 475.386 578 c 0
 479.386 586 480.386 594 480.386 601 c 0
 480.386 619 419.386 624 406.386 625 c 1
 401.386 632 402.386 656 406.386 662 c 1
 453.386 658 473.386 655 519.386 655 c 0
 563.386 655 590.386 660 631.386 662 c 1
 635.386 656 636.386 632 631.386 625 c 1
 618.386 624 572.386 623 557.386 600 c 0
 537.748 570.542 403.366 357.018 374.741 298 c 0
 371.299 290.903 369.386 285 369.386 279 c 0
 369.386 145 l 2
 369 102 369.386 71 377.386 51 c 0
 382.386 38 428.386 34 441.386 33 c 1
 446.386 26 445.386 2 441.386 -4 c 1
 402.386 0 340.386 3 298.386 3 c 0
 256.386 3 196.386 0 157.386 -4 c 1
 153.386 2 152.386 26 157.386 33 c 1
 170.386 34 216.386 38 221.386 51 c 0
 229.386 71 229 102 229.386 145 c 2
EndSplineSet
Substitution2: "'c2sc' Capitals to Small Capitals in Latin lookup 0 subtable" y.sc
Substitution2: "'c2sc' Capitals to Small Capitals in Latin lookup 0 subtable" y.sc
EndChar

StartChar: Z
Encoding: 90 90 58
Width: 630
Flags: HW
HStem: 0 47<200 495.681> 610 46<148.299 406.875> 642 20G<71 84 537 581>
LayerCount: 2
Fore
SplineSet
227 610 m 2xc0
 121 610 105 536 82 474 c 0
 81 471 79 468 69 468 c 0
 58 468 43 470 40 473 c 1
 51 531 66 598 76 662 c 1xa0
 92 658 193 655 207 655 c 2
 347 656 l 2
 431 657 495 660 579 666 c 1
 583 665 589 643 589 633 c 1
 587 625 200 47 200 47 c 17
 215 47 416 47 416 47 c 2
 454 47 488 59 511 82 c 0
 532 103 547 125 564 170 c 0
 565 174 571 176 578 176 c 0
 588 176 605 173 608 170 c 1
 592 117 563 44 554 1 c 1xc0
 512 1 40 0 40 0 c 1
 27 0 11 18 14 22 c 2
 410 610 l 1
 227 610 l 2xc0
EndSplineSet
Substitution2: "'c2sc' Capitals to Small Capitals in Latin lookup 0 subtable" z.sc
Substitution2: "'c2sc' Capitals to Small Capitals in Latin lookup 0 subtable" z.sc
EndChar

StartChar: bracketleft
Encoding: 91 91 59
Width: 303
Flags: W
VStem: 72 107<-80.0317 728.032>
LayerCount: 2
Fore
SplineSet
91 770 m 0
 194 770 260 779 296 786 c 1
 298 786 302 783 302 777 c 0
 302 764 294 752 292 751 c 0
 262 736 206 730 179 724 c 9
 179 -76 l 1
 206 -82 262 -88 292 -103 c 0
 294 -104 302 -116 302 -129 c 0
 302 -135 298 -138 296 -138 c 1
 260 -131 194 -122 91 -122 c 0
 78 -121 72 -110 72 -99 c 0
 72 747 l 0
 72 758 78 769 91 770 c 0
EndSplineSet
Validated: 513
Substitution2: "'smcp' Lowercase to Small Capitals in Latin lookup 0 subtable" bracketleft.sc
Substitution2: "'c2sc' Capitals to Small Capitals in Latin lookup 0 subtable" bracketleft.taboldstyle
EndChar

StartChar: backslash
Encoding: 92 92 60
Width: 419
Flags: W
LayerCount: 2
Fore
SplineSet
27 755 m 1
 31 760 38 761 46 761 c 0
 70 761 81 753 84 745 c 2
 84 745 390 -20 390 -26 c 1
 389 -30 376 -36 362 -36 c 0
 354 -36 338 -32 332 -18 c 0
 215 277 118 526 27 755 c 1
EndSplineSet
Substitution2: "'smcp' Lowercase to Small Capitals in Latin lookup 0 subtable" backslash.sc
Substitution2: "'c2sc' Capitals to Small Capitals in Latin lookup 0 subtable" backslash.taboldstyle
EndChar

StartChar: bracketright
Encoding: 93 93 61
Width: 303
Flags: W
VStem: 124 107<-80.0317 728.032>
LayerCount: 2
Fore
SplineSet
212 770 m 0
 225 769 231 758 231 747 c 0
 231 -99 l 0
 231 -110 225 -121 212 -122 c 0
 109 -122 43 -131 7 -138 c 1
 5 -138 1 -135 1 -129 c 0
 1 -116 9 -104 11 -103 c 0
 41 -88 97 -82 124 -76 c 1
 124 724 l 17
 97 730 41 736 11 751 c 0
 9 752 1 764 1 777 c 0
 1 783 5 786 7 786 c 1
 43 779 109 770 212 770 c 0
EndSplineSet
Validated: 513
Substitution2: "'smcp' Lowercase to Small Capitals in Latin lookup 0 subtable" bracketright.sc
Substitution2: "'c2sc' Capitals to Small Capitals in Latin lookup 0 subtable" bracketright.taboldstyle
EndChar

StartChar: asciicircum
Encoding: 94 94 62
Width: 391
Flags: W
HStem: 419 250
VStem: 38 295
LayerCount: 2
Fore
SplineSet
186 669 m 0
 192 669 201 664 206 655 c 0
 257 566 279 521 333 437 c 1
 333 426 322 419 314 419 c 1
 256 473 186 556 186 556 c 25
 186 556 116 473 58 419 c 1
 50 419 38 426 38 437 c 1
 92 521 116 566 167 655 c 0
 172 664 180 669 186 669 c 0
EndSplineSet
Validated: 1
Substitution2: "'smcp' Lowercase to Small Capitals in Latin lookup 0 subtable" asciicircum.sc
EndChar

StartChar: underscore
Encoding: 95 95 63
Width: 495
Flags: W
HStem: -43 56<12.9907 471.32>
LayerCount: 2
Fore
SplineSet
9 -33 m 1
 9 -33 14 13 24 13 c 2
 473 13 l 2
 475 13 477 12 477 8 c 0
 477 -1 473 -15 467 -37 c 0
 465 -43 461 -43 461 -43 c 1
 16 -43 l 1
 16 -43 9 -43 9 -33 c 1
EndSplineSet
Validated: 1
EndChar

StartChar: grave
Encoding: 96 96 64
Width: 249
Flags: W
HStem: 522 165
VStem: 44 173
LayerCount: 2
Fore
SplineSet
44 658 m 0
 44 666 55 687 90 687 c 0
 104 687 119 683 124 678 c 0
 161 635 217 545 217 540 c 0
 217 534 207 522 200 522 c 0
 190 522 44 619 44 658 c 0
EndSplineSet
Validated: 1
EndChar

StartChar: a
Encoding: 97 97 65
Width: 464
Flags: W
HStem: -8 70<120 235.5 330.5 425> 411 38<170.393 285.5>
VStem: 27 135<78.1133 172.955> 39 108<292.124 371.344> 264 130<68.207 223 256.029 377.779>
LayerCount: 2
Fore
SplineSet
223 62 m 0xe8
 248 62 264 77 264 83 c 2
 264 223 l 1
 244 213 218 204 198 191 c 0
 170 173 161 146 162 124 c 0
 163 81 197 62 223 62 c 0xe8
244 449 m 0
 327 449 394 386 394 296 c 2
 394 109 l 2
 394 82 405 68 418 68 c 0
 432 68 443 76 447 78 c 1
 451 76 454 67 454 61 c 3
 454 54 453 51 450 46 c 1
 436 33 389 -6 347 -6 c 0
 314 -6 280 20 271 44 c 1
 262 36 194 -8 158 -8 c 0
 82 -8 27 55 27 114 c 0xe8
 27 153 53 186 79 194 c 0
 117 206 213 245 264 264 c 1
 264 271 264 278 264 285 c 2
 264 311 l 2
 264 361 240 411 205 411 c 0
 167 411 157 372 147 327 c 0
 142 304 126 283 91 283 c 0
 64 283 39 303 39 331 c 0xd8
 39 344 45 358 53 372 c 1
 66 385 156 449 244 449 c 0
EndSplineSet
Validated: 33
Substitution2: "'smcp' Lowercase to Small Capitals in Latin lookup 0 subtable" a.sc
EndChar

StartChar: b
Encoding: 98 98 66
Width: 536
Flags: W
HStem: -8 44<209.478 312.401> 375 74<238.389 313.575> 624 32<-4.28613 52.9145> 675 20G<189.886 194.386>
VStem: 65.3857 130<50.2358 352.859 401.779 614.125> 364.386 144<134.511 316.265>
LayerCount: 2
Fore
SplineSet
240.386 -8 m 0
 188.386 -8 140.386 15 114.386 15 c 0
 96.3857 15 84.3857 11 77.3857 8 c 1
 74.3857 8 53.3857 26 53.3857 33 c 1
 60.3857 51 65.3857 86 65.3857 152 c 2
 65.3857 558 l 2
 65.3857 575 65.3857 589 58.3857 606 c 0
 53.3857 618 10.3857 624 -1.61426 624 c 1
 -5.61426 624 -6.61426 652 -1.61426 656 c 1
 110.386 666 188.386 695 191.386 695 c 1
 197.386 694 205.386 683 206.386 678 c 1
 206.386 678 195.386 633 195.386 577 c 2
 195.386 415 l 2
 195.386 410 195.386 397 201.386 402 c 0
 216.386 414 266.386 449 300.386 449 c 0
 416.386 449 508.386 359 508.386 236 c 0
 508.386 76 370.386 -8 240.386 -8 c 0
250.386 375 m 0
 222.386 375 207.386 363 198.386 353 c 0
 195.386 350 195.386 347 195.386 344 c 2
 195.386 98 l 2
 195.386 64 219.386 36 261.386 36 c 0
 325.386 36 364.386 122 364.386 196 c 0
 364.386 333 312.386 375 250.386 375 c 0
EndSplineSet
Substitution2: "'smcp' Lowercase to Small Capitals in Latin lookup 0 subtable" b.sc
EndChar

StartChar: c
Encoding: 99 99 67
Width: 440
Flags: HW
HStem: -9 84<223.332 329.626> 396 52<189.134 316.5>
VStem: 28 126<151.509 290.309>
LayerCount: 2
Fore
SplineSet
410 382 m 0
 410 353 388 320 352 320 c 0
 325 320 308 347 292 365 c 0
 275 384 249 396 224 396 c 0
 180 396 154 319 154 258 c 0
 154 118 234 75 298 75 c 0
 356 75 389 102 410 125 c 1
 417 123 422 113 422 107 c 3
 422 100 421 91 419 88 c 0
 401 60 333 -9 238 -9 c 0
 126 -9 28 69 28 200 c 0
 28 322 151 448 289 448 c 0
 344 448 379 437 390 430 c 1
 399 420 410 408 410 382 c 0
EndSplineSet
Substitution2: "'smcp' Lowercase to Small Capitals in Latin lookup 0 subtable" c.sc
EndChar

StartChar: d
Encoding: 100 100 68
Width: 541
Flags: W
HStem: -8 64<162 291.956> 28 32<475.435 522.823> 395 51<207.607 321.309> 624 32<266.328 323.529> 675 20G<460.5 465>
VStem: 29 142<121.851 297.682> 336 130<70.4709 378.4 444.011 614.125>
LayerCount: 2
Fore
SplineSet
291 446 m 0xbe
 312 446 323 445 331 444 c 1
 335 444 336 459 336 467 c 0
 336 492 336 525 336 558 c 0
 336 577 336 589 329 606 c 0
 324 618 281 624 269 624 c 1
 265 624 264 652 269 656 c 1
 381 666 459 695 462 695 c 1
 468 694 476 683 477 678 c 1
 477 678 466 633 466 577 c 2
 466 108 l 26
 466 93 466 80 475 70 c 0
 484 60 511 60 520 60 c 1
 522 58 523 54 523 47 c 0
 523 41 521 34 517 28 c 1x7e
 458 22 358 -7 345 -7 c 0
 341 -7 336 2 336 17 c 2
 336 33 l 18
 336 35 336 40 333 38 c 0
 317 27 263 -8 210 -8 c 0
 114 -8 29 82 29 200 c 0
 29 370 200 446 291 446 c 0xbe
258 395 m 0
 194 395 171 323 171 243 c 0
 171 133 210 56 272 56 c 0xbe
 300 56 336 80 336 93 c 2
 336 350 l 2
 336 368 300 395 258 395 c 0
EndSplineSet
Substitution2: "'smcp' Lowercase to Small Capitals in Latin lookup 0 subtable" d.sc
EndChar

StartChar: e
Encoding: 101 101 69
Width: 453
Flags: HW
HStem: -9 84<226.39 329.626> 242 40<159 286.823> 406 41<196.95 279.103>
VStem: 28 130<147.948 242 282 297.174> 301 124<289.978 370.347>
LayerCount: 2
Fore
SplineSet
159 282 m 1
 168 281 264 287 288 290 c 0
 300 291 301 300 301 306 c 11
 301 352 285 406 240 406 c 3
 181 406 159 316 159 282 c 1
158 242 m 1
 158 102 253 75 298 75 c 0
 356 75 389 102 410 125 c 1
 417 123 422 113 422 107 c 3
 422 100 421 91 419 88 c 0
 401 60 333 -9 238 -9 c 0
 126 -9 28 69 28 200 c 0
 28 326 135 447 250 447 c 0
 381 447 425 354 425 296 c 0
 425 274 413 255 398 254 c 0
 330 248 232 244 158 242 c 1
EndSplineSet
Substitution2: "'smcp' Lowercase to Small Capitals in Latin lookup 0 subtable" e.sc
EndChar

StartChar: f
Encoding: 102 102 70
Width: 349
Flags: W
HStem: -4 37<20.7205 86.9985 233.001 299.279> 381 47<27.9586 95 225 341.039> 626 72<236.629 318>
VStem: 95 130<41.2661 381 428 540.641>
LayerCount: 2
Fore
SplineSet
302 698 m 0
 334 698 352 692 366 688 c 1
 383 679 405 666 405 642 c 27
 405 609 387 573 354 573 c 19
 324 573 307 596 288 611 c 0
 277 620 264 626 248 626 c 0
 232 626 218 591 218 544 c 0
 218 498 220 459 222 428 c 1
 229 428 306 428 339 428 c 0
 343 428 345 420 345 415 c 0
 345 406 332 388 322 381 c 1
 292 381 258 381 225 381 c 1
 225 291 225 145 225 145 c 2
 225 102 225 71 233 51 c 0
 238 38 284 34 297 33 c 1
 302 26 301 2 297 -4 c 1
 258 0 202 3 160 3 c 0
 118 3 62 0 23 -4 c 1
 19 2 18 26 23 33 c 1
 36 34 82 38 87 51 c 0
 95 71 95 102 95 145 c 2
 95 145 95 292 95 381 c 1
 68 381 50 381 24 381 c 1
 19 383 19 390 19 394 c 1
 29 408 39 418 51 428 c 1
 64 428 85 428 95 428 c 9
 95 443 l 2
 95 580 227 698 302 698 c 0
EndSplineSet
Validated: 33
Substitution2: "'smcp' Lowercase to Small Capitals in Latin lookup 0 subtable" f.sc
EndChar

StartChar: g
Encoding: 103 103 71
Width: 472
Flags: HW
HStem: -218 56<172.684 305.846> -14 111<143.275 343.633> 148 37<187.923 265.139> 366 61<386.206 455.813> 406 37<174.138 250.603>
VStem: 21 110<-121.74 -54.107> 36 121<220.825 365.646> 46 97<71 122.664> 279 121<226.627 369.198> 369 87<-93.8474 3>
LayerCount: 2
Fore
SplineSet
212 406 m 0xea80
 160 406 157 352 157 307 c 0
 157 251 176 185 228 185 c 0
 280 185 279 241 279 285 c 0
 279 340 264 406 212 406 c 0xea80
257 -14 m 0
 220 -14 166 -14 147 -14 c 1
 140 -22 131 -35 131 -58 c 0
 131 -124 181 -162 251 -162 c 0
 347 -162 369 -112 369 -79 c 0xe440
 369 -37 321 -14 257 -14 c 0
323 96 m 0
 415 91 456 20 456 -14 c 0
 456 -135 324 -218 188 -218 c 0
 90 -218 21 -171 21 -103 c 0xf440
 21 -63 69 -24 106 -6 c 1
 72 3 46 50 46 92 c 0xf1
 46 110 91 144 129 165 c 1
 72 188 36 237 36 294 c 0
 36 377 115 443 217 443 c 0xea
 262 443 296 437 324 418 c 0
 327 415 328 415 330 415 c 2
 455 427 l 1
 458 426 466 422 466 416 c 0
 466 409 451 373 441 366 c 1
 419 368 411 369 385 372 c 0
 383 372 379 371 379 369 c 1xf2
 395 347 400 327 400 299 c 0
 400 216 322 148 219 148 c 0
 201 148 183 150 167 153 c 1
 156 144 143 132 143 122 c 0xf180
 143 107 167 97 191 97 c 0
 229 97 288 98 323 96 c 0
EndSplineSet
Substitution2: "'smcp' Lowercase to Small Capitals in Latin lookup 0 subtable" g.sc
EndChar

StartChar: h
Encoding: 104 104 72
Width: 577
Flags: W
HStem: -4 37<11.1062 77.3842 223.387 282.665 308.107 362.384 508.387 574.665> 365 1<216.386 303.386> 624 32<15.7138 72.9145> 675 20G<209.886 214.386>
VStem: 85.3857 130<41.2661 338.951 366.048 615.244> 370.386 130<41.2661 334.749>
LayerCount: 2
Fore
SplineSet
364.386 446 m 0
 478.386 446 500.386 368 500.386 210 c 2
 500.386 145 l 2
 500.386 102 500.386 71 508.386 51 c 0
 513.386 38 559.386 34 572.386 33 c 1
 577.386 26 576.386 2 572.386 -4 c 1
 533.386 0 477.386 3 435.386 3 c 0
 393.386 3 349.386 0 310.386 -4 c 1
 306.386 2 305.386 26 310.386 33 c 1
 323.386 34 357.386 38 362.386 51 c 0
 370.386 71 370.386 102 370.386 145 c 2
 370.386 224 l 2
 370.386 296 356.386 365 303.386 365 c 0
 263.386 365 215.386 329 215.386 309 c 2
 215.386 145 l 2
 215.386 108 215.386 71 223.386 51 c 0
 228.386 38 267.386 34 280.386 33 c 1
 285.386 26 284.386 2 280.386 -4 c 1
 241.386 0 192.386 3 150.386 3 c 0
 108.386 3 52.3857 0 13.3857 -4 c 1
 9.38574 2 8.38574 26 13.3857 33 c 1
 26.3857 34 72.3857 38 77.3857 51 c 0
 85.3857 71 85.3857 102 85.3857 145 c 2
 85.3857 558 l 2
 85.3857 575 85.3857 589 78.3857 606 c 0
 73.3857 618 30.3857 624 18.3857 624 c 1
 14.3857 624 13.3857 652 18.3857 656 c 1
 130.386 666 208.386 695 211.386 695 c 1
 217.386 694 225.386 683 226.386 678 c 1
 226.386 678 215.386 616 215.386 576 c 0
 215.386 372 l 0
 215.386 369 215.386 367 216.386 366 c 1
 218.386 366 221.386 369 223.386 371 c 0
 251.386 403 318.386 446 364.386 446 c 0
EndSplineSet
Substitution2: "'smcp' Lowercase to Small Capitals in Latin lookup 0 subtable" h.sc
EndChar

StartChar: i
Encoding: 105 105 73
Width: 308
Flags: W
HStem: -4 37<24.1063 90.3842 236.387 295.665> 362 31<24.4181 84.5732> 426 20G<203.386 225.886> 544 144<101.182 206.113>
VStem: 81.3857 145<565 667> 98.3857 130<41.2661 351.93>
LayerCount: 2
Fore
SplineSet
228.386 309 m 2xf4
 228.386 145 l 2
 228.386 108 228.386 71 236.386 51 c 0
 241.386 38 280.386 34 293.386 33 c 1
 298.386 26 297.386 2 293.386 -4 c 1
 254.386 0 205.386 3 163.386 3 c 0
 121.386 3 65.3857 0 26.3857 -4 c 1
 22.3857 2 21.3857 26 26.3857 33 c 1
 39.3857 34 85.3857 38 90.3857 51 c 0
 98.3857 71 98.3857 102 98.3857 145 c 2
 98.3857 260 l 2
 98.3857 270 97.3857 327 89.3857 342 c 0
 81.3857 357 33.3857 362 26.3857 362 c 1
 23.3857 364 22.3857 393 27.3857 393 c 1
 103.386 399 184.386 427 222.386 446 c 1
 229.386 444 239.386 432 239.386 429 c 1
 236.386 421 230.386 386 229.386 372 c 0
 228.386 350 228.386 315 228.386 309 c 2xf4
81.3857 616 m 0xf8
 81.3857 656 113.386 688 153.386 688 c 0
 193.386 688 226.386 656 226.386 616 c 0
 226.386 576 193.386 544 153.386 544 c 0
 113.386 544 81.3857 576 81.3857 616 c 0xf8
EndSplineSet
Validated: 33
Substitution2: "'smcp' Lowercase to Small Capitals in Latin lookup 0 subtable" i.sc
EndChar

StartChar: j
Encoding: 106 106 74
Width: 280
Flags: W
HStem: -218 24<-13.4946 1.55321> 362 31<12.0323 72.1875> 426 20G<191 213.5> 542 148<90.625 195.375>
VStem: 69 148<563.625 668.375> 86 130<-43.1268 351.93>
LayerCount: 2
Fore
SplineSet
86 64 m 2xf4
 86 260 l 2xf4
 86 270 85 327 77 342 c 0
 69 357 21 362 14 362 c 1
 11 364 10 393 15 393 c 1
 91 399 172 427 210 446 c 1
 217 444 227 432 227 429 c 1
 224 421 218 386 217 372 c 0xf8
 216 350 216 315 216 309 c 2
 216 120 l 2
 216 36 205 -48 168 -102 c 0
 121 -170 33 -218 -1 -218 c 1
 -8 -214 -15 -207 -15 -201 c 0
 -15 -199 -15 -195 -14 -194 c 0
 -10 -192 86 -142 86 64 c 2xf4
69 616 m 0xf8
 69 657 102 690 143 690 c 0
 184 690 217 657 217 616 c 0
 217 575 184 542 143 542 c 0
 102 542 69 575 69 616 c 0xf8
EndSplineSet
Validated: 1
Substitution2: "'smcp' Lowercase to Small Capitals in Latin lookup 0 subtable" j.sc
EndChar

StartChar: k
Encoding: 107 107 75
Width: 585
Flags: W
HStem: -4 37<11.624 76.2426 224.529 289.147 520.681 583.613> 405 35<312.309 374.863 482.066 558.779> 624 32<15.7139 72.9144> 675 20G<209.886 214.386>
VStem: 85.3857 130<41.2661 201 236 615.244>
LayerCount: 2
Fore
SplineSet
215.386 145 m 2
 215.386 102 215.386 71 223.386 51 c 0
 228.386 38 274.386 34 287.386 33 c 1
 292.386 26 291.386 2 287.386 -4 c 1
 248.386 0 192.386 3 150.386 3 c 0
 108.386 3 52.3857 0 13.3857 -4 c 1
 9.38574 2 8.38574 26 13.3857 33 c 1
 26.3857 34 72.3857 38 77.3857 51 c 0
 85.3857 71 85.3857 102 85.3857 145 c 2
 85.3857 558 l 2
 85.3857 575 85.3857 589 78.3857 606 c 0
 73.3857 618 30.3857 624 18.3857 624 c 1
 14.3857 624 13.3857 652 18.3857 656 c 1
 130.386 666 208.386 695 211.386 695 c 1
 217.386 694 225.386 683 226.386 678 c 1
 226.386 678 215.386 616 215.386 576 c 0
 214.386 236 l 1
 231.386 242 254.386 257 289.386 287 c 0
 359.386 347 377.386 368 377.386 383 c 0
 377.386 395 331.386 404 313.386 405 c 1
 310.386 414 310.386 437 315.386 439 c 1
 315.386 439 404.386 435 446.386 435 c 0
 482.386 435 512.386 438 557.386 440 c 1
 563.386 430 560.386 408 554.386 405 c 1
 523.386 402 481.386 392 455.386 374 c 0
 434.386 359 384.386 310 323.386 256 c 1
 394.386 173 409.386 161 465.386 98 c 0
 520.386 37 552.386 36 584.386 36 c 1
 590.386 25 585.386 8 584.386 6 c 1
 568.386 0 521.386 -6 483.386 -6 c 0
 425.386 -6 376.386 18 346.386 53 c 2
 346.386 53 277.386 127 228.386 188 c 0
 224.386 194 215.386 201 215.386 201 c 1
 215.386 145 l 2
EndSplineSet
Validated: 33
Substitution2: "'smcp' Lowercase to Small Capitals in Latin lookup 0 subtable" k.sc
EndChar

StartChar: l
Encoding: 108 108 76
Width: 300
Flags: W
HStem: -4 37<11.1063 77.3842 223.387 289.665> 624 32<15.7139 72.9144> 675 20G<209.886 214.386>
VStem: 85.3857 130<41.2661 615.244>
LayerCount: 2
Fore
SplineSet
85.3857 558 m 2
 85.3857 575 85.3857 589 78.3857 606 c 0
 73.3857 618 30.3857 624 18.3857 624 c 1
 14.3857 624 13.3857 652 18.3857 656 c 1
 130.386 666 208.386 695 211.386 695 c 1
 217.386 694 225.386 683 226.386 678 c 1
 226.386 678 215.386 616 215.386 576 c 0
 215.386 408 215.386 145 215.386 145 c 18
 215.386 102 215.386 71 223.386 51 c 0
 228.386 38 274.386 34 287.386 33 c 1
 292.386 26 291.386 2 287.386 -4 c 1
 248.386 0 192.386 3 150.386 3 c 0
 108.386 3 52.3857 0 13.3857 -4 c 1
 9.38574 2 8.38574 26 13.3857 33 c 1
 26.3857 34 72.3857 38 77.3857 51 c 0
 85.3857 71 85.3857 102 85.3857 145 c 2
 85.3857 558 l 2
EndSplineSet
Validated: 33
Substitution2: "'smcp' Lowercase to Small Capitals in Latin lookup 0 subtable" l.sc
EndChar

StartChar: m
Encoding: 109 109 77
Width: 877
Flags: HW
HStem: -4 37<24.1063 90.3842 236.387 295.665 319.106 375.384 521.387 585.665 608.106 662.384 808.387 874.665> 362 31<24.4181 84.5732> 365 81<307.411 399.809 592.571 711.809>
VStem: 98.3857 130<41.2661 338.951> 383.386 130<41.2661 338.449> 670.386 130<41.2661 334.749>
LayerCount: 2
Fore
SplineSet
377.386 446 m 0
 441.386 446 476.386 424 500.386 360 c 1xbc
 544 403 618.386 446 664.386 446 c 0
 778.386 446 800.386 368 800.386 210 c 2
 800.386 145 l 2
 800.386 102 800.386 71 808.386 51 c 0
 813.386 38 859.386 34 872.386 33 c 1
 877.386 26 876.386 2 872.386 -4 c 1
 833.386 0 777.386 3 735.386 3 c 0
 693.386 3 649.386 0 610.386 -4 c 1
 606.386 2 605.386 26 610.386 33 c 1
 623.386 34 657.386 38 662.386 51 c 0
 670.386 71 670.386 102 670.386 145 c 2
 670.386 224 l 2
 670.386 296 656.386 365 603.386 365 c 0
 563.386 365 509.386 330 509.386 310 c 8
 509.386 308 509.386 306 509.386 304 c 0
 511.386 276 513.386 245 513.386 210 c 2
 513.386 145 l 2
 513.386 102 513.386 71 521.386 51 c 0
 526.386 38 570.386 34 583.386 33 c 1
 588.386 26 587.386 2 583.386 -4 c 1
 544.386 0 490.386 3 448.386 3 c 0
 406.386 3 360.386 0 321.386 -4 c 1
 317.386 2 316.386 26 321.386 33 c 1
 334.386 34 370.386 38 375.386 51 c 0
 383.386 71 383.386 102 383.386 145 c 2
 383.386 224 l 2
 383.386 296 369.386 365 316.386 365 c 0xbc
 276.386 365 228.386 329 228.386 309 c 2
 228.386 145 l 2
 228.386 108 228.386 71 236.386 51 c 0
 241.386 38 280.386 34 293.386 33 c 1
 298.386 26 297.386 2 293.386 -4 c 1
 254.386 0 205.386 3 163.386 3 c 0
 121.386 3 65.3857 0 26.3857 -4 c 1
 22.3857 2 21.3857 26 26.3857 33 c 1
 39.3857 34 85.3857 38 90.3857 51 c 0
 98.3857 71 98.3857 102 98.3857 145 c 2
 98.3857 260 l 2
 98.3857 270 97.3857 327 89.3857 342 c 0
 81.3857 357 33.3857 362 26.3857 362 c 1
 23.3857 364 22.3857 393 27.3857 393 c 1xdc
 103.386 399 184.386 427 222.386 446 c 1
 229.386 444 239.386 432 239.386 429 c 1
 236.386 421 228.386 373 229.386 372 c 0
 229.386 369 229.386 367 230.386 366 c 1
 232.386 366 235.386 369 237.386 371 c 0
 265.386 403 331.386 446 377.386 446 c 0
EndSplineSet
Substitution2: "'smcp' Lowercase to Small Capitals in Latin lookup 0 subtable" m.sc
EndChar

StartChar: n
Encoding: 110 110 78
Width: 590
Flags: W
HStem: -4 37<24.1063 90.3842 236.387 295.665 321.106 375.384 521.387 587.665> 362 31<24.4181 84.5732> 365 1<230.386 316.386> 426 20G<203.386 225.386>
VStem: 98.3857 130<41.2661 338.951> 383.386 130<41.2661 334.749>
LayerCount: 2
Fore
SplineSet
377.386 446 m 0xbc
 491.386 446 513.386 368 513.386 210 c 2
 513.386 145 l 2
 513.386 102 513.386 71 521.386 51 c 0
 526.386 38 572.386 34 585.386 33 c 1
 590.386 26 589.386 2 585.386 -4 c 1
 546.386 0 490.386 3 448.386 3 c 0
 406.386 3 362.386 0 323.386 -4 c 1
 319.386 2 318.386 26 323.386 33 c 1
 336.386 34 370.386 38 375.386 51 c 0
 383.386 71 383.386 102 383.386 145 c 2
 383.386 224 l 2
 383.386 296 369.386 365 316.386 365 c 0xbc
 276.386 365 228.386 329 228.386 309 c 2
 228.386 145 l 2
 228.386 108 228.386 71 236.386 51 c 0
 241.386 38 280.386 34 293.386 33 c 1
 298.386 26 297.386 2 293.386 -4 c 1
 254.386 0 205.386 3 163.386 3 c 0
 121.386 3 65.3857 0 26.3857 -4 c 1
 22.3857 2 21.3857 26 26.3857 33 c 1
 39.3857 34 85.3857 38 90.3857 51 c 0
 98.3857 71 98.3857 102 98.3857 145 c 2
 98.3857 260 l 2
 98.3857 270 97.3857 327 89.3857 342 c 0
 81.3857 357 33.3857 362 26.3857 362 c 1
 23.3857 364 22.3857 393 27.3857 393 c 1xdc
 103.386 399 184.386 427 222.386 446 c 1
 228.386 446 239.386 434 239.386 429 c 1
 237.386 421 229.386 373 229.386 372 c 0
 229.386 369 229.386 367 230.386 366 c 1
 232.386 366 235.386 369 237.386 371 c 0
 265.386 403 331.386 446 377.386 446 c 0xbc
EndSplineSet
Validated: 33
Substitution2: "'smcp' Lowercase to Small Capitals in Latin lookup 0 subtable" n.sc
EndChar

StartChar: o
Encoding: 111 111 79
Width: 526
Flags: W
HStem: -7 42<226.597 319.545> 406 41<206.207 295.807>
VStem: 29 142<118.592 313.407> 355 142<126.606 322.548>
LayerCount: 2
Fore
SplineSet
251 406 m 3
 178 406 171 310 171 237 c 27
 171 149 201 35 274 35 c 3
 347 35 355 130 355 202 c 27
 355 291 324 406 251 406 c 3
262 447 m 0
 400 447 497 352 497 225 c 0
 497 99 396 -7 264 -7 c 0
 125 -7 29 91 29 217 c 0
 29 343 131 447 262 447 c 0
EndSplineSet
Validated: 1
Substitution2: "'smcp' Lowercase to Small Capitals in Latin lookup 0 subtable" o.sc
EndChar

StartChar: p
Encoding: 112 112 80
Width: 547
Flags: HW
HStem: -218 37<8.10625 74.3842 220.387 286.665> -8 44<226.572 322.73> 362 31<8.41809 68.5732> 375 73<262.72 329.202>
VStem: 82.3857 130<-172.734 0.99707 50.0771 351.93> 374.386 144<134.92 323.157>
LayerCount: 2
Fore
SplineSet
322.386 448 m 0
 443.386 448 518.386 345 518.386 234 c 0
 518.386 81 383.386 -8 273.386 -8 c 0
 245.386 -8 219.386 1 215.386 1 c 1
 212.386 1 212.386 -3 212.386 -15 c 2
 212.386 -69 l 2
 212.386 -112 212.386 -143 220.386 -163 c 0
 225.386 -176 271.386 -180 284.386 -181 c 1
 289.386 -188 288.386 -212 284.386 -218 c 1
 245.386 -214 189.386 -211 147.386 -211 c 0
 105.386 -211 49.3857 -214 10.3857 -218 c 1
 6.38574 -212 5.38574 -188 10.3857 -181 c 1
 23.3857 -180 69.3857 -176 74.3857 -163 c 0
 82.3857 -143 82.3857 -112 82.3857 -69 c 2xdc
 82.3857 260 l 2
 82.3857 270 81.3857 327 73.3857 342 c 0
 65.3857 357 17.3857 362 10.3857 362 c 1
 7.38574 364 6.38574 393 11.3857 393 c 1xec
 87.3857 399 168.386 427 206.386 446 c 1
 213.386 444 223.386 432 223.386 429 c 1
 221.386 423 214.386 411 214.386 395 c 0
 214.386 389 216.386 387 218.386 389 c 0
 248.386 421 291.386 448 322.386 448 c 0
267.386 375 m 0xdc
 230.386 375 212.386 352 212.386 347 c 2
 212.386 96 l 2
 212.386 56 245.386 36 280.386 36 c 0
 313.386 36 374.386 83 374.386 199 c 0
 374.386 302 348.386 375 267.386 375 c 0xdc
EndSplineSet
Substitution2: "'smcp' Lowercase to Small Capitals in Latin lookup 0 subtable" p.sc
EndChar

StartChar: q
Encoding: 113 113 81
Width: 528
Flags: HW
HStem: -218 37<258.721 324.999 471.001 537.279> -8 64<162.5 298.682> 394 52<207.482 316.088>
VStem: 29 142<119.026 292.643> 333 130<-172.734 30.222 63.9757 375.935>
LayerCount: 2
Fore
SplineSet
259 394 m 0
 189 394 171 314 171 243 c 0
 171 160 196 56 273 56 c 0
 309 56 333 76 333 80 c 2
 333 344 l 2
 333 354 311 394 259 394 c 0
297 446 m 0
 335 446 385 423 415 423 c 0
 436 423 445 428 451 430 c 1
 457 428 475 412 475 405 c 1
 470 393 463 360 463 291 c 2
 463 -69 l 2
 463 -112 463 -143 471 -163 c 0
 476 -176 522 -180 535 -181 c 1
 540 -188 539 -212 535 -218 c 1
 496 -214 440 -211 398 -211 c 0
 356 -211 300 -214 261 -218 c 1
 257 -212 256 -188 261 -181 c 1
 274 -180 320 -176 325 -163 c 0
 333 -143 333 -112 333 -69 c 2
 333 17 l 2
 333 23 333 35 327 30 c 0
 312 19 260 -8 213 -8 c 0
 112 -8 29 84 29 192 c 0
 29 349 170 446 297 446 c 0
EndSplineSet
Substitution2: "'smcp' Lowercase to Small Capitals in Latin lookup 0 subtable" q.sc
EndChar

StartChar: r
Encoding: 114 114 82
Width: 442
Flags: W
HStem: -4 37<24.1062 90.3842 236.387 312.279> 348 99<274.693 373.193> 362 31<24.418 84.5734>
VStem: 98.3857 130<42.0335 320.253>
LayerCount: 2
Fore
SplineSet
360.386 447 m 11xd0
 386 447 410.386 442 423.386 430 c 1
 427.386 424 434.386 402 434.386 381 c 0
 434.386 347 408.386 302 374.386 302 c 3
 356.386 302 343.386 317 331.386 327 c 0
 320.386 337 312.386 348 295.386 348 c 11xd0
 254 348 228.386 288 228.386 267 c 2
 228.386 145 l 2
 228.386 108 228.386 71 236.386 51 c 0
 241.386 38 297 34 310 33 c 1
 315 26 314 2 310 -4 c 1
 271 0 205.386 3 163.386 3 c 0
 121.386 3 65.3857 0 26.3857 -4 c 1
 22.3857 2 21.3857 26 26.3857 33 c 1
 39.3857 34 85.3857 38 90.3857 51 c 0
 98.3857 71 98.3857 102 98.3857 145 c 2
 98.3857 260 l 2
 98.3857 270 97.3857 327 89.3857 342 c 0
 81.3857 357 33.3857 362 26.3857 362 c 1
 23.3857 364 22.3857 393 27.3857 393 c 1xb0
 103.386 399 184.386 427 222.386 446 c 1
 229.386 444 239.386 432 239.386 429 c 1
 236.386 421 229.386 364 229.386 350 c 0
 229.386 345 234.386 345 235.386 347 c 0
 259.386 390 297.386 447 360.386 447 c 11xd0
EndSplineSet
Substitution2: "'smcp' Lowercase to Small Capitals in Latin lookup 0 subtable" r.sc
EndChar

StartChar: s
Encoding: 115 115 83
Width: 396
Flags: W
HStem: -8 40<124.28 228.806> 408 40<164.713 270.324>
VStem: 34 119<274.689 380.15> 41 37<86.4219 149.713> 243 120<56.656 172.818>
LayerCount: 2
Fore
SplineSet
220 448 m 0xe8
 267 448 299 436 332 429 c 1
 340 395 353 323 353 306 c 0
 353 302 342 299 335 299 c 0
 327 299 322 303 316 307 c 1
 306 352 280 408 210 408 c 0
 177 408 153 390 153 354 c 0xe8
 153 302 211 287 255 265 c 0
 307 239 363 215 363 130 c 0
 363 30 270 -8 166 -8 c 0
 122 -8 74 7 49 13 c 1
 45 36 41 132 41 143 c 0
 41 149 51 150 56 150 c 0
 63 150 75 146 78 140 c 1xd8
 92 53 146 32 186 32 c 0
 221 32 243 58 243 86 c 0
 243 136 187 149 140 175 c 0
 82 207 34 242 34 310 c 0
 34 410 141 448 220 448 c 0xe8
EndSplineSet
Validated: 1
Substitution2: "'smcp' Lowercase to Small Capitals in Latin lookup 0 subtable" s.sc
EndChar

StartChar: t
Encoding: 116 116 84
Width: 337
Flags: W
HStem: -7 64<178 274.975> 381 47<11.9586 79 209 325.039>
VStem: 79 130<68.9375 381 428 500.009>
LayerCount: 2
Fore
SplineSet
209 428 m 1
 216 428 290 428 323 428 c 0
 327 428 329 420 329 415 c 0
 329 406 316 388 306 381 c 1
 276 381 242 381 209 381 c 1
 209 133 l 2
 209 80 226 57 263 57 c 0
 287 57 313 78 316 81 c 1
 318 79 323 72 323 67 c 0
 323 62 317 50 315 48 c 0
 306 38 261 -7 209 -7 c 0
 147 -7 79 27 79 139 c 2
 79 381 l 1
 52 381 34 381 8 381 c 1
 3 383 3 390 3 394 c 1
 13 408 23 418 35 428 c 1
 48 428 69 428 79 428 c 9
 79 428 79 461 79 481 c 1
 117 513 153 556 184 587 c 1
 195 594 208 593 209 587 c 1
 209 533 209 481 209 428 c 1
EndSplineSet
Validated: 1
Substitution2: "'smcp' Lowercase to Small Capitals in Latin lookup 0 subtable" t.sc
EndChar

StartChar: u
Encoding: 117 117 85
Width: 561
Flags: HW
HStem: -5 61<161 311.955> 28 32<492.935 540.323> 362 31<7.53235 67.6875 279.532 339.688> 426 20G<186.5 209 458.5 481>
VStem: 81.5 130<87.0607 351.93> 353.5 130<70.4709 351.93>
LayerCount: 2
Fore
SplineSet
353.5 260 m 2
 353.5 270 352.5 327 344.5 342 c 0
 336.5 357 288.5 362 281.5 362 c 1
 278.5 364 277.5 393 282.5 393 c 1
 358.5 399 439.5 427 477.5 446 c 1
 484.5 444 494.5 432 494.5 429 c 1
 491.5 421 485.5 386 484.5 372 c 0
 483.5 350 483.5 315 483.5 309 c 2
 483.5 108 l 10
 483.5 93 483.5 80 492.5 70 c 0
 501.5 60 528.5 60 537.5 60 c 1
 539.5 58 540.5 54 540.5 47 c 0
 540.5 41 538.5 34 534.5 28 c 1x7c
 475.5 22 375.5 -7 362.5 -7 c 0
 358.5 -7 353.5 2 353.5 17 c 2
 353.5 33 l 18
 353.5 35 353.5 40 350.5 38 c 0
 334.5 27 279.5 -5 209.5 -5 c 3xbc
 112.5 -5 81.5 80 81.5 174 c 2
 81.5 260 l 2
 81.5 270 80.5 327 72.5 342 c 0
 64.5 357 16.5 362 9.5 362 c 1
 6.5 364 5.5 393 10.5 393 c 1
 86.5 399 167.5 427 205.5 446 c 1
 212.5 444 222.5 432 222.5 429 c 1
 219.5 421 213.5 386 212.5 372 c 0
 211.5 350 211.5 315 211.5 309 c 2
 211.5 219 l 2
 211.5 113 227.5 56 289.5 56 c 0xbc
 317.5 56 353.5 78 353.5 93 c 2
 353.5 260 l 2
EndSplineSet
Substitution2: "'smcp' Lowercase to Small Capitals in Latin lookup 0 subtable" u.sc
EndChar

StartChar: v
Encoding: 118 118 86
Width: 527
Flags: W
HStem: -11 21G<249.287 256.787> 406 37<-5.61855 44.47 203.204 260.479 319.959 390.378 462.689 533.178>
LayerCount: 2
Fore
SplineSet
131.787 436 m 0
 173.787 436 232.787 440 257.787 443 c 1
 262.787 438 262.787 412 257.787 406 c 1
 245.787 406 198.787 396 198.787 379 c 0
 198.787 376 198.787 369 200.787 364 c 0
 236.787 294 303.787 167 303.787 167 c 1
 303.787 167 349.787 268 382.787 342 c 0
 387.787 352 393.787 368 393.787 379 c 0
 393.787 404 330.787 406 322.787 406 c 1
 317.787 411 317.787 436 321.787 443 c 1
 351.787 439 387.787 436 426.787 436 c 0
 468.787 436 515.787 441 530.787 443 c 1
 534.787 438 535.787 413 530.787 406 c 1
 518.787 406 463.787 402 449.787 373 c 2
 295.787 45 l 2
 275.787 6 262.787 -11 250.787 -11 c 0
 247.787 -11 241.787 -6 238.787 -3 c 1
 180.787 117 126.787 230 59.7871 368 c 1
 46.7871 398 4.78711 406 -3.21289 406 c 1
 -9.21289 414 -7.21289 437 -3.21289 443 c 1
 22.7871 440 92.7871 436 131.787 436 c 0
EndSplineSet
Validated: 33
Substitution2: "'smcp' Lowercase to Small Capitals in Latin lookup 0 subtable" v.sc
EndChar

StartChar: w
Encoding: 119 119 87
Width: 783
Flags: W
HStem: -11 21G<247.287 253.287 519.287 525.287> 406 37<-5.61855 44.0403 203.204 260.479 288.412 337.466 497.204 554.479 583.959 654.378 726.839 788.178>
VStem: 363.787 129<320.875 384.275>
LayerCount: 2
Fore
SplineSet
124.787 436 m 0
 166.787 436 232.787 440 257.787 443 c 1
 262.787 438 262.787 412 257.787 406 c 1
 245.787 406 198.787 396 198.787 379 c 0
 198.787 376 198.787 369 200.787 364 c 0
 236.787 294 297.787 172 297.787 172 c 1
 297.787 172 363.787 320 363.787 335 c 0
 363.787 346 357.787 362 354.787 368 c 0
 339.787 397 299.787 406 291.787 406 c 1
 284.787 414 286.787 437 290.787 443 c 1
 330.787 438 386.787 437 425.787 436 c 1
 467.787 436 526.787 440 551.787 443 c 1
 556.787 438 556.787 412 551.787 406 c 1
 539.787 406 492.787 396 492.787 379 c 0
 492.787 376 492.787 369 494.787 364 c 0
 526.787 292 578.787 180 578.787 180 c 1
 578.787 180 614.787 269 646.787 342 c 0
 650.787 352 657.787 368 657.787 379 c 0
 657.787 404 594.787 406 586.787 406 c 1
 581.787 411 581.787 436 585.787 443 c 1
 615.787 439 651.787 436 690.787 436 c 0
 732.787 436 770.787 441 785.787 443 c 1
 789.787 438 790.787 413 785.787 406 c 1
 773.787 406 730.787 405 717.787 375 c 8
 661.787 245 629.787 172 570.787 44 c 16
 552.787 5 529.787 -11 520.787 -11 c 0
 517.787 -11 511.787 -6 508.787 -3 c 1
 508.787 -3 430.787 198 397.787 276 c 1
 366.787 198 298.787 44 298.787 44 c 2
 281.787 5 257.787 -11 248.787 -11 c 0
 245.787 -11 239.787 -6 236.787 -3 c 1
 166.787 146 127.787 231 59.7871 368 c 1
 45.7871 398 4.78711 406 -3.21289 406 c 1
 -9.21289 414 -7.21289 437 -3.21289 443 c 1
 22.7871 440 85.7871 436 124.787 436 c 0
EndSplineSet
Validated: 33
Substitution2: "'smcp' Lowercase to Small Capitals in Latin lookup 0 subtable" w.sc
EndChar

StartChar: x
Encoding: 120 120 88
Width: 552
Flags: HW
HStem: -4 37<2.99512 67.2378 168.795 239.214 278.694 328.755 495.936 549.761> 406 37<12.0107 68.8113 231.016 281.077 307.558 377.976 468.9 537.776>
LayerCount: 2
Fore
SplineSet
152.386 436 m 1
 194.386 436 253.386 440 278.386 443 c 1
 283.386 438 283.386 412 278.386 406 c 1
 266.386 406 230.386 401 230.386 384 c 0
 230.386 381 236.386 375 240.386 370 c 10
 304.386 288 l 17
 333.386 319 381.386 370 381.386 379 c 0
 381.386 404 318.386 406 310.386 406 c 1
 305.386 411 305.386 436 309.386 443 c 1
 339.386 439 375.386 436 414.386 436 c 0
 456.386 436 520.386 441 535.386 443 c 1
 539.386 438 540.386 413 535.386 406 c 1
 517.386 406 480.386 403 452.386 374 c 0
 416.386 336 386.386 302 337.386 246 c 9
 392.386 176 425.386 135 479.386 66 c 0
 499.386 40 538.386 33 546.386 33 c 1
 553.386 25 551.386 2 547.386 -4 c 1
 507.386 1 447.386 2 408.386 3 c 1
 366.386 3 306.386 -1 281.386 -4 c 1
 276.386 1 276.386 27 281.386 33 c 1
 293.386 33 329.386 38 329.386 55 c 0
 329.386 58 323.386 64 319.386 69 c 10
 248.386 156 l 17
 226.112 132.19 189.089 96.5802 173.114 75 c 0
 168.29 68.4839 165.386 63.2469 165.386 60 c 0
 165.386 35 228.386 33 236.386 33 c 1
 241.386 28 241.386 3 237.386 -4 c 1
 207.386 0 171.386 3 132.386 3 c 0
 90.3857 3 20.3857 -2 5.38574 -4 c 1
 1.38574 1 0.385742 26 5.38574 33 c 1
 23.3857 33 65.3857 44 89.3857 67 c 0
 138.386 114 166.386 148 215.386 199 c 25
 164.386 267 138.386 305 84.3857 374 c 0
 64.3857 400 23.3857 406 15.3857 406 c 1
 8.38574 414 10.3857 437 14.3857 443 c 1
 54.3857 438 113.386 437 152.386 436 c 1
EndSplineSet
Substitution2: "'smcp' Lowercase to Small Capitals in Latin lookup 0 subtable" x.sc
EndChar

StartChar: y
Encoding: 121 121 89
Width: 528
Flags: HW
HStem: -218 100<14.6921 133.026> 406 37<-5.61855 44.47 203.204 260.479 319.959 390.378 462.689 533.178>
LayerCount: 2
Fore
SplineSet
131.787 436 m 0
 173.787 436 232.787 440 257.787 443 c 1
 262.787 438 262.787 412 257.787 406 c 1
 245.787 406 198.787 396 198.787 379 c 0
 198.787 376 198.787 369 200.787 364 c 0
 236.787 294 303.787 167 303.787 167 c 1
 303.787 167 349.787 268 382.787 342 c 0
 387.787 352 393.787 368 393.787 379 c 0
 393.787 404 330.787 406 322.787 406 c 1
 317.787 411 317.787 436 321.787 443 c 1
 351.787 439 387.787 436 426.787 436 c 0
 468.787 436 515.787 441 530.787 443 c 1
 534.787 438 535.787 413 530.787 406 c 1
 518.787 406 463.787 402 449.787 373 c 2
 449.787 373 348 157 285.116 25 c 0
 254.319 -39.6451 239 -82 197 -134.717 c 0
 145.037 -199.939 100.14 -218 69.7871 -218 c 0
 27.7871 -218 2.78711 -192 2.78711 -165 c 3
 2.78711 -142 12.7871 -127 25.7871 -118 c 1
 104.787 -118 149.787 -108 190.787 -40 c 0
 208.787 -10 212.787 1 225.787 31 c 1
 184.787 114 59.7871 368 59.7871 368 c 1
 46.7871 398 4.78711 406 -3.21289 406 c 1
 -9.21289 414 -7.21289 437 -3.21289 443 c 1
 22.7871 440 92.7871 436 131.787 436 c 0
EndSplineSet
Substitution2: "'smcp' Lowercase to Small Capitals in Latin lookup 0 subtable" y.sc
EndChar

StartChar: z
Encoding: 122 122 90
Width: 453
Flags: W
HStem: 0 46<174 345.92> 382 46<103.452 254>
VStem: 34 35<281.304 332.589>
LayerCount: 2
Fore
SplineSet
147 428 m 2
 285 428 l 2
 339 428 373 431 414 436 c 1
 419 428 417 417 417 412 c 1
 174 46 l 25
 288 46 l 2
 349 46 385 109 393 147 c 0
 394 152 402 154 406 154 c 0
 417 154 430 145 431 144 c 1
 418 105 391 0 391 0 c 1
 36 0 l 1
 36 0 26 8 26 17 c 0
 26 22 28 30 30 34 c 2
 254 381 l 1
 254 381 182 382 150 382 c 0
 99 382 80 323 69 288 c 0
 68 284 56 281 46 281 c 0
 40 281 34 283 34 285 c 1
 37 301 49 381 52 434 c 1
 52 434 111 428 147 428 c 2
EndSplineSet
Validated: 1
Substitution2: "'smcp' Lowercase to Small Capitals in Latin lookup 0 subtable" z.sc
EndChar

StartChar: braceleft
Encoding: 123 123 91
Width: 293
Flags: HW
HStem: -144 26<251.847 267.58> 734 26<251.847 267.58>
VStem: 77 114<-22.7954 102.341 513.659 638.795> 104 115<91.9401 230.81 385.19 524.06>
LayerCount: 2
Fore
SplineSet
104 424 m 0xd0
 104 454.612 94.6428 477.947 86.9455 504 c 0
 81.5676 522.203 77 541.733 77 566 c 0
 77 670 213 756 262 760 c 1
 265 760 275 742 269 734 c 1
 241 719 191 674 191 609 c 0xe0
 191 569.715 199.109 553.599 206.599 534 c 0
 213.027 517.18 219 497.795 219 459 c 0
 219 372 131 308 95 308 c 1
 131 308 219 244 219 157 c 0xd0
 219 118.205 213.027 98.8199 206.599 82 c 0
 199.109 62.4014 191 46.2849 191 7 c 0
 191 -58 241 -103 269 -118 c 1
 275 -126 265 -144 262 -144 c 1
 213 -140 77 -54 77 50 c 0xe0
 77 80.5814 84.254 103.64 91.242 126 c 0
 97.7358 146.778 104 166.953 104 192 c 0
 104 245 58 284 16 297 c 1
 14 299 13 305 13 308 c 0
 13 312 14 317 16 319 c 1
 58 332 104 371 104 424 c 0xd0
EndSplineSet
Substitution2: "'smcp' Lowercase to Small Capitals in Latin lookup 0 subtable" braceleft.sc
EndChar

StartChar: bar
Encoding: 124 124 92
Width: 195
Flags: W
VStem: 71.2646 53<-118.239 764.903>
LayerCount: 2
Fore
SplineSet
124.265 -108 m 2
 124.265 -116 78.2646 -123 76.2646 -123 c 0
 69.2646 -123 71.2646 -119 71.2646 -115 c 2
 71.2646 757 l 1
 71.2646 757 70.2646 763 76.2646 765 c 0
 93.2646 770 112.265 770 115.265 770 c 0
 124.265 770 123.265 764 123.265 764 c 1
 124.265 -108 l 2
EndSplineSet
Validated: 1
Substitution2: "'smcp' Lowercase to Small Capitals in Latin lookup 0 subtable" bar.sc
EndChar

StartChar: braceright
Encoding: 125 125 93
Width: 293
Flags: HW
HStem: -144 26<25.3018 41.0344> 734 26<25.3018 41.0344>
VStem: 73.8818 115<91.9401 230.81 385.19 524.06> 101.882 114<-22.7954 102.341 513.659 638.795>
LayerCount: 2
Fore
SplineSet
30.8818 760 m 1
 79.8818 756 215.882 670 215.882 566 c 0xd0
 215.882 539.047 210.247 517.938 204.126 498 c 0
 196.848 474.294 188.882 452.245 188.882 424 c 0xe0
 188.882 371 234.882 332 276.882 319 c 1
 278.882 317 279.882 312 279.882 308 c 0
 279.882 305 278.882 299 276.882 297 c 1
 234.882 284 188.882 245 188.882 192 c 0xe0
 188.882 166.15 195.554 145.49 202.265 124 c 0
 209.054 102.26 215.882 79.6706 215.882 50 c 0
 215.882 -54 79.8818 -140 30.8818 -144 c 1
 27.8818 -144 17.8818 -126 23.8818 -118 c 1
 51.8818 -103 101.882 -58 101.882 7 c 0xd0
 101.882 44.9411 94.3183 61.2717 87.0532 80 c 0
 80.34 97.3055 73.8818 116.658 73.8818 157 c 0
 73.8818 244 161.882 308 197.882 308 c 1
 161.882 308 73.8818 372 73.8818 459 c 0xe0
 73.8818 507.184 83.0951 525.426 90.9518 546 c 0
 96.7917 561.293 101.882 577.875 101.882 609 c 0
 101.882 674 51.8818 719 23.8818 734 c 1
 17.8818 742 27.8818 760 30.8818 760 c 1
EndSplineSet
Substitution2: "'smcp' Lowercase to Small Capitals in Latin lookup 0 subtable" braceright.sc
EndChar

StartChar: asciitilde
Encoding: 126 126 94
Width: 541
Flags: W
HStem: 239 60<316.108 446.872> 306 60<99.1279 228.702>
LayerCount: 2
Fore
SplineSet
256 273 m 0
 221 287 181 306 136 306 c 0
 97 306 62 275 50 259 c 1
 47 260 44 263 43 267 c 1
 43 307 107 366 166 366 c 0
 213 366 255 347 290 332 c 0
 324 318 365 299 410 299 c 0
 449 299 484 330 496 346 c 1
 499 345 502 342 503 338 c 1
 503 298 439 239 380 239 c 0
 333 239 291 259 256 273 c 0
EndSplineSet
Validated: 513
Substitution2: "'smcp' Lowercase to Small Capitals in Latin lookup 0 subtable" asciitilde.sc
EndChar

StartChar: exclamdown
Encoding: 161 161 96
Width: 241
Flags: W
HStem: 293 150<69.0309 173.75>
VStem: 46 150<316 419.72> 55 128<-194.241 61.0029>
LayerCount: 2
Fore
SplineSet
46 369 m 0xc0
 46 409 79 443 120 443 c 27
 162 443 196 409 196 366 c 0
 196 326 162 293 121 293 c 27
 79 293 46 329 46 369 c 0xc0
117 -210 m 0
 86 -210 55 -185 55 -142 c 0
 55 -114 84 123 97 211 c 1
 101 224 105 233 117 237 c 1
 122 237 134 230 140 220 c 1
 151 153 183 -92 183 -143 c 0xa0
 183 -185 153 -210 117 -210 c 0
EndSplineSet
Validated: 1
Substitution2: "'smcp' Lowercase to Small Capitals in Latin lookup 0 subtable" exclamdown.sc
EndChar

StartChar: cent
Encoding: 162 162 97
Width: 475
Flags: HW
HStem: -9 84<244.992 341.626> 396 52<201.134 328.5>
VStem: 40 126<151.509 290.309> 278 35<436.956 478.129>
LayerCount: 2
Fore
SplineSet
278 481 m 17
 286 481 313 480 313 473 c 1
 230 -38 l 1
 221 -38 198 -35 195 -29 c 9
 278 481 l 17
422 382 m 0
 422 353 400 320 364 320 c 0
 337 320 320 347 304 365 c 0
 287 384 261 396 236 396 c 0
 192 396 166 319 166 258 c 0
 166 118 246 75 310 75 c 0
 368 75 401 102 422 125 c 1
 429 123 434 113 434 107 c 3
 434 100 433 91 431 88 c 0
 413 60 345 -9 250 -9 c 0
 138 -9 40 69 40 200 c 0
 40 322 163 448 301 448 c 0
 356 448 391 437 402 430 c 1
 411 420 422 408 422 382 c 0
EndSplineSet
Substitution2: "'smcp' Lowercase to Small Capitals in Latin lookup 0 subtable" cent.sc
EndChar

StartChar: sterling
Encoding: 163 163 98
Width: 474
Flags: W
HStem: -8 102<289.853 368.63> 51 86<121.937 254.254> 307 42<55.4514 376.316> 580 56<238.178 330.754>
VStem: 96.2539 105<358.353 482.38> 127.254 114<191.15 305.841>
LayerCount: 2
Fore
SplineSet
313.254 636 m 0xb8
 348.254 636 365.254 626 384.254 614 c 1
 388.254 610 393.254 592 393.254 582 c 0
 393.254 546 371.254 523 344.254 523 c 0
 316.254 523 304.254 535 293.254 549 c 0
 281.254 564 268.254 580 250.254 580 c 0
 210.254 580 201.254 528 201.254 459 c 0xb8
 201.254 385 241.254 339 241.254 283 c 0
 241.254 208 195.254 145 170.254 122 c 1
 188.254 132 212.254 137 235.254 137 c 0x74
 273.254 137 306.254 94 358.254 94 c 0
 396.254 94 411.254 126 419.254 141 c 1
 423.254 143 431.254 139 435.254 134 c 24
 440.254 128 440.254 121 440.254 115 c 1
 429.254 83 383.254 -8 305.254 -8 c 0xb4
 237.254 -8 210.254 51 136.254 51 c 0x74
 110.254 51 76.2539 10 59.2539 -6 c 1
 51.2539 -6 43.2539 7 43.2539 16 c 0
 43.2539 45 79.2539 78 93.2539 94 c 0
 118.254 122 127.254 183 127.254 232 c 0xb4
 127.254 282 96.2539 356 96.2539 384 c 0
 96.2539 520 219.254 636 313.254 636 c 0xb8
64.2539 349 m 1
 80.2539 349 369.254 349 380.254 349 c 1
 394.254 338 376.254 311 370.254 307 c 1
 44.2539 307 l 17
 38.2539 313 55.2539 349 64.2539 349 c 1
EndSplineSet
Validated: 549
Substitution2: "'smcp' Lowercase to Small Capitals in Latin lookup 0 subtable" sterling.sc
EndChar

StartChar: currency
Encoding: 164 164 99
Width: 557
Flags: W
HStem: 120 40<238.989 329.532> 456 40<226.345 316.431>
VStem: 94 93<218.504 397.791> 366 93<217.847 397.55>
LayerCount: 2
Fore
SplineSet
285 160 m 0
 335 160 366 219 366 294 c 0
 366 386 323 456 271 456 c 0
 221 456 187 394 187 319 c 0
 187 227 233 160 285 160 c 0
390 455 m 1
 449 510 l 2
 457 518 483 490 490 466 c 1
 430 410 l 1
 448 380 459 344 459 307 c 0
 459 267 447 230 426 199 c 1
 480 141 l 2
 488 133 460 107 436 100 c 1
 384 155 l 1
 354 133 318 120 278 120 c 0
 235 120 195 135 164 160 c 1
 111 110 l 2
 103 102 77 130 70 154 c 1
 124 205 l 1
 105 235 94 270 94 307 c 0
 94 351 108 391 132 423 c 1
 80 479 l 2
 72 487 100 513 124 520 c 1
 176 465 l 1
 205 485 240 496 278 496 c 0
 321 496 359 481 390 455 c 1
EndSplineSet
Validated: 33
EndChar

StartChar: yen
Encoding: 165 165 100
Width: 691
Flags: HW
HStem: -4 37<186.106 252.384 408.387 474.665> 149 42<172.583 493.448> 229 42<172.583 493.448> 606 37<28.1063 84.3885 256.003 316.665 435.106 508.739 594.336 664.665>
VStem: 260.386 140<41.2661 306.418>
LayerCount: 2
Fore
SplineSet
181.386 191 m 1
 197.386 191 486.386 191 497.386 191 c 1
 511.386 180 493.386 153 487.386 149 c 1
 161.386 149 l 17
 155.386 155 172.386 191 181.386 191 c 1
181.386 271 m 1
 197.386 271 486.386 271 497.386 271 c 1
 511.386 260 493.386 233 487.386 229 c 1
 161.386 229 l 17
 155.386 235 172.386 271 181.386 271 c 1
260.386 145 m 2
 260.386 264 l 2
 260.386 265.445 259.17 274.913 256.974 280 c 0
 236.364 327.726 129.386 518 129.386 518 c 2
 114.386 546 110.386 553 98.3857 573 c 0
 83.3857 598 43.3857 605 30.3857 606 c 1
 25.3857 613 26.3857 637 30.3857 643 c 1
 69.3857 639 131.386 636 173.386 636 c 0
 215.386 636 275.386 639 314.386 643 c 1
 318.386 637 319.386 613 314.386 606 c 1
 301.386 605 253.386 604 253.386 579 c 0
 253.386 575 256.386 570 260.386 563 c 2
 380.386 342 l 1
 385.386 337 463.386 479 506.386 559 c 0
 510.386 567 511.386 575 511.386 582 c 0
 511.386 600 450.386 605 437.386 606 c 1
 432.386 613 433.386 637 437.386 643 c 1
 484.386 639 504.386 636 550.386 636 c 0
 594.386 636 621.386 641 662.386 643 c 1
 666.386 637 667.386 613 662.386 606 c 1
 649.386 605 603.386 604 588.386 581 c 0
 568.635 551.374 433.627 335.563 406.23 278 c 0
 403.11 271.445 401.386 260.942 401.386 259 c 2
 400.386 145 l 2
 400 102 400.386 71 408.386 51 c 0
 413.386 38 459.386 34 472.386 33 c 1
 477.386 26 476.386 2 472.386 -4 c 1
 433.386 0 371.386 3 329.386 3 c 0
 287.386 3 227.386 0 188.386 -4 c 1
 184.386 2 183.386 26 188.386 33 c 1
 201.386 34 247.386 38 252.386 51 c 0
 260.386 71 260 102 260.386 145 c 2
EndSplineSet
Substitution2: "'smcp' Lowercase to Small Capitals in Latin lookup 0 subtable" yen.sc
EndChar

StartChar: brokenbar
Encoding: 166 166 101
Width: 202
Flags: HW
VStem: 75.2646 53<-118.239 256.903 389.761 764.903>
LayerCount: 2
Fore
SplineSet
128.265 400 m 2
 128 392 82.2646 385 80.2646 385 c 0
 73.2646 385 75.2646 389 75.2646 393 c 2
 75.2646 757 l 1
 75.2646 757 74.2646 763 80.2646 765 c 0
 97.2646 770 117.265 770 120.265 770 c 0
 129.265 770 128.265 764 128.265 764 c 1
 128.265 400 l 2
75.2646 -115 m 2
 75.2646 249 l 1
 75.2646 249 74.2646 255 80.2646 257 c 0
 97.2646 262 117.265 262 120.265 262 c 0
 129.265 262 128.265 256 128.265 256 c 1
 128.265 -108 l 2
 128 -116 82.2646 -123 80.2646 -123 c 0
 73.2646 -123 75.2646 -119 75.2646 -115 c 2
EndSplineSet
Substitution2: "'smcp' Lowercase to Small Capitals in Latin lookup 0 subtable" brokenbar.sc
EndChar

StartChar: section
Encoding: 167 167 102
Width: 465
Flags: HW
HStem: -92 50<138 237.122> 603 50<227.878 327>
VStem: 35 71<347.939 450.268> 124 58<452 568> 283 58<-7 109> 359 71<110.62 213.061>
LayerCount: 2
Fore
SplineSet
320 653 m 0
 334 653 356 646 370 640 c 1
 375 630 377 616 377 610 c 0
 377 588 367 570 338 570 c 0
 319 570 306 582 297 590 c 0
 288 598 273 603 258 603 c 0
 227 603 182 587 182 549 c 0
 182 503 263 427 310 384 c 0
 374 325 430 276 430 184 c 0
 430 105 328 -8 290 -34 c 9
 291 -22 287 -14 292 -3 c 24
 299 15 320 37 320 37 c 0
 344 66 359 86 359 130 c 0
 359 213 300 270 246 320 c 0
 198 364 124 418 124 486 c 0
 124 566 208 653 320 653 c 0
145 -92 m 0
 131 -92 107 -84 95 -78 c 1
 91 -71 88 -58 88 -52 c 0
 88 -30 99 -9 128 -9 c 0
 147 -9 162 -22 171 -31 c 0
 179 -39 192 -42 207 -42 c 0
 238 -42 283 -26 283 12 c 0
 283 58 202 134 155 177 c 0
 91 236 35 285 35 377 c 0
 35 456 137 569 175 595 c 9
 174 583 178 575 173 564 c 24
 166 546 145 523 145 523 c 0
 119 492 106 475 106 431 c 0
 106 348 165 291 219 241 c 0
 267 197 341 143 341 75 c 0
 341 -5 257 -92 145 -92 c 0
EndSplineSet
Substitution2: "'smcp' Lowercase to Small Capitals in Latin lookup 0 subtable" section.sc
EndChar

StartChar: dieresis
Encoding: 168 168 103
Width: 407
Flags: W
HStem: 446 135<47.0563 147.491 257.509 358.491>
VStem: 30 135<463.509 563.944> 240 136<463.509 563.944>
LayerCount: 2
Fore
SplineSet
308 581 m 0
 346 581 376 552 376 514 c 0
 376 476 346 446 308 446 c 0
 270 446 240 476 240 514 c 0
 240 552 270 581 308 581 c 0
97 581 m 0
 135 581 165 552 165 514 c 0
 165 476 135 446 97 446 c 0
 59 446 30 476 30 514 c 0
 30 552 59 581 97 581 c 0
EndSplineSet
EndChar

StartChar: copyright
Encoding: 169 169 104
Width: 647
Flags: HW
HStem: 38 44<229.089 416.972> 163 25<298.66 383.851> 429 26<294.167 380.362> 538 46<226.58 419.481>
VStem: 50 45<214.08 406.92> 181 72<223.57 383.568> 419 19<234.315 254.873> 551 46<214.08 406.92>
LayerCount: 2
Fore
SplineSet
438 252 m 5
 438 247 427 191 421 189 c 4
 395 180 364 163 326 163 c 4
 241 163 181 217 181 305 c 4
 181 394 252 455 330 455 c 4
 357 455 393 444 417 439 c 5
 418 434 431 382 431 377 c 4
 431 375 421 371 416 371 c 7
 414 371 412 370 410 372 c 5
 406 388 391 429 333 429 c 4
 275 429 253 368 253 310 c 4
 253 246 280 188 338 188 c 4
 363 188 379 195 390 205 c 4
 407 221 418 253 419 256 c 5
 425 256 435 255 438 252 c 5
95 310 m 4
 95 184 197 82 323 82 c 4
 449 82 551 184 551 310 c 4
 551 436 449 538 323 538 c 4
 197 538 95 436 95 310 c 4
50 311 m 4
 50 462 172 584 323 584 c 4
 474 584 597 462 597 311 c 4
 597 160 474 38 323 38 c 4
 172 38 50 160 50 311 c 4
EndSplineSet
Substitution2: "'smcp' Lowercase to Small Capitals in Latin lookup 0 subtable" copyright.sc
EndChar

StartChar: ordfeminine
Encoding: 170 170 105
Width: 379
Flags: W
HStem: 248 48<107.5 199.411 260 330.162> 527 30<140.861 227>
VStem: 39 98<301.952 376.005> 48 79<447.362 504.577> 211 95<302.005 399 435 516.116>
LayerCount: 2
Fore
SplineSet
182 296 m 0xe8
 197 296 211 307 211 311 c 2
 211 399 l 1
 197 394 177 388 162 379 c 0
 142 367 137 352 137 337 c 0
 138 308 163 296 182 296 c 0xe8
197 557 m 0
 257 557 306 513 306 452 c 2
 306 327 l 2
 306 309 315 302 324 302 c 0
 334 302 344 310 347 311 c 1
 350 310 354 301 354 297 c 3
 354 292 352 288 350 285 c 1
 340 276 303 249 272 249 c 0
 248 249 223 264 216 280 c 1
 209 275 161 248 135 248 c 0
 80 248 39 290 39 330 c 0xe8
 39 356 59 379 77 386 c 0
 104 396 174 422 211 435 c 1
 211 440 211 440 211 445 c 2
 211 463 l 2
 211 497 194 527 169 527 c 0
 141 527 134 503 127 473 c 0
 123 458 111 444 86 444 c 0
 66 444 48 457 48 476 c 0xd8
 48 485 52 496 58 505 c 1
 67 514 133 557 197 557 c 0
EndSplineSet
Validated: 513
Substitution2: "'smcp' Lowercase to Small Capitals in Latin lookup 0 subtable" ordfeminine.sc
EndChar

StartChar: guillemotleft
Encoding: 171 171 106
Width: 498
Flags: HW
LayerCount: 2
Fore
SplineSet
212 248 m 0
 212 253 215 259 219 263 c 1
 350 342 424 419 429 423 c 1
 435 422 452 414 456 404 c 1
 452 398 359 284 322 248 c 1
 359 212 452 98 456 92 c 1
 452 82 435 74 429 73 c 1
 424 77 350 154 219 233 c 1
 215 237 212 243 212 248 c 0
25 248 m 0
 25 253 28 259 32 263 c 1
 163 342 237 419 242 423 c 1
 248 422 265 414 269 404 c 1
 265 398 172 284 135 248 c 1
 172 212 265 98 269 92 c 1
 265 82 248 74 242 73 c 1
 237 77 163 154 32 233 c 1
 28 237 25 243 25 248 c 0
EndSplineSet
Substitution2: "'smcp' Lowercase to Small Capitals in Latin lookup 0 subtable" guillemotleft.sc
EndChar

StartChar: logicalnot
Encoding: 172 172 107
Width: 581
Flags: HW
HStem: 362 58<45.2334 443>
VStem: 443 72<164.125 362>
LayerCount: 2
Fore
SplineSet
515 420 m 17
 515 408 515 169 515 169 c 1
 514 168 478 160 456 160 c 0
 446 160 443 167 443 167 c 1
 443 167 443 326 443 362 c 1
 47 362 l 1
 47 362 41 362 41 372 c 1
 41 372 46 420 56 420 c 2
 515 420 l 17
EndSplineSet
EndChar

StartChar: registered
Encoding: 174 174 108
Width: 647
Flags: HW
HStem: 89 44<229.089 416.972> 234 16<198.594 225.894 291.106 318.406 452.28 472> 355 19<288 302.875> 482 19<198.711 225.894 290.099 333.556> 589 46<226.58 419.481>
VStem: 50 45<265.08 457.92> 229 59<258.378 355 374 477.622> 352 62<385.07 475.989> 551 46<265.08 457.92>
LayerCount: 2
Fore
SplineSet
322 501 m 4
 372 501 414 475 414 427 c 4
 414 394 372 367 353 362 c 5
 382 323 415 288 415 288 c 4
 444 255 469 251 472 251 c 5
 474 248 472 235 472 234 c 5
 460 233 443 232 427 232 c 4
 396 232 379 245 361 268 c 4
 301 349 l 4
 301 349 297 355 294 355 c 4
 291 355 288 355 288 355 c 13
 288 295 l 6
 288 278 288 266 291 258 c 4
 293 253 312 250 317 250 c 5
 319 247 319 236 317 234 c 5
 301 236 276 237 259 237 c 4
 242 237 216 236 200 234 c 5
 198 236 198 247 200 250 c 5
 205 250 224 253 226 258 c 4
 229 266 229 278 229 295 c 6
 229 441 l 6
 229 458 229 470 226 478 c 4
 224 483 205 484 200 484 c 5
 198 487 198 499 200 501 c 5
 218 500 243 500 260 500 c 4
 277 500 298 501 322 501 c 4
352 424 m 4
 352 456 337 482 310 482 c 4
 301 482 292 482 290 478 c 4
 288 473 288 465 288 453 c 6
 288 374 l 21
 304 374 l 4
 330 374 352 393 352 424 c 4
95 361 m 4
 95 235 197 133 323 133 c 4
 449 133 551 235 551 361 c 4
 551 487 449 589 323 589 c 4
 197 589 95 487 95 361 c 4
50 362 m 4
 50 513 172 635 323 635 c 4
 474 635 597 513 597 362 c 4
 597 211 474 89 323 89 c 4
 172 89 50 211 50 362 c 4
EndSplineSet
Substitution2: "'smcp' Lowercase to Small Capitals in Latin lookup 0 subtable" registered.sc
EndChar

StartChar: macron
Encoding: 175 175 109
Width: 469
Flags: W
HStem: 547 50<563.586 787.904>
VStem: 562 232<547.013 597>
LayerCount: 2
Fore
SplineSet
562 556 m 0
 562 558 563 597 574 597 c 2
 789 597 l 2
 791 597 794 596 794 590 c 0
 794 585 793 572 788 554 c 0
 786 548 781 547 781 547 c 1
 568 547 l 1
 568 547 562 546 562 556 c 0
EndSplineSet
Validated: 1
EndChar

StartChar: degree
Encoding: 176 176 110
Width: 282
Flags: HW
HStem: 425 46<93.2032 189.07> 602 45<92.6978 189.587>
VStem: 30 47<488.031 585.491> 206 46<488.031 585.491>
LayerCount: 2
Fore
SplineSet
77 537 m 0
 77 501 105 471 141 471 c 0
 177 471 206 501 206 537 c 0
 206 573 177 602 141 602 c 0
 105 602 77 573 77 537 c 0
30 537 m 0
 30 598 80 647 141 647 c 0
 202 647 252 598 252 537 c 0
 252 476 202 425 141 425 c 0
 80 425 30 476 30 537 c 0
EndSplineSet
Substitution2: "'smcp' Lowercase to Small Capitals in Latin lookup 0 subtable" degree.sc
EndChar

StartChar: plusminus
Encoding: 177 177 111
Width: 575
Flags: W
HStem: 9 58<48.9531 523.936> 306 58<48.9531 256 314 523.936>
VStem: 256 58<100.019 306 364 571.557>
LayerCount: 2
Fore
SplineSet
57 67 m 1
 518 67 l 2
 524 67 527 59 527 53 c 0
 527 32 520 19 512 9 c 1
 52 9 l 2
 47 9 46 15 46 25 c 0
 46 29 49 55 57 67 c 1
57 364 m 1
 256 364 l 1
 256 563 l 1
 267 572 294 574 298 574 c 0
 308 574 314 572 314 565 c 2
 314 364 l 1
 518 364 l 2
 524 364 527 356 527 350 c 0
 527 329 520 316 512 306 c 1
 314 306 l 1
 314 108 l 1
 302 100 277 97 267 97 c 0
 261 97 256 101 256 105 c 2
 256 306 l 1
 52 306 l 2
 47 306 46 312 46 322 c 0
 46 326 49 352 57 364 c 1
EndSplineSet
EndChar

StartChar: uni00B2
Encoding: 178 178 112
Width: 344
Flags: W
HStem: 254 71<119 265.546> 589 53<110.118 185.713>
VStem: 200 95<469.713 573.612>
LayerCount: 2
Fore
SplineSet
306 382 m 1
 299 353 272 265 268 254 c 9
 41 254 l 1
 38 257 35 265 34 268 c 1
 82 321 105 347 153 409 c 0
 188 454 200 487 200 525 c 0
 200 565 170 589 136 589 c 0
 92 589 70 545 65 540 c 1
 62 540 49 542 49 554 c 1
 60 577 109 642 179 642 c 0
 249 642 295 607 295 538 c 0
 295 484 252 438 214 403 c 0
 184 376 156 352 119 325 c 1
 129 325 231 325 231 325 c 2
 261 325 271 358 281 380 c 0
 282 383 288 385 292 385 c 0
 296 385 303 384 306 382 c 1
EndSplineSet
Validated: 1
EndChar

StartChar: uni00B3
Encoding: 179 179 113
Width: 332
Flags: W
HStem: 245 27<115.55 186.878> 596 46<101.197 179.919>
VStem: 192 80<502.008 584.315> 211 90<311.683 416.952>
LayerCount: 2
Fore
SplineSet
176 642 m 0xe0
 212 642 272 619 272 558 c 0xe0
 272 497 221 481 199 477 c 1
 219 476 301 452 301 377 c 0
 301 288 203 245 125 245 c 0
 85 245 54 256 42 266 c 1
 38 272 33 284 33 293 c 0
 33 308 44 328 65 328 c 0
 82 328 94 314 105 297 c 0
 115 281 134 272 150 272 c 0
 188 272 211 299 211 354 c 0xd0
 211 400 180 443 139 443 c 0
 135 443 117 443 107 440 c 1
 105 443 101 450 101 455 c 0
 101 457 102 465 103 467 c 1
 134 471 192 488 192 538 c 0
 192 571 169 596 132 596 c 0
 99 596 72 568 68 563 c 1
 64 564 52 570 54 580 c 1
 77 610 128 642 176 642 c 0xe0
EndSplineSet
Validated: 1
EndChar

StartChar: acute
Encoding: 180 180 114
Width: 236
Flags: HW
HStem: 522 165
VStem: 28 173
LayerCount: 2
Fore
SplineSet
155 687 m 0
 190 687 201 666 201 658 c 0
 201 619 55 522 45 522 c 0
 38 522 28 534 28 540 c 0
 28 545 84 635 121 678 c 0
 126 683 141 687 155 687 c 0
EndSplineSet
EndChar

StartChar: uni00B5
Encoding: 181 181 115
Width: 536
Flags: W
HStem: -8 122<206.892 298.523> -4 108<413.449 492.192> 426 20G<102 113 361 372>
VStem: 71 103<-204.804 3.83203> 80 107<269.229 424> 337 112<329.63 423.537> 346 53<161.665 276.288>
LayerCount: 2
Back
Refer: 888 956 N 1 0 0 1 0 0 3
Fore
SplineSet
154 220 m 1xa8
 160 179 181 114 232 114 c 0
 291 114 346 165 346 217 c 1xaa
 343 241 339 306 339 329 c 0
 339 342 338 384 337 422 c 1
 342 430 355 446 367 446 c 0
 377 446 449 419 449 406 c 0xa4
 449 374 434 326 423 282 c 0
 415 251 408 229 399 195 c 17
 398 113 433 104 451 104 c 0
 489 104 510 140 520 157 c 1
 526 157 536 136 538 129 c 0
 539 125 537 112 536 109 c 0
 522 67 495 -4 455 -4 c 0x62
 407 -3 378 58 369 122 c 1
 349 52 309 -8 253 -8 c 0
 203 -8 153 76 145 137 c 1
 147 112 152 -85 174 -203 c 1
 169 -211 150 -227 132 -227 c 0
 113 -227 71 -188 71 -175 c 0xb2
 71 -157 84 112 96 216 c 1
 96 240 80 357 80 380 c 0
 80 393 81 416 83 424 c 1
 87 435 96 446 108 446 c 0
 118 446 187 419 187 406 c 0
 187 368 179 336 173 308 c 0
 165 269 160 248 154 220 c 1xa8
EndSplineSet
Validated: 33
EndChar

StartChar: paragraph
Encoding: 182 182 116
Width: 527
Flags: HW
HStem: -4 37<170.275 235.479 416.616 484.584> 288 45<298 354> 299 45<405 434.484> 603 45<298.286 354.805> 616 37<408.838 457.1>
VStem: 33 265<377.565 560.613> 248 50<52.6687 287> 355 50<51.7075 292 344 595.672>
LayerCount: 2
Fore
SplineSet
355 338 m 1xd3
 355 374 355 585 355 598 c 1
 351 602 336 603 326 603 c 0
 316 603 304 603 298 597 c 1
 298 597 298 435 298 333 c 1
 304 333 351 335 355 338 c 1xd3
354 292 m 1
 340 291 314 289 298 288 c 1xc3
 298 231 298 175 298 118 c 0
 298 82 298 66 303 52 c 0
 304.027 48.9177 315.084 47.1549 326 46.9828 c 0
 336.333 46.8199 346.541 48.0823 348 51 c 0
 355 66 354 91 354 112 c 2
 354 112 354 223 354 292 c 1
404 299 m 1xad
 404 228 404 179 404 117 c 0
 404 81 404 74 409 60 c 0
 416 41 474 34 482 34 c 1
 488 24 486 2 484 -4 c 1
 448 -2 389 3 328 3 c 24
 267 3 213 -2 172 -4 c 1
 167 5 170 33 172 33 c 0
 184 33 234 41 242 59 c 0
 249 74 248 95 248 116 c 2
 248 116 248 220 248 287 c 1xab
 120 287 33 349 33 469 c 0
 33 608 145 652 227 652 c 0
 286 652 276 648 335 648 c 0xb5
 402 648 455 653 455 653 c 1
 460 648 459 619 454 616 c 1
 439 616 413 608 408 596 c 0
 406 589 405 583 405 532 c 0
 405 471 405 363 405 344 c 1
 410 343 454 357 454 357 c 1
 459 357 458 351 458 347 c 0
 457 337 442 312 435 309 c 0
 424 304 412 300 404 299 c 1xad
EndSplineSet
Substitution2: "'smcp' Lowercase to Small Capitals in Latin lookup 0 subtable" paragraph.sc
EndChar

StartChar: periodcentered
Encoding: 183 183 117
Width: 233
Flags: W
HStem: 189 149<66.5543 168.29>
VStem: 43 147<212 316.5>
LayerCount: 2
Fore
SplineSet
43 265 m 0
 43 305 76 338 117 338 c 27
 157 338 190 305 190 265 c 0
 190 225 159 189 119 189 c 27
 77 189 43 225 43 265 c 0
EndSplineSet
Validated: 1
EndChar

StartChar: cedilla
Encoding: 184 184 118
Width: 454
Flags: W
HStem: -156 28<162.459 244.958> -65 63<203.959 246>
VStem: 251 54<-124.534 -65.5938>
LayerCount: 2
Fore
SplineSet
233 -25 m 1
 241 -24 246 -23 255 -23 c 27
 282 -23 305 -46 305 -72 c 0
 305 -119 269 -156 208 -156 c 0
 186 -156 167 -147 160 -140 c 1
 158 -137 156 -124 156 -120 c 0
 156 -114 157 -113 159 -113 c 1
 163 -115 186 -128 207 -128 c 0
 241 -128 251 -112 251 -98 c 0
 251 -84 246 -65 225 -65 c 0
 219 -65 209 -68 199 -72 c 1
 196 -72 186 -63 186 -57 c 1
 195 -42 208 -17 214 -2 c 1
 246 -2 l 1
 246 -2 238 -16 233 -25 c 1
EndSplineSet
Validated: 1
EndChar

StartChar: uni00B9
Encoding: 185 185 119
Width: 283
Flags: HW
HStem: 252 26<50.1213 98.8495 207.394 254.878> 621 20G<191 195>
VStem: 110 87<292.304 557.384>
LayerCount: 2
Fore
SplineSet
110 511 m 2
 110 538 103 558 91 558 c 0
 82 558 57 547 46 542 c 1
 41 543 35 554 35 562 c 0
 35 563 35 568 36 569 c 1
 107 599 190 641 192 641 c 2
 193 641 l 2
 197 641 208 624 209 621 c 1
 206 610 197 575 197 536 c 2
 197 346 l 2
 197 328 200 298 207 291 c 0
 215 282 249 278 254 278 c 1
 256 278 255 253 254 252 c 1
 230 253 178 256 154 256 c 0
 130 256 76 253 52 252 c 1
 49 255 49 278 52 278 c 1
 60 278 93 284 100 292 c 0
 105 298 110 336 110 347 c 2
 110 511 l 2
EndSplineSet
EndChar

StartChar: ordmasculine
Encoding: 186 186 120
Width: 400
Flags: W
HStem: 251 31<171.805 243.181> 523 30<156.125 226.443>
VStem: 32 102<324.228 475.727> 266 102<328.742 480.169>
LayerCount: 2
Fore
SplineSet
191 523 m 3
 138 523 134 461 134 413 c 27
 134 355 155 282 208 282 c 3
 261 282 266 343 266 390 c 27
 266 448 244 523 191 523 c 3
199 553 m 0
 298 553 368 489 368 405 c 0
 368 321 295 251 200 251 c 0
 101 251 32 316 32 400 c 0
 32 484 105 553 199 553 c 0
EndSplineSet
Validated: 513
Substitution2: "'smcp' Lowercase to Small Capitals in Latin lookup 0 subtable" ordmasculine.sc
EndChar

StartChar: guillemotright
Encoding: 187 187 121
Width: 498
Flags: W
LayerCount: 2
Fore
SplineSet
286 248 m 0
 286 243 283 237 279 233 c 1
 148 154 74 77 69 73 c 1
 63 74 46 82 42 92 c 1
 46 98 139 212 176 248 c 1
 139 284 46 398 42 404 c 1
 46 414 63 422 69 423 c 1
 74 419 148 342 279 263 c 1
 283 259 286 253 286 248 c 0
473 248 m 0
 473 243 470 237 466 233 c 1
 335 154 261 77 256 73 c 1
 250 74 233 82 229 92 c 1
 233 98 326 212 363 248 c 1
 326 284 233 398 229 404 c 1
 233 414 250 422 256 423 c 1
 261 419 335 342 466 263 c 1
 470 259 473 253 473 248 c 0
EndSplineSet
Validated: 513
Substitution2: "'smcp' Lowercase to Small Capitals in Latin lookup 0 subtable" guillemotright.sc
EndChar

StartChar: onequarter
Encoding: 188 188 122
Width: 738
Flags: HW
HStem: -3 21G<608 632.5> 92 46<476.824 579 666 703.297> 252 26<49.1213 97.8495 206.394 253.878> 621 20G<190 194>
VStem: 109 87<292.304 557.384> 579 87<-1.5817 92 138 262>
LayerCount: 2
Fore
SplineSet
646 386 m 4
 650 386 666 377 666 367 c 14
 666 138 l 29
 691 138 l 21
 704 126 707 110 701 92 c 5
 690 92 666 92 666 92 c 29
 666 2 l 21
 666 2 646 -3 619 -3 c 4
 597 -3 579 0 579 5 c 6
 579 92 l 29
 426 92 l 21
 421 94 414 101 414 109 c 5
 489 199 568 298 633 378 c 4
 637 383 641 386 646 386 c 4
579 138 m 5
 579 182 579 262 579 262 c 21
 556 235 489 152 477 138 c 5
 472 138 547 138 579 138 c 5
196 536 m 2
 196 346 l 2
 196 328 199 298 206 291 c 0
 214 282 248 278 253 278 c 1
 255 278 254 253 253 252 c 1
 229 253 177 256 153 256 c 0
 129 256 75 253 51 252 c 1
 48 255 48 278 51 278 c 1
 59 278 92 284 99 292 c 0
 104 298 109 336 109 347 c 2
 109 511 l 2
 109 538 102 558 90 558 c 0
 81 558 56 547 45 542 c 1
 40 543 34 568 35 569 c 1
 106 599 190 641 192 641 c 9
 192 641 207 624 208 621 c 1
 205 610 196 575 196 536 c 2
221 -34 m 0
 206 -37 204 -25 204 -25 c 1
 549 663 l 1
 555 672 568 680 585 684 c 0
 594 686 602 682 603 677 c 1
 258 -11 l 2
 255 -18 238 -30 221 -34 c 0
EndSplineSet
EndChar

StartChar: onehalf
Encoding: 189 189 123
Width: 748
Flags: HW
HStem: -2 71<528 674.546> 252 26<50.0156 97.8495 206.394 253.615> 333 53<519.118 594.713> 621 20G<190 194>
VStem: 109 87<292.304 557.384> 609 95<213.713 317.612>
LayerCount: 2
Fore
SplineSet
588 386 m 0
 658 386 704 351 704 282 c 0
 704 228 661 182 623 147 c 0
 593 120 565 96 528 69 c 1
 538 69 640 69 640 69 c 2
 670 69 680 102 690 124 c 0
 691 127 697 129 701 129 c 0
 705 129 712 128 715 126 c 1
 708 97 681 9 677 -2 c 9
 450 -2 l 1
 447 1 444 9 443 12 c 1
 491 65 514 91 562 153 c 0
 597 198 609 231 609 269 c 0
 609 309 579 333 545 333 c 0
 501 333 479 289 474 284 c 1
 471 284 458 286 458 298 c 1
 469 321 518 386 588 386 c 0
196 536 m 2
 196 346 l 2
 196 328 199 298 206 291 c 0
 214 282 248 278 253 278 c 1
 255 278 254 253 253 252 c 1
 229 253 177 256 153 256 c 0
 129 256 75 253 51 252 c 1
 48 255 48 278 51 278 c 1
 59 278 92 284 99 292 c 0
 104 298 109 336 109 347 c 2
 109 511 l 2
 109 538 102 558 90 558 c 0
 81 558 56 547 45 542 c 1
 40 543 33 562 35 569 c 1
 106 599 190 641 192 641 c 1
 198 635 207 624 208 621 c 1
 205 610 196 575 196 536 c 2
581 677 m 1
 236 -11 l 2
 233 -18 216 -30 199 -34 c 0
 184 -37 182 -25 182 -25 c 1
 527 663 l 1
 533 672 546 680 563 684 c 0
 572 686 580 682 581 677 c 1
EndSplineSet
EndChar

StartChar: threequarters
Encoding: 190 190 124
Width: 736
Flags: W
HStem: -3 21G<608 632.5> 92 46<476.824 579 666 697.264> 245 27<115.55 186.878> 596 46<101.197 179.919>
VStem: 192 80<502.008 584.315> 211 90<311.683 416.952> 579 87<-1.5817 92 138 262>
LayerCount: 2
Fore
SplineSet
646 386 m 0xf2
 650 386 666 377 666 367 c 10
 666 138 l 25
 691 138 l 17
 704 126 707 110 701 92 c 1
 690 92 666 92 666 92 c 25
 666 2 l 17
 666 2 646 -3 619 -3 c 0
 597 -3 579 0 579 5 c 2
 579 92 l 25
 426 92 l 17
 421 94 414 101 414 109 c 1
 489 199 568 298 633 378 c 0
 637 383 641 386 646 386 c 0xf2
579 138 m 1
 579 182 579 262 579 262 c 17
 556 235 489 152 477 138 c 1
 472 138 547 138 579 138 c 1
176 642 m 0
 212 642 272 619 272 558 c 0xfa
 272 497 221 481 199 477 c 1
 219 476 301 452 301 377 c 0
 301 288 203 245 125 245 c 0
 85 245 54 256 42 266 c 1
 38 272 33 284 33 293 c 0
 33 308 44 328 65 328 c 0
 82 328 94 314 105 297 c 0
 115 281 134 272 150 272 c 0
 188 272 211 299 211 354 c 0xf6
 211 400 180 443 139 443 c 0
 135 443 117 443 107 440 c 1
 105 443 101 450 101 455 c 0
 101 457 102 465 103 467 c 1
 134 471 192 488 192 538 c 0xfa
 192 571 169 596 132 596 c 0
 99 596 72 568 68 563 c 1
 64 564 52 570 54 580 c 1
 77 610 128 642 176 642 c 0
613 677 m 1
 268 -11 l 2
 265 -18 248 -30 231 -34 c 0
 216 -37 214 -25 214 -25 c 1
 559 663 l 1
 565 672 578 680 595 684 c 0
 604 686 612 682 613 677 c 1
EndSplineSet
EndChar

StartChar: questiondown
Encoding: 191 191 125
Width: 384
Flags: HW
HStem: -214 67<144.786 260.5> 294 150<202.75 303.711>
VStem: 30 85<-116.841 6> 181 147<315.125 419.536> 243 38<177.477 236.338>
LayerCount: 2
Fore
SplineSet
328 367 m 0xf0
 328 325 294 294 256 294 c 0
 214 294 181 326 181 367 c 0
 181 408 212 444 252 444 c 0
 289 444 328 412 328 367 c 0xf0
281 225 m 1xe8
 288 209 301 165 301 125 c 0
 301 67 257 35 221 11 c 0
 171 -22 115 -65 115 -99 c 0
 115 -120 133 -147 169 -147 c 0
 205 -147 237 -85 279 -85 c 0
 317 -85 341 -118 341 -151 c 0
 341 -168 333 -191 326 -197 c 1
 312 -205 285 -214 236 -214 c 0
 191 -214 30 -177 30 -38 c 0
 30 50 103 84 156 117 c 0
 183 134 221 152 238 177 c 0
 245 187 243 209 243 219 c 1
 245 225 253 237 258 237 c 0
 266 237 277 229 281 225 c 1xe8
EndSplineSet
Substitution2: "'smcp' Lowercase to Small Capitals in Latin lookup 0 subtable" questiondown.sc
EndChar

StartChar: AE
Encoding: 198 198 132
Width: 895
Flags: HW
HStem: -4 37<-24.1904 37.2268 138.324 198.177 331.723 397.884> -2 44<553.158 764.018> 4 28<-22.1143 85.8857> 225 48<254.885 405.886> 310 47<545.885 693.312> 620 37<332.532 398.886 548.888 739.326>
VStem: 405.886 139.999<50.3979 225 273.695 306.897 358.474 520 604 616.372> 729.885 31<386.617 434.825>
LayerCount: 2
Fore
SplineSet
405.886 275 m 1x1f
 405.886 520 l 1
 254.886 280 l 1
 254.886 280 253.886 276 255.886 276 c 0
 275.886 274 308.886 273 331.886 273 c 0
 360.886 273 378.886 273 405.886 275 c 1x1f
476.886 657 m 0
 518.885 657 742.885 663 801.885 664 c 1
 808.885 614 821.885 561 830.885 516 c 1
 827.885 513 814.885 511 807.885 511 c 0
 800.885 511 793.885 514 791.885 519 c 0
 770.885 574 744.885 620 683.885 620 c 2
 600.885 620 l 2
 577.885 620 555.885 619 550.885 608 c 0
 545.885 596 545.885 576 545.885 547 c 2
 545.885 368 l 2
 545.885 362 566.885 357 588.885 357 c 2
 641.885 357 l 2
 700.885 357 713.885 369 729.885 427 c 0
 730.885 432 734.885 435 741.885 435 c 0
 748.885 435 757.885 433 760.885 430 c 1
 760.885 238 l 1
 758.885 236 749.885 234 742.885 234 c 0
 735.885 234 729.885 237 728.885 242 c 0
 716.885 290 702.885 299 693.885 303 c 0
 681.885 308 655.885 310 617.885 310 c 0
 589.885 310 545.885 308 545.885 296 c 2
 545.885 141 l 2
 545.885 135 545.885 82 553.885 62 c 0
 559.885 48 592.885 42 618.885 42 c 2
 684.885 42 l 2
 722.885 42 754.885 52 777.885 75 c 0
 798.885 96 814.885 125 831.885 170 c 0
 832.885 174 838.885 176 845.885 176 c 0
 855.885 176 872.885 173 875.885 170 c 1
 856.885 116 828.885 42 821.885 -2 c 1x5f
 794.811 -2 616.071 -2 482 -2.26785 c 4
 408.084 -2.41553 347.746 -2.64461 333.886 -3 c 1
 329.886 3 328.886 27 333.886 34 c 1
 346.886 35 392.886 38 397.886 51 c 0
 405.886 71 405.886 102 405.886 145 c 2
 405.886 225 l 1
 374.886 226 347.886 225 326.886 225 c 0
 285.886 225 263.886 225 228.886 224 c 0
 225.886 224 221.886 221 220.886 219 c 2
 220.886 219 181.886 160 165.886 132 c 0
 150.886 107 132.886 73 131.886 66 c 0
 126.886 40 187.886 33 195.886 33 c 1
 200.886 26 200.886 0 196.886 -4 c 1x9f
 162.886 0 129.886 4 85.8857 4 c 0x3f
 39.8857 4 12.8857 0 -23.1143 -4 c 1x9f
 -26.1143 0 -28.1143 21 -22.1143 32 c 1x3f
 -10.1143 32 42.8857 48 55.8857 64 c 0
 78.8857 92 87.8857 106 104.886 134 c 2
 398.886 604 l 0
 398.886 605 398.886 606 397.886 607 c 0
 390.886 621 346.886 622 333.886 623 c 1
 328.886 630 329.886 654 333.886 660 c 1
 378.886 657 434.886 657 476.886 657 c 0
EndSplineSet
EndChar

StartChar: Eth
Encoding: 208 208 142
Width: 754
Flags: HW
HStem: -3 42<33.5723 101.276 256.046 429.143> 308 40<26.5869 380.078> 620 40<32.874 100.984 249.318 403.535>
VStem: 106.636 140<49.4974 616.164> 555.636 159<207.017 459.229>
LayerCount: 2
Fore
SplineSet
378.25 308 m 5
 349.25 308 42.25 308 28.25 308 c 5
 24.25 308 23.25 339 29.25 348 c 5
 58.25 348 364.25 348 378.25 348 c 5
 382.25 348 382.25 317 378.25 308 c 5
EndSplineSet
Refer: 36 68 N 1 0 0 1 -0.75 0 2
EndChar

StartChar: multiply
Encoding: 215 215 149
Width: 453
Flags: MW
DStem2: 83 429 48 390 0.707107 -0.707107<-6.26504 2.82843 256.68 467.183>
LayerCount: 2
Fore
SplineSet
190 248 m 1
 188 250 48 390 48 390 c 1
 48 404 67 431 76 431 c 0
 79 431 81 431 83 429 c 2
 83 429 228 289 230 287 c 9
 373 429 l 2
 374 430 376 431 379 431 c 0
 388 431 405 397 405 387 c 1
 405 387 270 253 267 250 c 1
 268 249 405 107 405 107 c 1
 405 92 390 64 379 64 c 0
 377 64 374 64 372 66 c 2
 372 66 228 210 227 211 c 1
 225 209 80 64 80 64 c 2
 78 62 76 62 74 62 c 0
 65 62 48 97 48 107 c 1
 48 107 186 244 190 248 c 1
EndSplineSet
Substitution2: "'smcp' Lowercase to Small Capitals in Latin lookup 0 subtable" multiply.sc
EndChar

StartChar: Oslash
Encoding: 216 216 150
Width: 753
Flags: W
HStem: -10 43<319.356 467.535> 624 43<285.38 433.304>
VStem: 37 160<211.696 443.97> 557 160<211.714 444.117>
LayerCount: 2
Fore
SplineSet
542 676 m 17
 550 673 582 662 580 655 c 9
 203 -18 l 17
 195 -15 163 -3 165 4 c 9
 542 676 l 17
EndSplineSet
Refer: 47 79 N 1 0 0 1 1 0 2
Validated: 37
EndChar

StartChar: Thorn
Encoding: 222 222 156
Width: 577
Flags: HW
HStem: -4 37<33.1063 99.3842 255.387 321.665> 3 198<155.386 308.534> 146 51<293.019 376.996> 479 38<250.735 355.523> 625 37<33.1063 99.3842 255.387 321.665>
VStem: 107.386 140<41.2661 476.969 517 616.734> 416.386 142<250.288 416.362>
LayerCount: 2
Fore
SplineSet
178.386 655 m 0x9e
 220.386 655 280.386 658 319.386 662 c 1
 323.386 656 324.386 632 319.386 625 c 1
 306.386 624 260.386 620 255.386 607 c 0
 248.893 591.579 247.67 568.913 247.439 539 c 0
 247.386 532.057 247.386 524.724 247.386 517 c 1
 273.386 518 302.386 519 332.386 519 c 0
 457.386 519 558.386 455 558.386 341 c 0
 558.386 221 462.386 146 361.386 146 c 0xbe
 325.386 146 299.386 162 292.386 169 c 0
 288.392 172.994 284.841 185.85 284.978 194 c 0
 285.047 198.094 286.046 201 288.386 201 c 1x5e
 298.386 198 314.386 197 329.386 197 c 0
 378.386 197 416.386 250 416.386 327 c 0
 416.386 406 369.386 479 302.386 479 c 0
 279.386 479 257.386 478 252.386 467 c 0
 247.386 455 247.386 406 247.386 406 c 1
 247.386 145 l 2
 247.386 102 247.386 71 255.386 51 c 0
 260.386 38 306.386 34 319.386 33 c 1
 324.386 26 323.386 2 319.386 -4 c 1xbe
 280.386 0 218.386 3 176.386 3 c 0x5e
 134.386 3 74.3857 0 35.3857 -4 c 1
 31.3857 2 30.3857 26 35.3857 33 c 1
 48.3857 34 94.3857 38 99.3857 51 c 0
 107.386 71 107.386 102 107.386 145 c 2
 107.386 513 l 2
 107.386 556 107.386 587 99.3857 607 c 0
 94.3857 620 48.3857 624 35.3857 625 c 1
 30.3857 632 31.3857 656 35.3857 662 c 1
 74.3857 658 136.386 655 178.386 655 c 0x9e
EndSplineSet
EndChar

StartChar: germandbls
Encoding: 223 223 157
Width: 583
Flags: W
HStem: -10 44<18.8433 84.5002 227.858 272.928 372.386 463.079> 381 47<36.3443 91.3857> 651 47<262.917 346.916>
VStem: 91.3857 130<41.2661 381 428 538.361> 381.386 9<402 525> 467.386 92<74.0376 183.5>
LayerCount: 2
Fore
SplineSet
325.386 698 m 0
 411.386 698 500.386 643 500.386 563 c 0
 500.386 515 472.386 490 449.386 470 c 0
 426.386 450 390.386 425 390.386 402 c 0
 390.386 365 457.386 315 487.386 286 c 0
 523.386 251 559.386 214 559.386 153 c 0
 559.386 52 465.386 -10 389.386 -10 c 0
 355.386 -10 314.386 0 298.386 17 c 1
 293.386 27 289.386 40 289.386 54 c 0
 289.386 86 308.386 122 338.386 122 c 0
 373.386 122 386.386 88 395.386 70 c 0
 404.386 52 416.386 34 435.386 34 c 0
 458.386 34 467.386 53 467.386 82 c 0
 467.386 131 423.386 170 383.386 210 c 0
 342.386 251 287.386 290 287.386 348 c 0
 287.386 377 315.386 401 338.386 427 c 0
 364.386 456 381.386 479 381.386 525 c 0
 381.386 582 358.386 651 300.386 651 c 0
 260.386 651 221.386 586 221.386 486 c 0
 221.386 385 221.386 145 221.386 145 c 2
 221.386 102 221.386 71 229.386 51 c 0
 234.386 38 259.386 34 272.386 33 c 1
 277.386 26 276.386 2 272.386 -4 c 1
 233.386 0 198.386 3 156.386 3 c 0
 114.386 3 58.3857 0 19.3857 -4 c 1
 15.3857 2 14.3857 26 19.3857 33 c 1
 32.3857 34 78.3857 38 83.3857 51 c 0
 91.3857 71 91.3857 102 91.3857 145 c 2
 91.3857 145 91.3857 292 91.3857 381 c 1
 64.3857 381 58.3857 381 32.3857 381 c 1
 27.3857 383 27.3857 390 27.3857 394 c 1
 37.3857 408 47.3857 418 59.3857 428 c 1
 72.3857 428 81.3857 428 91.3857 428 c 9
 91.3857 443 l 2
 91.3857 580 220.386 698 325.386 698 c 0
EndSplineSet
Validated: 33
Substitution2: "'smcp' Lowercase to Small Capitals in Latin lookup 0 subtable" germandbls.sc
EndChar

StartChar: ae
Encoding: 230 230 164
Width: 689
Flags: HW
HStem: -9 84<461.392 565.626> -8 70<120 232.717> 242 40<395 522.823> 406 41<166.332 255.147 433.135 515.103>
VStem: 27 135<78.1133 172.955> 39 108<292.124 371.344> 537 124<289.978 370.347>
LayerCount: 2
Fore
SplineSet
198 191 m 0
 170 173 161 146 162 124 c 0
 163 81 197 62 223 62 c 0
 248 62 292 85 292 102 c 1x7a
 285 124 277 161 277 194 c 0
 277 206 277 208 278 223 c 1
 259 216 218 204 198 191 c 0
476 406 m 3
 417 406 395 316 395 282 c 1
 404 281 500 287 524 290 c 0
 536 291 537 300 537 306 c 11
 537 352 521 406 476 406 c 3
486 447 m 0
 617 447 661 354 661 296 c 0
 661 274 649 255 634 254 c 0
 566 248 468 244 394 242 c 1
 394 102 489 75 534 75 c 0
 592 75 625 102 646 125 c 1
 653 123 658 113 658 107 c 3
 658 100 657 91 655 88 c 0
 637 60 569 -9 474 -9 c 0xb6
 407 -9 349 16 314 64 c 1
 263 23 192 -8 158 -8 c 0
 82 -8 27 55 27 114 c 0x7a
 27 153 53 186 79 194 c 0
 117 206 230 245 281 263 c 1
 285 266 289 278 289 285 c 0
 289 298 289 307 287 318 c 0
 277 375 240 411 205 411 c 0
 167 411 157 372 147 327 c 0
 142 304 126 283 91 283 c 0
 64 283 39 303 39 331 c 0x76
 39 344 45 358 53 372 c 1
 66 385 156 449 244 449 c 0
 291 449 333 429 361 394 c 1
 396 426 440 447 486 447 c 0
EndSplineSet
Substitution2: "'smcp' Lowercase to Small Capitals in Latin lookup 0 subtable" ae.sc
EndChar

StartChar: eth
Encoding: 240 240 174
Width: 534
Flags: HW
HStem: -6 42<220.317 303.738> 406 42<214.808 307.493> 663 28<95.4287 121.598>
VStem: 30 138<115.982 324.81> 347 139<141.468 357.594>
LayerCount: 2
Fore
SplineSet
364 708 m 17
 369 702 390 679 385 674 c 9
 132 502 l 17
 126 509 107 532 112 537 c 9
 364 708 l 17
261 406 m 0
 190 406 168 303 168 212 c 0
 168 96 223 36 262 36 c 0
 329 36 347 135 347 225 c 0
 347 276 339 333 318 375 c 1
 306 392 289 406 261 406 c 0
243 448 m 0
 268 448 287 445 308 440 c 1
 282 516 220 607 94 663 c 1
 92 674 93 685 101 691 c 1
 169 681 296 627 382 530 c 0
 441 464 486 378 486 259 c 3
 486 107 392 -6 260 -6 c 0
 154 -6 30 59 30 218 c 0
 30 373 146 448 243 448 c 0
EndSplineSet
Substitution2: "'smcp' Lowercase to Small Capitals in Latin lookup 0 subtable" eth.sc
EndChar

StartChar: divide
Encoding: 247 247 181
Width: 558
Flags: W
HStem: 2 124<233.2 326.8> 223 58<44.526 519.297> 370 124<233.2 326.8>
VStem: 218 124<17.2003 110.8 385.2 478.8>
LayerCount: 2
Fore
SplineSet
218 432 m 0
 218 466 246 494 280 494 c 0
 314 494 342 466 342 432 c 0
 342 398 314 370 280 370 c 0
 246 370 218 398 218 432 c 0
218 64 m 0
 218 98 246 126 280 126 c 0
 314 126 342 98 342 64 c 0
 342 30 314 2 280 2 c 0
 246 2 218 30 218 64 c 0
48 223 m 1
 43 223 42 229 42 239 c 0
 42 243 44 269 53 281 c 1
 513 281 l 2
 519 281 522 273 522 267 c 0
 522 246 516 233 508 223 c 1
 48 223 l 1
EndSplineSet
Substitution2: "'smcp' Lowercase to Small Capitals in Latin lookup 0 subtable" divide.sc
EndChar

StartChar: oslash
Encoding: 248 248 182
Width: 527
Flags: W
HStem: -7 42<227.597 320.545> 406 41<207.207 296.807>
VStem: 30 142<118.592 313.407> 356 142<126.606 322.548>
LayerCount: 2
Fore
SplineSet
374 455 m 21
 382 452 408 443 406 436 c 13
 153 -16 l 21
 145 -13 119 -3 121 4 c 13
 374 455 l 21
EndSplineSet
Refer: 79 111 N 1 0 0 1 1 0 2
Validated: 37
Substitution2: "'smcp' Lowercase to Small Capitals in Latin lookup 0 subtable" oslash.sc
EndChar

StartChar: thorn
Encoding: 254 254 188
Width: 529
Flags: HW
HStem: -218 37<-9.89375 56.3842 202.387 268.665> -8 44<208.572 304.73> 375 73<244.127 311.202> 624 32<-5.28613 51.9144> 675 20G<188.886 193.386>
VStem: 64.3857 130<-172.734 0.997055 50.0771 367.992 387.253 615.244> 356.386 144<134.92 323.157>
LayerCount: 2
Fore
SplineSet
304.386 448 m 0
 425.386 448 500.386 345 500.386 234 c 0
 500.386 81 365.386 -8 255.386 -8 c 0
 227.386 -8 201.386 1 197.386 1 c 1
 194.386 1 194.386 -3 194.386 -15 c 2
 194.386 -69 l 2
 194.386 -112 194.386 -143 202.386 -163 c 0
 207.386 -176 253.386 -180 266.386 -181 c 1
 271.386 -188 270.386 -212 266.386 -218 c 1
 227.386 -214 171.386 -211 129.386 -211 c 0
 87.3857 -211 31.3857 -214 -7.61426 -218 c 1
 -11.6143 -212 -12.6143 -188 -7.61426 -181 c 1
 5.38574 -180 51.3857 -176 56.3857 -163 c 0
 64.3857 -143 64.3857 -112 64.3857 -69 c 2
 64.3857 558 l 2
 64.3857 575 64.3857 589 57.3857 606 c 0
 52.3857 618 9.38574 624 -2.61426 624 c 1
 -6.61426 624 -7.61426 652 -2.61426 656 c 1
 109.386 666 187.386 695 190.386 695 c 1
 196.386 694 204.386 683 205.386 678 c 1
 205.386 678 194.386 616 194.386 576 c 0
 194.386 408 194.386 410 194.386 394 c 0
 194.386 392.372 194.533 391.039 194.788 390 c 0
 195.471 387.209 196.929 386.543 198.386 388 c 0
 228.386 420 273.386 448 304.386 448 c 0
249.386 375 m 0
 212.386 375 194.386 352 194.386 347 c 2
 194.386 96 l 2
 194.386 56 227.386 36 262.386 36 c 0
 295.386 36 356.386 83 356.386 199 c 0
 356.386 302 330.386 375 249.386 375 c 0
EndSplineSet
Substitution2: "'smcp' Lowercase to Small Capitals in Latin lookup 0 subtable" thorn.sc
EndChar

StartChar: gravecomb
Encoding: 768 768 190
Width: 249
Flags: W
HStem: 522 165
VStem: 44 173
LayerCount: 2
Fore
SplineSet
44 658 m 0
 44 666 55 687 90 687 c 0
 104 687 119 683 124 678 c 0
 161 635 217 545 217 540 c 0
 217 534 207 522 200 522 c 0
 190 522 44 619 44 658 c 0
EndSplineSet
Validated: 1
EndChar

StartChar: acutecomb
Encoding: 769 769 191
Width: 236
Flags: W
HStem: 522 165
VStem: 28 173
LayerCount: 2
Fore
SplineSet
155 687 m 4
 190 687 201 666 201 658 c 0
 201 619 55 522 45 522 c 0
 38 522 28 534 28 540 c 0
 28 545 84 635 121 678 c 0
 126 683 141 687 155 687 c 4
EndSplineSet
Validated: 1
EndChar

StartChar: uni2010
Encoding: 8208 8208 197
Width: 316
Flags: W
HStem: 193 74<32.0093 185.957> 204 75<139.043 285.537>
VStem: 29 261
LayerCount: 2
Fore
SplineSet
29 204 m 0x60
 29 252 38 267 41 267 c 2
 42 267 l 1xa0
 283 279 l 1
 284 279 l 2
 286 279 290 278 290 270 c 0
 290 221 277 204 277 204 c 1x60
 36 193 l 1xa0
 36 193 29 192 29 204 c 0x60
EndSplineSet
Validated: 1
EndChar

StartChar: uni2011
Encoding: 8209 8209 198
Width: 316
Flags: W
HStem: 193 74<32.0093 185.957> 204 75<139.043 285.537>
VStem: 29 261
LayerCount: 2
Fore
SplineSet
29 204 m 0x60
 29 252 38 267 41 267 c 2
 42 267 l 1xa0
 283 279 l 1
 284 279 l 2
 286 279 290 278 290 270 c 0
 290 221 277 204 277 204 c 1x60
 36 193 l 1xa0
 36 193 29 192 29 204 c 0x60
EndSplineSet
Validated: 1
EndChar

StartChar: figuredash
Encoding: 8210 8210 199
Width: 501
Flags: W
HStem: 194 74<33.4735 464.904>
LayerCount: 2
Fore
SplineSet
29 203 m 0
 29 205 32 268 43 268 c 2
 468 268 l 2
 470 268 474 267 474 259 c 0
 474 241 466 205 465 201 c 0
 463 195 458 194 458 194 c 1
 35 194 l 1
 35 194 29 193 29 203 c 0
EndSplineSet
Validated: 1
EndChar

StartChar: endash
Encoding: 8211 8211 200
Width: 553
Flags: W
HStem: 194 74<59.4735 490.904>
LayerCount: 2
Fore
SplineSet
55 203 m 0
 55 205 58 268 69 268 c 2
 494 268 l 2
 496 268 500 267 500 259 c 0
 500 241 492 205 491 201 c 0
 489 195 484 194 484 194 c 1
 61 194 l 1
 61 194 55 193 55 203 c 0
EndSplineSet
Validated: 1
EndChar

StartChar: emdash
Encoding: 8212 8212 201
Width: 938
Flags: W
HStem: 194 74<59.4735 875.904>
LayerCount: 2
Fore
SplineSet
55 203 m 0
 55 205 58 268 69 268 c 2
 879 268 l 2
 881 268 885 267 885 259 c 0
 885 241 877 205 876 201 c 0
 874 195 869 194 869 194 c 1
 61 194 l 1
 61 194 55 193 55 203 c 0
EndSplineSet
Validated: 1
EndChar

StartChar: afii00208
Encoding: 8213 8213 202
Width: 1082
Flags: W
HStem: 194 74<33.4735 1043.9>
LayerCount: 2
Fore
SplineSet
29 203 m 0
 29 205 32 268 43 268 c 2
 1047 268 l 2
 1049 268 1053 267 1053 259 c 0
 1053 241 1045 205 1044 201 c 0
 1042 195 1037 194 1037 194 c 1
 35 194 l 1
 35 194 29 193 29 203 c 0
EndSplineSet
Validated: 1
EndChar

StartChar: quoteleft
Encoding: 8216 8216 203
Width: 182
Flags: W
HStem: 474 232<89 147>
VStem: 37 71<540 628.636>
LayerCount: 2
Fore
SplineSet
37 555 m 4
 37 649 138 706 147 706 c 4
 155 706 164 699 168 688 c 5
 108 652 108 623 108 614 c 4
 108 588 118 572 128 560 c 4
 139 547 150 538 150 524 c 4
 150 500 121 474 89 474 c 4
 82 474 61 478 52 485 c 5
 43 498 37 525 37 555 c 4
EndSplineSet
Validated: 1
EndChar

StartChar: quoteright
Encoding: 8217 8217 204
Width: 190
Flags: W
HStem: 474 232<55 113>
VStem: 94 71<551.364 640>
LayerCount: 2
Fore
SplineSet
165 625 m 4
 165 531 64 474 55 474 c 4
 47 474 38 481 34 492 c 5
 94 528 94 557 94 566 c 4
 94 592 84 608 74 620 c 4
 63 633 52 642 52 656 c 4
 52 680 81 706 113 706 c 4
 120 706 141 702 150 695 c 5
 159 682 165 655 165 625 c 4
EndSplineSet
Validated: 1
EndChar

StartChar: quotesinglbase
Encoding: 8218 8218 205
Width: 195
Flags: W
HStem: -107 232<41 99>
VStem: 80 71<-29.6363 59>
LayerCount: 2
Fore
SplineSet
151 44 m 4
 151 -50 50 -107 41 -107 c 4
 33 -107 24 -100 20 -89 c 5
 80 -53 80 -24 80 -15 c 4
 80 11 69 27 59 39 c 4
 48 52 38 61 38 75 c 4
 38 99 67 125 99 125 c 4
 106 125 127 121 136 114 c 5
 145 101 151 74 151 44 c 4
EndSplineSet
Validated: 1
EndChar

StartChar: quotedblleft
Encoding: 8220 8220 206
Width: 330
Flags: W
HStem: 474 232<89 147 237 295>
VStem: 37 71<540 628.636> 185 71<540 628.636>
LayerCount: 2
Fore
SplineSet
185 555 m 4
 185 649 286 706 295 706 c 4
 303 706 312 699 316 688 c 5
 256 652 256 623 256 614 c 4
 256 588 266 572 276 560 c 4
 287 547 298 538 298 524 c 4
 298 500 269 474 237 474 c 4
 230 474 209 478 200 485 c 5
 191 498 185 525 185 555 c 4
37 555 m 4
 37 649 138 706 147 706 c 4
 155 706 164 699 168 688 c 5
 108 652 108 623 108 614 c 4
 108 588 118 572 128 560 c 4
 139 547 150 538 150 524 c 4
 150 500 121 474 89 474 c 4
 82 474 61 478 52 485 c 5
 43 498 37 525 37 555 c 4
EndSplineSet
Validated: 1
EndChar

StartChar: quotedblright
Encoding: 8221 8221 207
Width: 338
Flags: W
HStem: 474 232<55 113 203 261>
VStem: 94 71<551.364 640> 242 71<551.364 640>
LayerCount: 2
Fore
SplineSet
165 625 m 4
 165 531 64 474 55 474 c 4
 47 474 38 481 34 492 c 5
 94 528 94 557 94 566 c 4
 94 592 84 608 74 620 c 4
 63 633 52 642 52 656 c 4
 52 680 81 706 113 706 c 4
 120 706 141 702 150 695 c 5
 159 682 165 655 165 625 c 4
313 625 m 4
 313 531 212 474 203 474 c 4
 195 474 186 481 182 492 c 5
 242 528 242 557 242 566 c 4
 242 592 232 608 222 620 c 4
 211 633 200 642 200 656 c 4
 200 680 229 706 261 706 c 4
 268 706 289 702 298 695 c 5
 307 682 313 655 313 625 c 4
EndSplineSet
Validated: 1
EndChar

StartChar: quotedblbase
Encoding: 8222 8222 208
Width: 345
Flags: W
HStem: -108 232<42 100 190 248>
VStem: 81 71<-30.6363 58> 229 71<-30.6363 58>
LayerCount: 2
Fore
SplineSet
152 43 m 0
 152 -51 51 -108 42 -108 c 0
 34 -108 25 -101 21 -90 c 1
 81 -54 81 -25 81 -16 c 0
 81 10 70 26 60 38 c 0
 49 51 39 60 39 74 c 0
 39 98 68 124 100 124 c 0
 107 124 128 120 137 113 c 1
 146 100 152 73 152 43 c 0
300 43 m 0
 300 -51 199 -108 190 -108 c 0
 182 -108 173 -101 169 -90 c 1
 229 -54 229 -25 229 -16 c 0
 229 10 218 26 208 38 c 0
 197 51 187 60 187 74 c 0
 187 98 216 124 248 124 c 0
 255 124 276 120 285 113 c 1
 294 100 300 73 300 43 c 0
EndSplineSet
Validated: 1
EndChar

StartChar: dagger
Encoding: 8224 8224 209
Width: 395
Flags: W
HStem: 432 91<40.0071 100.854 294.146 354.993> 463 25<102.43 173.267 221.115 292.57> 642 20G<186.5 208.5>
VStem: 151 92<570.25 655.83> 179 36<398.363 460.621 489.188 608.061> 188 19<-23.8143 85.1921>
LayerCount: 2
Fore
SplineSet
152 488 m 8x68
 165 488 171 492 181 505 c 1
 181 538 170 606 151 625 c 1
 151 646 175 662 198 662 c 0
 219 662 243 646 243 625 c 1
 224 606 213 538 213 505 c 1
 223 492 230 488 243 488 c 0x70
 276 488 305 504 324 523 c 1
 345 523 362 497 362 476 c 0
 362 455 345 432 324 432 c 1xb0
 305 451 277 462 243 463 c 24x70
 228 463 215 447 215 435 c 1x68
 222 418 236 394 248 365 c 1
 226 227 227 185 207 -10 c 1
 204 -17 203 -23 198 -24 c 1
 193 -23 191 -15 188 -10 c 1x64
 168 185 168 227 146 365 c 1
 157 390 172 418 179 435 c 1
 179 447 167 463 152 463 c 24x68
 118 462 90 451 71 432 c 1
 50 432 33 455 33 476 c 0
 33 497 50 523 71 523 c 1xa8
 90 504 119 488 152 488 c 8x68
EndSplineSet
Validated: 1
EndChar

StartChar: daggerdbl
Encoding: 8225 8225 210
Width: 411
Flags: W
HStem: 115 91<48.0071 108.854 302.146 362.993> 150 25<110.43 181.267 229.115 300.57> 432 91<48.0071 108.854 302.146 362.993> 463 25<110.43 181.267 229.115 300.57>
VStem: 159 92<-17.8301 67.75 570.25 655.83> 182 46<13.9262 149.997 175.012 259.78 278.858 358.265 378.22 462.988 488.003 624.074>
LayerCount: 2
Fore
SplineSet
256 365 m 1x44
 244 394 230 418 223 435 c 1
 223 447 236 463 251 463 c 24x58
 285 462 313 451 332 432 c 1
 353 432 370 455 370 476 c 0
 370 497 353 523 332 523 c 1x28
 313 504 284 488 251 488 c 0
 238 488 231 492 221 505 c 1
 221 538 232 606 251 625 c 1
 251 646 227 662 206 662 c 0
 183 662 159 646 159 625 c 1
 178 606 189 538 189 505 c 1
 179 492 173 488 160 488 c 16x18
 127 488 98 504 79 523 c 1
 58 523 41 497 41 476 c 0
 41 455 58 432 79 432 c 1x28
 98 451 126 462 160 463 c 24
 175 463 187 447 187 435 c 1
 180 418 165 390 154 365 c 1
 161 358 182 329 182 320 c 1
 182 312 168 285 154 273 c 1
 165 248 180 220 187 203 c 1
 187 191 175 175 160 175 c 24x54
 126 176 98 187 79 206 c 1
 58 206 41 183 41 162 c 0
 41 141 58 115 79 115 c 1x84
 98 134 127 150 160 150 c 8
 173 150 179 146 189 133 c 1
 189 100 178 32 159 13 c 1
 159 -8 183 -24 206 -24 c 0
 227 -24 251 -8 251 13 c 1
 232 32 221 100 221 133 c 1
 231 146 238 150 251 150 c 0x48
 284 150 313 134 332 115 c 1
 353 115 370 141 370 162 c 0
 370 183 353 206 332 206 c 1x88
 313 187 285 176 251 175 c 24x48
 236 175 223 191 223 203 c 1
 230 220 244 244 256 273 c 1
 242 285 228 312 228 320 c 1
 228 328 249 358 256 365 c 1x44
EndSplineSet
Validated: 9
EndChar

StartChar: bullet
Encoding: 8226 8226 211
Width: 347
Flags: W
HStem: 123 281<98.683 249.022>
VStem: 34 279<187.683 338.612>
LayerCount: 2
Fore
SplineSet
34 263 m 0
 34 340 97 404 174 404 c 0
 251 404 313 340 313 263 c 0
 313 186 251 123 174 123 c 0
 97 123 34 186 34 263 c 0
EndSplineSet
Validated: 1
EndChar

StartChar: onedotenleader
Encoding: 8228 8228 212
Width: 727
Flags: W
HStem: -11 150<311.25 415.969>
VStem: 289 150<12.2802 116>
LayerCount: 2
Fore
SplineSet
439 63 m 0
 439 23 406 -11 365 -11 c 27
 323 -11 289 23 289 66 c 0
 289 106 323 139 364 139 c 27
 406 139 439 103 439 63 c 0
EndSplineSet
Validated: 1
EndChar

StartChar: ellipsis
Encoding: 8230 8230 213
Width: 784
Flags: W
HStem: -11 150<61.25 165.969 339.25 443.969 617.25 721.969>
VStem: 39 150<12.2802 116> 317 150<12.2802 116> 595 150<12.2802 116>
CounterMasks: 1 70
LayerCount: 2
Fore
SplineSet
745 63 m 0
 745 23 712 -11 671 -11 c 27
 629 -11 595 23 595 66 c 0
 595 106 629 139 670 139 c 27
 712 139 745 103 745 63 c 0
467 63 m 0
 467 23 434 -11 393 -11 c 27
 351 -11 317 23 317 66 c 0
 317 106 351 139 392 139 c 27
 434 139 467 103 467 63 c 0
189 63 m 0
 189 23 156 -11 115 -11 c 27
 73 -11 39 23 39 66 c 0
 39 106 73 139 114 139 c 27
 156 139 189 103 189 63 c 0
EndSplineSet
Validated: 1
LCarets2: 2 0 0 
EndChar

StartChar: perthousand
Encoding: 8240 8240 214
Width: 1023
Flags: W
HStem: 0 31<471.28 536.815 810.28 875.815> 274 30<455.791 521.192 794.791 860.192> 337 31<174.28 239.815> 611 30<158.791 224.192>
VStem: 43 95<408.108 565.734> 261 95<412.743 570.7> 340 95<71.1076 228.734> 558 95<75.7433 233.7> 679 95<71.1076 228.734> 897 95<75.7433 233.7>
LayerCount: 2
Fore
SplineSet
827 274 m 3xf9c0
 778 274 774 211 774 163 c 24
 774 105 794 31 843 31 c 3
 892 31 897 93 897 140 c 24
 897 199 876 274 827 274 c 3xf9c0
835 304 m 0
 927 304 992 240 992 155 c 0
 992 71 924 0 836 0 c 0
 743 0 679 66 679 150 c 0
 679 234 747 304 835 304 c 0
627 635 m 1
 111 -5 l 2
 107 -11 87 -20 70 -20 c 0
 55 -20 55 -8 55 -8 c 1
 571 632 l 1
 579 639 594 645 611 645 c 0
 620 645 627 640 627 635 c 1
488 274 m 3
 439 274 435 211 435 163 c 24xfbc0
 435 105 455 31 504 31 c 3
 553 31 558 93 558 140 c 24
 558 199 537 274 488 274 c 3
496 304 m 0
 588 304 653 240 653 155 c 0
 653 71 585 0 497 0 c 0
 404 0 340 66 340 150 c 0
 340 234 408 304 496 304 c 0
191 611 m 3
 142 611 138 548 138 500 c 24
 138 442 158 368 207 368 c 3
 256 368 261 430 261 477 c 24xfdc0
 261 536 240 611 191 611 c 3
199 641 m 0
 291 641 356 577 356 492 c 0
 356 408 288 337 200 337 c 0
 107 337 43 403 43 487 c 0
 43 571 111 641 199 641 c 0
EndSplineSet
Validated: 1
EndChar

StartChar: minute
Encoding: 8242 8242 215
Width: 154
Flags: W
HStem: 484 215<53.5703 66.9338>
VStem: 33 104
LayerCount: 2
Fore
SplineSet
92 699 m 0
 112 699 137 687 137 667 c 0
 137 620 85 528 59 494 c 0
 55 489 49 484 45 484 c 0
 39 484 33 489 33 496 c 0
 33 499 40 612 48 666 c 0
 50 678 73 699 92 699 c 0
EndSplineSet
Validated: 1
EndChar

StartChar: second
Encoding: 8243 8243 216
Width: 301
Flags: W
HStem: 484 215<53.5703 66.9091 188.57 201.909>
VStem: 33 238
LayerCount: 2
Fore
SplineSet
227 699 m 0
 247 699 271 687 271 667 c 0
 271 620 220 528 194 494 c 0
 190 489 184 484 180 484 c 0
 174 484 168 489 168 496 c 0
 168 499 175 612 183 666 c 0
 185 678 208 699 227 699 c 0
92 699 m 0
 112 699 136 687 136 667 c 0
 136 620 85 528 59 494 c 0
 55 489 49 484 45 484 c 0
 39 484 33 489 33 496 c 0
 33 499 40 612 48 666 c 0
 50 678 73 699 92 699 c 0
EndSplineSet
Validated: 1
EndChar

StartChar: uni2038
Encoding: 8248 8248 217
Width: 401
Flags: W
LayerCount: 2
Fore
SplineSet
206 125 m 0
 201 125 195 123 192 120 c 1
 121 18 52 -40 49 -44 c 1
 50 -49 57 -63 66 -66 c 1
 72 -63 173 10 206 39 c 1
 239 10 340 -63 346 -66 c 1
 355 -63 362 -49 363 -44 c 1
 360 -40 291 18 220 120 c 1
 217 123 211 125 206 125 c 0
EndSplineSet
Validated: 9
EndChar

StartChar: guilsinglleft
Encoding: 8249 8249 218
Width: 311
Flags: W
LayerCount: 2
Fore
SplineSet
25 248 m 4
 25 243 28 237 32 233 c 5
 163 154 237 77 242 73 c 5
 248 74 265 82 269 92 c 5
 265 98 172 212 135 248 c 5
 172 284 265 398 269 404 c 5
 265 414 248 422 242 423 c 5
 237 419 163 342 32 263 c 5
 28 259 25 253 25 248 c 4
EndSplineSet
Validated: 9
EndChar

StartChar: guilsinglright
Encoding: 8250 8250 219
Width: 311
Flags: W
VStem: 42 244
LayerCount: 2
Fore
SplineSet
286 248 m 4
 286 243 283 237 279 233 c 5
 148 154 74 77 69 73 c 5
 63 74 46 82 42 92 c 5
 46 98 139 212 176 248 c 5
 139 284 46 398 42 404 c 5
 46 414 63 422 69 423 c 5
 74 419 148 342 279 263 c 5
 283 259 286 253 286 248 c 4
EndSplineSet
Validated: 1
EndChar

StartChar: uni203E
Encoding: 8254 8254 220
Width: 563
Flags: W
HStem: 734 72<-11.7805 577.903>
LayerCount: 2
Fore
SplineSet
-16 744 m 4
 -16 746 -13 806 -2 806 c 6
 580 806 l 6
 582 806 586 805 586 797 c 4
 586 779 579 745 578 741 c 4
 576 735 570 734 570 734 c 5
 -10 734 l 5
 -10 734 -16 734 -16 744 c 4
EndSplineSet
Validated: 1
EndChar

StartChar: Euro
Encoding: 8364 8364 221
Width: 709
Flags: W
HStem: -7 42<357.59 533.069> 252 42<47.4514 425.316> 358 42<47.4514 425.316> 601 41<337.126 518.074>
VStem: 75.2539 149<201.53 354.768> 632.254 34<155.6 189.924>
LayerCount: 2
Fore
SplineSet
56.2539 294 m 1
 72.2539 294 418.254 294 429.254 294 c 1
 443.254 283 425.254 256 419.254 252 c 1
 36.2539 252 l 17
 30.2539 258 47.2539 294 56.2539 294 c 1
56.2539 400 m 1
 72.2539 400 418.254 400 429.254 400 c 1
 443.254 389 425.254 362 419.254 358 c 1
 36.2539 358 l 17
 30.2539 364 47.2539 400 56.2539 400 c 1
666.254 185 m 1
 666.254 174 641.254 44 626.254 38 c 0
 564.254 16 502.254 -7 411.254 -7 c 0
 226.254 -7 75.2539 135 75.2539 310 c 0
 75.2539 490 226.254 642 413.254 642 c 0
 478.254 642 560.254 636 618.254 624 c 1
 620.254 613 651.254 490 651.254 478 c 0
 651.254 472 637.254 464 625.254 464 c 3
 620.254 464 616.254 464 612.254 468 c 1
 602.254 506 561.254 601 422.254 601 c 0
 283.254 601 224.254 474 224.254 339 c 0
 224.254 189 292.254 35 441.254 35 c 0
 500.254 35 536.254 53 563.254 77 c 0
 604.254 114 630.254 188 632.254 196 c 1
 647.254 196 658.254 192 666.254 185 c 1
EndSplineSet
Validated: 37
EndChar

StartChar: arrowleft
Encoding: 8592 8592 222
Width: 771
Flags: W
HStem: 210 74<165 732.904>
LayerCount: 2
Fore
SplineSet
275 397 m 0
 275 389 255 370 201 318 c 0
 165 284 l 1
 734 284 l 1
 734 284 741 284 741 274 c 0
 741 256 734 221 733 217 c 0
 731 211 726 210 726 210 c 1
 164 210 l 1
 200 176 l 0
 254 124 274 105 274 97 c 0
 274 85 245 73 239 72 c 1
 238 74 180 131 33 226 c 1
 28 228 26 234 26 240 c 0
 26 250 27 259 34 267 c 1
 165 346 235 418 240 422 c 1
 246 421 275 409 275 397 c 0
EndSplineSet
Validated: 1
EndChar

StartChar: arrowup
Encoding: 8593 8593 223
Width: 393
Flags: W
HStem: 0 21G<214 228>
VStem: 159 74<5.20054 576>
LayerCount: 2
Fore
SplineSet
233 576 m 1
 233 6 l 1
 233 6 233 0 223 0 c 0
 205 0 171 7 167 8 c 0
 161 10 159 14 159 14 c 1
 159 577 l 1
 126 540 l 0
 74 486 54 466 46 466 c 0
 34 466 23 496 22 502 c 1
 24 503 81 561 176 708 c 1
 178 713 184 714 190 714 c 0
 200 714 208 713 216 706 c 1
 295 575 368 505 372 500 c 1
 371 494 358 466 346 466 c 0
 338 466 320 486 268 540 c 0
 233 576 l 1
EndSplineSet
Validated: 1
EndChar

StartChar: arrowright
Encoding: 8594 8594 224
Width: 771
Flags: W
HStem: 210 74<37.0959 605>
LayerCount: 2
Fore
SplineSet
605 284 m 1
 569 318 l 0
 515 370 495 389 495 397 c 0
 495 409 524 421 530 422 c 1
 535 418 605 346 736 267 c 1
 743 259 744 250 744 240 c 0
 744 234 742 228 737 226 c 1
 590 131 532 74 531 72 c 1
 525 73 496 85 496 97 c 0
 496 105 516 124 570 176 c 0
 606 210 l 1
 44 210 l 1
 44 210 39 211 37 217 c 0
 36 221 29 256 29 274 c 0
 29 284 36 284 36 284 c 1
 605 284 l 1
EndSplineSet
Validated: 1
EndChar

StartChar: arrowdown
Encoding: 8595 8595 225
Width: 396
Flags: W
HStem: 0 21G<200 208>
VStem: 162 74<138 708.799>
LayerCount: 2
Fore
SplineSet
162 138 m 1
 162 708 l 1
 162 708 162 714 172 714 c 0
 190 714 224 707 228 706 c 0
 234 704 236 700 236 700 c 1
 236 137 l 1
 269 174 l 0
 321 228 341 248 349 248 c 0
 361 248 372 218 373 212 c 1
 371 211 314 153 219 6 c 1
 217 1 211 0 205 0 c 0
 195 0 187 1 179 8 c 1
 100 139 27 209 23 214 c 1
 24 220 37 248 49 248 c 0
 57 248 75 228 127 174 c 0
 162 138 l 1
EndSplineSet
Validated: 1
EndChar

StartChar: partialdiff
Encoding: 8706 8706 227
Width: 496
Flags: W
HStem: 0 55<198.654 283.082> 317 53<188.164 288.188> 584 58<139.36 255.437>
VStem: 41 125<91.9379 272.861> 312 135<152.6 371.71>
LayerCount: 2
Fore
SplineSet
312 219 m 1
 312 303 264 317 226 317 c 0
 187 317 166 270 166 209 c 0
 166 91 203 55 245 55 c 0
 302 55 312 145 312 219 c 1
217 0 m 0
 119 0 41 60 41 194 c 0
 41 294 136 370 242 370 c 0
 264 370 282 369 305 361 c 0
 310 359 315 364 316 369 c 0
 320 399 314 502 278 542 c 0
 248 575 218 584 188 584 c 3
 146 584 101 552 75 534 c 1
 70 538 61 564 73 576 c 0
 103 606 169 642 231 642 c 3
 411 642 447 408 447 282 c 3
 447 82 321 0 217 0 c 0
EndSplineSet
Validated: 33
EndChar

StartChar: uni2206
Encoding: 8710 8710 228
Width: 674
Flags: W
HStem: 0 76<120.911 493>
LayerCount: 2
Fore
SplineSet
496 83 m 6
 316 443 l 5
 312 446 307 447 304 441 c 6
 121 87 l 5
 119 80 124 76 129 76 c 6
 493 76 l 6
 497 76 498 79 496 83 c 6
350 613 m 5
 652 14 l 5
 652 14 646 8 644 0 c 5
 33 0 l 5
 29 6 28 9 24 16 c 5
 333 613 l 5
 350 613 l 5
EndSplineSet
Validated: 1
EndChar

StartChar: gradient
Encoding: 8711 8711 229
Width: 673
Flags: W
HStem: 566 76<182 554.089>
LayerCount: 2
Fore
SplineSet
179 559 m 2
 359 199 l 1
 363 196 368 195 371 201 c 2
 554 555 l 1
 556 562 551 566 546 566 c 2
 182 566 l 2
 178 566 177 563 179 559 c 2
325 29 m 1
 23 628 l 1
 23 628 29 634 31 642 c 1
 642 642 l 1
 646 636 647 633 651 626 c 1
 342 29 l 1
 325 29 l 1
EndSplineSet
Validated: 1
EndChar

StartChar: element
Encoding: 8712 8712 230
Width: 454
Flags: W
HStem: 11 60<156.888 424.914> 189 61<102.004 380> 370 60<153.702 425.161>
VStem: 28 74<174.075 313.639>
LayerCount: 2
Fore
SplineSet
388 220 m 0
 388 193 380 189 379 189 c 2
 107 189 l 2
 106 189 101 188 102 185 c 0
 114 122 157 71 224 71 c 2
 412 71 l 2
 412 71 427 64 427 29 c 0
 427 20 420 11 420 11 c 1
 226 11 l 2
 114 11 28 109 28 221 c 0
 28 330 107 430 216 430 c 2
 420 430 l 1
 420 430 427 421 427 409 c 0
 427 378 412 370 412 370 c 1
 216 370 l 2
 153 370 113 317 102 255 c 0
 102 252 104 250 107 250 c 2
 380 250 l 1
 380 249 388 237 388 220 c 0
EndSplineSet
Validated: 1
EndChar

StartChar: notelement
Encoding: 8713 8713 231
Width: 453
Flags: W
HStem: -10 21G<114.5 118> 11 60<176.668 424.914> 189 61<102.004 174 271 380> 370 60<153.702 276 372 425.161>
VStem: 28 74<174.26 313.639>
LayerCount: 2
Fore
SplineSet
388 220 m 0xb8
 388 193 380 189 379 189 c 2
 236 189 l 1
 176 81 l 1
 190 75 206 71 224 71 c 2
 412 71 l 1
 412 71 427 64 427 29 c 0
 427 20 420 11 420 11 c 1
 226 11 l 2x78
 197 11 170 18 146 29 c 1
 126 -8 l 1
 123 -10 120 -10 116 -10 c 0
 113 -10 96 -6 83 10 c 0
 79 14 78 17 78 17 c 1
 101 58 l 1
 56 97 28 157 28 221 c 0
 28 330 107 430 216 430 c 2
 310 430 l 1
 340 484 l 1
 340 484 345 487 349 487 c 0
 361 487 372 479 380 470 c 0
 385 465 388 459 388 459 c 1
 372 430 l 1
 420 430 l 1
 420 430 427 421 427 409 c 0
 427 378 412 370 412 370 c 1
 338 370 l 1
 271 250 l 1
 380 250 l 1
 380 249 388 237 388 220 c 0xb8
209 250 m 1
 276 370 l 1
 216 370 l 2
 153 370 113 317 102 255 c 0
 102 252 104 250 107 250 c 2
 209 250 l 1
133 115 m 1
 174 189 l 1
 107 189 l 2
 106 189 101 188 102 185 c 0
 107 159 118 134 133 115 c 1
EndSplineSet
Validated: 1
EndChar

StartChar: summation
Encoding: 8721 8721 232
Width: 624
Flags: W
HStem: 0 21G<489.5 547.5> 2 29<33.0357 66.2613> 608 48<245.114 444.277> 627 29<33.0058 67.2492>
LayerCount: 2
Fore
SplineSet
544 0 m 1xa0
 435 0 246 2 155 2 c 0
 88 2 37 -3 37 -3 c 1
 35 -1 33 7 33 15 c 0
 33 23 35 31 37 31 c 0
 48 31 81 53 90 65 c 2
 273 306 l 2
 277 311 276 318 273 322 c 0
 260 342 166 490 89 592 c 0
 76 609 49 627 37 627 c 0
 35 627 33 634 33 641 c 0
 33 648 35 656 37 658 c 1
 37 658 86 656 153 656 c 0x50
 246 656 405 662 514 662 c 1
 521 612 536 556 545 511 c 1
 542 508 529 506 522 506 c 0
 515 506 510 508 508 513 c 0
 483 563 434 608 368 608 c 27
 346 608 340 608 312 608 c 0
 277 608 247 603 245 595 c 1
 410 360 l 1
 412 354 414 347 414 341 c 0
 414 336 412 332 409 329 c 0
 324 227 203 84 203 71 c 0
 203 64 206 60 274 60 c 0
 308 60 311 60 338 60 c 0
 390 60 452 65 481 80 c 0
 500 90 529 125 546 170 c 0
 547 174 553 176 560 176 c 0
 570 176 587 173 590 170 c 1
 571 116 551 44 544 0 c 1xa0
EndSplineSet
Validated: 1
EndChar

StartChar: minus
Encoding: 8722 8722 233
Width: 604
Flags: W
HStem: 209 74<67.9086 531.904>
LayerCount: 2
Fore
SplineSet
63 219 m 1
 63 219 67 283 77 283 c 2
 534 283 l 2
 537 283 541 283 541 276 c 0
 541 268 537 232 532 215 c 0
 530 209 525 209 525 209 c 1
 69 209 l 1
 69 209 63 209 63 219 c 1
EndSplineSet
Validated: 1
EndChar

StartChar: uni2213
Encoding: 8723 8723 234
Width: 533
Flags: W
HStem: 213 72<35.0959 229.999 302.001 495.904> 518 72<36.0959 490.652>
VStem: 230 72<17.3688 212.998 285 479.904>
LayerCount: 2
Fore
SplineSet
302 210 m 2
 302 26 l 1
 302 26 287 16 242 10 c 0
 239 10 238 10 236 10 c 0
 230 10 230 13 230 17 c 2
 230 208 l 2
 230 210 229 213 224 213 c 2
 33 213 l 1
 33 213 27 213 27 223 c 0
 27 227 28 256 35 280 c 0
 37 286 42 285 42 285 c 1
 225 285 l 2
 228 285 230 289 230 291 c 2
 230 473 l 1
 230 473 229 478 235 480 c 0
 259 487 288 488 292 488 c 0
 302 488 302 482 302 482 c 1
 302 290 l 2
 302 287 303 285 306 285 c 2
 498 285 l 2
 502 285 506 285 506 278 c 0
 506 269 502 241 496 219 c 0
 494 213 489 213 489 213 c 1
 306 213 l 2
 303 213 302 212 302 210 c 2
490 590 m 1
 490 590 500 591 498 579 c 0
 491 531 485 521 482 518 c 1
 34 518 l 1
 34 518 26 517 28 531 c 0
 30 545 30 565 36 585 c 0
 38 591 43 590 43 590 c 1
 490 590 l 1
EndSplineSet
Validated: 1
EndChar

StartChar: radical
Encoding: 8730 8730 235
Width: 520
Flags: W
LayerCount: 2
Fore
SplineSet
10 150 m 1
 -3 157 -16 174 -16 185 c 0
 -16 198 -3 205 7 212 c 0
 40 235 142 312 156 324 c 0
 164 331 181 332 184 324 c 1
 194 292 196 280 207 254 c 2
 296 47 l 1
 304 90 444 791 444 791 c 1
 502 784 l 1
 502 784 341 -25 316 -153 c 1
 301 -171 273 -180 267 -180 c 0
 263 -180 259 -179 257 -175 c 2
 90 196 l 1
 10 150 l 1
EndSplineSet
Validated: 1
EndChar

StartChar: proportional
Encoding: 8733 8733 236
Width: 671
Flags: W
HStem: 37 73<162.536 283.964 573.688 633.984> 352 74<159.601 270.595 564.495 639.94>
VStem: 28 89<156.972 306.236>
LayerCount: 2
Back
SplineSet
108 229 m 4
 108 159 157 97 227 97 c 4
 293 97 345 172 388 218 c 4
 389 219 389 219 388 220 c 4
 355 259 290 362 220 362 c 4
 152 362 108 297 108 229 c 4
623 43 m 5
 492 43 424 180 413 180 c 6
 412 180 l 5
 359 117 299 41 200 41 c 4
 105 41 38 128 38 223 c 4
 38 332 123 422 232 422 c 4
 329 422 400 334 441 286 c 4
 442 284 446 283 447 285 c 4
 485 332 543 404 624 419 c 5
 626 419 l 6
 632 419 634 412 634 403 c 4
 634 388 628 367 628 367 c 5
 567 367 506 286 471 246 c 4
 470 245 469 244 470 243 c 4
 516 185 573 100 642 100 c 4
 648 100 650 96 650 91 c 4
 650 76 632 46 623 43 c 5
EndSplineSet
Fore
SplineSet
632 112 m 1
 641 112 643 101 643 90 c 3
 643 69 629 49 620 42 c 1
 489 42 418 162 407 162 c 2
 406 162 l 1
 353 99 292 37 194 37 c 0
 99 37 28 128 28 223 c 0
 28 332 118 426 227 426 c 0
 324 426 395 349 436 301 c 0
 437 299 441 298 442 300 c 0
 484 353 549 427 627 427 c 0
 634 427 645 396 645 373 c 0
 645 366 643 352 638 352 c 0
 634 352 628 352 621 352 c 0
 554 352 478 241 479 240 c 0
 501 210 556 112 632 112 c 1
117 229 m 0
 117 159 169 110 222 110 c 0
 288 110 341 187 365 218 c 0
 366 220 291 352 215 352 c 0
 161 352 117 297 117 229 c 0
EndSplineSet
Validated: 33
EndChar

StartChar: infinity
Encoding: 8734 8734 237
Width: 888
Flags: W
HStem: 39 74<179.438 307.022 599.825 710.791> 352 74<179.601 291.127 579.751 708.691>
VStem: 48 89<156.972 306.236> 751 89<157.867 306.308>
LayerCount: 2
Fore
SplineSet
642 357 m 0
 581 357 518 268 502 246 c 0
 501 245 501 245 502 244 c 0
 524 214 588 113 657 113 c 0
 708 113 751 166 751 233 c 0
 751 304 698 357 642 357 c 0
137 229 m 0
 137 159 189 110 242 110 c 0
 308 110 361 187 385 218 c 0
 386 219 386 219 385 220 c 0
 369 244 305 352 235 352 c 0
 181 352 137 297 137 229 c 0
247 426 m 0
 344 426 415 349 456 301 c 0
 457 299 461 298 462 300 c 0
 504 353 572 426 669 426 c 0
 764 426 840 337 840 242 c 0
 840 132 747 39 637 39 c 0
 506 39 438 162 427 162 c 2
 426 162 l 1
 373 99 312 37 214 37 c 0
 119 37 48 128 48 223 c 0
 48 332 138 426 247 426 c 0
EndSplineSet
Validated: 1
EndChar

StartChar: notequal
Encoding: 8800 8800 238
Width: 565
Flags: W
HStem: 109 72<58.0959 194 296 506.905> 251 72<54.2498 273 376 506.905>
LayerCount: 2
Fore
SplineSet
376 323 m 5
 513 323 l 2
 515 323 517 322 517 318 c 0
 517 309 513 279 507 257 c 0
 505 251 501 251 501 251 c 1
 335 251 l 1
 296 181 l 1
 509 181 l 2
 513 181 517 183 517 176 c 0
 517 167 513 137 507 115 c 0
 505 109 501 109 501 109 c 1
 256 109 l 1
 204 16 l 1
 201 14 198 14 194 14 c 0
 191 14 174 18 161 34 c 0
 157 38 156 41 156 41 c 1
 194 109 l 1
 56 109 l 1
 56 109 49 109 49 119 c 0
 49 123 51 152 58 176 c 0
 60 182 65 181 65 181 c 1
 234 181 l 1
 273 251 l 1
 56 251 l 1
 56 251 49 251 49 261 c 1
 49 261 52 303 59 318 c 0
 60 321 62 323 64 323 c 2
 314 323 l 1
 368 420 l 1
 368 420 373 423 377 423 c 0
 389 423 400 415 408 406 c 0
 413 401 416 395 416 395 c 1
 376 323 l 5
EndSplineSet
Validated: 1
EndChar

StartChar: lessequal
Encoding: 8804 8804 239
Width: 511
Flags: W
HStem: 6 56<43.0959 433.982>
LayerCount: 2
Fore
SplineSet
431 62 m 1
 431 62 440 63 438 51 c 0
 431 3 426 9 423 6 c 1
 41 6 l 1
 41 6 32 5 34 19 c 0
 36 33 37 37 43 57 c 0
 45 63 50 62 50 62 c 1
 431 62 l 1
446 136 m 0
 446 129 436 86 430 86 c 0
 429 86 427 87 425 88 c 2
 50 279 l 2
 35 287 32 301 32 318 c 0
 32 329 40 337 50 342 c 2
 419 529 l 2
 421 530 423 531 424 531 c 0
 427 531 434 521 441 484 c 0
 442 478 438 475 438 475 c 1
 112 310 l 1
 443 142 l 1
 443 142 446 141 446 136 c 0
EndSplineSet
Validated: 1
EndChar

StartChar: greaterequal
Encoding: 8805 8805 240
Width: 511
Flags: W
HStem: 6 56<72.6017 464.904>
LayerCount: 2
Fore
SplineSet
71 483 m 0
 71 501 83 531 87 531 c 0
 88 531 90 530 92 529 c 2
 462 342 l 2
 472 337 479 329 479 318 c 0
 479 301 477 287 462 279 c 2
 87 88 l 2
 82 86 81 82 76 95 c 0
 70 110 65 132 65 136 c 0
 65 140 68 142 68 142 c 1
 399 310 l 1
 74 475 l 1
 74 475 71 476 71 483 c 0
69 15 m 0
 69 16 73 62 84 62 c 2
 467 62 l 2
 469 62 473 61 473 54 c 0
 473 46 470 29 465 13 c 0
 463 7 458 6 458 6 c 1
 76 6 l 1
 76 6 69 5 69 15 c 0
EndSplineSet
Validated: 1
EndChar

StartChar: propersubset
Encoding: 8834 8834 241
Width: 455
Flags: W
HStem: 11 60<157.232 424.914> 370 60<153.702 425.161>
VStem: 28 70<134.796 309.161>
LayerCount: 2
Fore
SplineSet
216 370 m 2
 153 370 98 309 98 220 c 3
 98 130 157 71 224 71 c 2
 412 71 l 2
 412 71 427 64 427 29 c 0
 427 20 420 11 420 11 c 1
 226 11 l 2
 114 11 28 109 28 221 c 0
 28 330 107 430 216 430 c 2
 420 430 l 1
 420 430 427 421 427 409 c 0
 427 378 412 370 412 370 c 1
 216 370 l 2
EndSplineSet
Validated: 1
EndChar

StartChar: dotlessi
Encoding: 305 305 242
Width: 308
Flags: W
HStem: -4 37<24.1063 90.3842 236.387 295.665> 362 31<24.4181 84.5732> 426 20G<203.386 225.886>
VStem: 98.3857 130<41.2661 351.93>
LayerCount: 2
Fore
SplineSet
228.386 309 m 2
 228.386 145 l 2
 228.386 108 228.386 71 236.386 51 c 0
 241.386 38 280.386 34 293.386 33 c 1
 298.386 26 297.386 2 293.386 -4 c 1
 254.386 0 205.386 3 163.386 3 c 0
 121.386 3 65.3857 0 26.3857 -4 c 1
 22.3857 2 21.3857 26 26.3857 33 c 1
 39.3857 34 85.3857 38 90.3857 51 c 0
 98.3857 71 98.3857 102 98.3857 145 c 2
 98.3857 260 l 2
 98.3857 270 97.3857 327 89.3857 342 c 0
 81.3857 357 33.3857 362 26.3857 362 c 1
 23.3857 364 22.3857 393 27.3857 393 c 1
 103.386 399 184.386 427 222.386 446 c 1
 229.386 444 239.386 432 239.386 429 c 1
 236.386 421 230.386 386 229.386 372 c 0
 228.386 350 228.386 315 228.386 309 c 2
EndSplineSet
Validated: 33
Substitution2: "'smcp' Lowercase to Small Capitals in Latin lookup 0 subtable" dotlessi.sc
EndChar

StartChar: uni0302
Encoding: 770 770 243
Width: 285
Flags: W
HStem: 493 168
VStem: 31 236
LayerCount: 2
Fore
SplineSet
258 493 m 0
 247 493 177 543 149 567 c 1
 121 543 51 493 40 493 c 0
 34 493 31 506 31 516 c 1
 38 523 55 540 97 594 c 0
 119 623 128 638 136 651 c 0
 140 658 143 661 149 661 c 27
 155 661 156 657 161 651 c 0
 172 636 180 622 198 599 c 0
 239 545 260 523 267 516 c 1
 267 506 264 493 258 493 c 0
EndSplineSet
Validated: 1
EndChar

StartChar: tildecomb
Encoding: 771 771 244
Width: 693
Flags: W
HStem: 519 63<244.808 334.487> 584 62<103.867 193.354> 615 20G<363 370.5>
VStem: 66 309
LayerCount: 2
Fore
SplineSet
156 646 m 0xd0
 186 646 207 630 229 615 c 0
 252 598 283 582 300 582 c 0
 344 582 359 630 367 635 c 1xb0
 374 635 375 628 375 623 c 0
 375 605 365 583 358 570 c 0
 338 538 312 519 283 519 c 0
 253 519 232 535 210 550 c 0
 187 567 161 584 139 584 c 0
 95 584 84 535 76 530 c 1
 69 530 66 540 66 545 c 0
 66 563 74 583 81 596 c 0
 101 628 127 646 156 646 c 0xd0
EndSplineSet
Validated: 1
EndChar

StartChar: AE.st01
Encoding: 63548 63548 245
Width: 1011
Flags: W
HStem: -4 36<27.013 90.5938 209.676 274.239 460.478 510.329> 2 52<669.598 868.746> 213 60<340.906 498.594> 304 55<643.172 791.425> 610 54<658.391 808.924> 610 46<616.436 752.978> 626 36<437.534 481.14>
VStem: 483 134<551.672 607.918> 807 37<365.954 427.85> 940 44<123.672 175.484>
LayerCount: 2
Fore
SplineSet
483 598 m 0xb1c0
 483 625 455 626 449 626 c 0
 440 626 437 643 437 650 c 0
 437 657 438 662 440 662 c 0xb3c0
 461 662 472 656 539 656 c 0x35c0
 632 656 769 664 878 664 c 1
 890 614 909 561 922 516 c 1
 919 513 907 511 900 511 c 0
 893 511 887 513 885 518 c 0
 855 568 789 610 736 610 c 2
 681 610 l 2
 640 610 618 609 617 597 c 0
 615 578 618 542 620 519 c 2
 635 365 l 2
 635 360 657 359 679 359 c 2
 732 359 l 2
 791 359 797 355 807 421 c 0
 808 426 815 428 822 428 c 0
 829 428 841 426 844 423 c 1
 863 234 l 1
 861 232 849 230 842 230 c 0
 835 230 828 233 826 238 c 0
 805 295 802 290 792 296 c 0
 780 303 751 304 713 304 c 0
 685 304 641 304 642 295 c 2
 657 141 l 2
 659 122 663 90 672 70 c 0
 677 58 700 54 742 54 c 2
 768 54 l 2
 806 54 849 65 877 80 c 0
 895 90 927 125 940 170 c 0
 941 174 947 176 954 176 c 0
 964 176 981 173 984 170 c 1
 970 116 950 42 947 -2 c 1
 838 -2 696 2 605 2 c 0x79c0
 548 2 465 -4 465 -4 c 1
 463 -2 461 5 460 13 c 0
 459 21 460 32 462 32 c 0
 474 32 511 44 514 55 c 1
 518 78 514 99 511 134 c 0
 508 170 506 178 502 207 c 0
 502 210 498 211 495 211 c 0
 458 213 428 213 403 213 c 0
 362 213 337 213 302 212 c 0
 299 212 295 209 293 207 c 1
 293 207 258 161 236 131 c 0
 218 105 204 89 194 71 c 0
 189 62 204 50 209 46 c 0
 223 35 264 30 272 30 c 0
 277 30 275 2 273 -4 c 1xb1c0
 233 -2 208 2 164 2 c 0x71c0
 118 2 77 -2 31 -4 c 1
 29 -2 27 5 27 11 c 0
 27 17 27 29 29 29 c 0
 41 29 89 39 111 67 c 0
 129 91 142 109 160 134 c 0
 423 494 l 2
 462 547 483 589 483 598 c 0xb1c0
500 280 m 0
 500 280 489 398 482 474 c 25
 427 397 334 276 340 276 c 0
 359 276 399 273 422 273 c 0
 453 273 463 273 495 275 c 0
 497 275 500 277 500 280 c 0
EndSplineSet
Validated: 33
EndChar

StartChar: f_f
Encoding: 61696 61696 246
Width: 661
Flags: W
HStem: -4 37<19.1865 79.1277 237.869 296.748 329.187 389.128 547.869 606.747> 370 60<38.375 93.75 223.75 403.75 533.75 649.981> 620 62<261.749 376.779> 634 62<573.853 652.395>
VStem: 93.75 130<46.8035 369.997 430.002 538.141> 403.75 130<46.8035 369.997 430.055 527.766> 412.75 120<430.055 580.137>
LayerCount: 2
Fore
SplineSet
403.75 134 m 6xdc
 403.75 134 403.75 274 403.75 363 c 0
 403.75 366 401.75 370 398.75 370 c 2
 229.75 370 l 2
 226.75 370 223.75 367 223.75 364 c 0
 223.75 274 223.75 149 223.75 149 c 6
 223.75 115 223.75 85 230.75 58 c 4
 233.75 47 285.75 33 293.75 33 c 4
 298.75 33 297.75 2 295.75 -4 c 5
 254.75 -2 197.75 4 158.75 4 c 4
 116.75 4 63.75 -2 21.75 -4 c 5
 16.75 1 16.75 33 21.75 33 c 4
 33.75 33 83.75 47 86.75 58 c 4
 92.75 84 93.75 127 93.75 134 c 6
 93.75 134 93.75 274 93.75 363 c 0
 93.75 366 91.75 370 88.75 370 c 2
 35.75 370 l 2
 33.75 370 32.75 372 32.75 376 c 0
 32.75 389 42.75 430 47.75 430 c 2
 88.75 430 l 2
 91.75 430 93.75 433 93.75 436 c 2
 93.75 443 l 0
 93.75 580 219.75 682 329.75 682 c 0xec
 390.75 682 460.75 675 493.75 642 c 1
 527.75 676 601.75 696 645.75 696 c 0
 706.75 696 750.75 679 760.75 662 c 1
 769.75 627 774.75 565 716.75 565 c 0
 666.75 565 659.75 634 613.75 634 c 0
 566.75 634 530.75 551 532.75 475 c 2xda
 533.75 434 l 2
 533.75 432 536.75 429 538.75 429 c 2
 649.75 429 l 2
 654.75 429 654.75 428 654.75 422 c 0
 654.75 413 649.75 384 642.75 370 c 1
 539.75 370 l 2
 536.75 370 533.75 367 533.75 364 c 0
 533.75 274 533.75 149 533.75 149 c 6
 533.75 115 533.75 85 540.75 58 c 4
 543.75 47 595.75 33 603.75 33 c 4
 608.75 33 607.75 2 605.75 -4 c 5
 564.75 -2 507.75 4 468.75 4 c 4
 426.75 4 373.75 -2 331.75 -4 c 5
 326.75 1 326.75 33 331.75 33 c 4
 343.75 33 393.75 47 396.75 58 c 4
 402.75 84 403.75 127 403.75 134 c 6xdc
411.75 516 m 0
 411.75 519 412.75 523 412.75 528 c 0xea
 412.75 536 406.75 557 403.75 562 c 0
 393.75 578 370.75 620 328.75 620 c 0
 243.75 620 220.75 551 222.75 475 c 2
 223.75 434 l 2
 223.75 432 225.75 430 227.75 430 c 2
 398.75 430 l 2
 401.75 430 403.75 433 403.75 436 c 2
 403.75 437 l 0
 403.75 456 409.75 501 411.75 516 c 0
EndSplineSet
Validated: 33
LCarets2: 1 338 
EndChar

StartChar: f_i
Encoding: 61697 61697 247
Width: 624
Flags: W
HStem: -4 37<18.1865 78.1277 236.869 295.748 334.187 394.128 552.869 611.747> 372 57<36.7968 92.75 222.75 392.909> 424 20G<534.25 538.75> 542 154<410.854 506.621> 634 62<275.671 379.511>
VStem: 92.75 130<46.8035 371.997 430.055 534.844> 394.75 144<563.625 617.911> 408.75 130<46.8035 357.229>
LayerCount: 2
Fore
SplineSet
408.75 134 m 2xa5
 408.75 278 l 2
 408.75 288 406.75 336 390.75 353 c 0
 374.75 371 359.75 372 331.75 372 c 0
 228.75 372 l 2
 225.75 372 222.75 369 222.75 366 c 0
 222.75 276 222.75 149 222.75 149 c 2
 222.75 115 222.75 85 229.75 58 c 0
 232.75 47 284.75 33 292.75 33 c 0
 297.75 33 296.75 2 294.75 -4 c 1
 253.75 -2 196.75 4 157.75 4 c 0
 115.75 4 62.75 -2 20.75 -4 c 1
 15.75 1 15.75 33 20.75 33 c 0
 32.75 33 82.75 47 85.75 58 c 0
 91.75 84 92.75 127 92.75 134 c 2
 92.75 134 92.75 276 92.75 365 c 0
 92.75 368 90.75 372 87.75 372 c 2
 34.75 372 l 2
 32.75 372 31.75 374 31.75 378 c 0
 31.75 391 41.75 430 46.75 430 c 2
 87.75 430 l 2
 90.75 430 92.75 433 92.75 436 c 2
 92.75 440 l 0
 92.75 570 214.75 696 362.75 696 c 0xcd
 423.75 696 448.75 693 464.75 690 c 0
 506.75 683 538.75 657 538.75 616 c 0
 538.75 575 505.75 542 464.75 542 c 0x96
 430.75 542 405.75 562 394.75 588 c 0
 383.75 613 364.75 634 324.75 634 c 0
 266.75 634 219.75 551 221.75 475 c 2
 222.75 434 l 2
 222.75 432 225.75 429 227.75 429 c 2
 436.75 429 l 2xce
 441.75 429 490.75 430 522.75 441 c 0
 523.75 441 533.75 444 534.75 444 c 0
 542.75 444 548.75 432 548.75 427 c 0
 544.75 395 538.75 361 538.75 327 c 2
 538.75 149 l 2
 537.75 115 538.75 85 545.75 58 c 0
 548.75 47 600.75 33 608.75 33 c 0
 613.75 33 612.75 2 610.75 -4 c 1
 569.75 -2 512.75 4 473.75 4 c 0
 431.75 4 378.75 -2 336.75 -4 c 1
 331.75 1 331.75 33 336.75 33 c 0
 348.75 33 398.75 47 401.75 58 c 0
 407.75 84 408.75 127 408.75 134 c 2xa5
EndSplineSet
Validated: 33
LCarets2: 1 0 
EndChar

StartChar: f_f_i
Encoding: 61698 61698 248
Width: 931
Flags: W
HStem: -4 37<19.1865 79.1277 237.869 296.748 329.187 389.128 547.869 606.747 651.322 708.309 861.944 916.558> 370 60<38.375 93.75 223.75 403.75 533.75 705.249> 424 20G<845.25 849.75> 542 154<721.854 817.621> 620 62<261.749 376.779> 634 62<585.642 690.939>
VStem: 93.75 130<46.8035 369.997 430.002 538.141> 403.75 130<46.8035 369.881 430.055 527.766> 412.75 120<430.055 571.145> 705.75 144<563.625 617.911> 719.75 130<44.8035 357.229>
LayerCount: 2
Fore
SplineSet
328.75 620 m 0xcb
 243.75 620 220.75 551 222.75 475 c 2
 223.75 434 l 2
 223.75 432 225.75 430 227.75 430 c 2
 398.75 430 l 2
 401.75 430 403.75 433 403.75 436 c 2
 403.75 437 l 0xcb
 403.75 456 409.75 501 411.75 516 c 0
 411.75 519 412.75 523 412.75 528 c 0xca80
 412.75 536 406.75 557 403.75 562 c 0
 393.75 578 370.75 620 328.75 620 c 0xcb
403.75 134 m 2
 403.75 134 403.75 274 403.75 363 c 0
 403.75 366 401.75 370 398.75 370 c 2
 229.75 370 l 2
 226.75 370 223.75 367 223.75 364 c 0
 223.75 274 223.75 149 223.75 149 c 2
 223.75 115 223.75 85 230.75 58 c 0
 233.75 47 285.75 33 293.75 33 c 0
 298.75 33 297.75 2 295.75 -4 c 1
 254.75 -2 197.75 4 158.75 4 c 0
 116.75 4 63.75 -2 21.75 -4 c 1
 16.75 1 16.75 33 21.75 33 c 0
 33.75 33 83.75 47 86.75 58 c 0
 92.75 84 93.75 127 93.75 134 c 2
 93.75 134 93.75 274 93.75 363 c 0
 93.75 366 91.75 370 88.75 370 c 2
 35.75 370 l 2
 33.75 370 32.75 372 32.75 376 c 0
 32.75 389 42.75 430 47.75 430 c 2
 88.75 430 l 2
 91.75 430 93.75 433 93.75 436 c 2
 93.75 443 l 0
 93.75 580 219.75 682 329.75 682 c 0xcb20
 390.75 682 460.75 675 493.75 642 c 1
 527.75 676 627.75 696 671.75 696 c 0x8720
 733.75 696 759.75 693 775.75 690 c 0
 817.75 683 849.75 657 849.75 616 c 0
 849.75 575 816.75 542 775.75 542 c 0x9340
 741.75 542 716.75 562 705.75 588 c 0
 694.75 613 675.75 634 635.75 634 c 0
 577.75 634 530.75 551 532.75 475 c 2x86c0
 533.75 434 l 2
 533.75 432 536.75 429 538.75 429 c 2
 747.75 429 l 2
 752.75 429 801.75 430 833.75 441 c 0
 834.75 441 844.75 444 845.75 444 c 0
 853.75 444 859.75 432 859.75 427 c 0
 855.75 395 849.75 361 849.75 327 c 2
 849.75 147 l 2
 849.75 113 850.75 84 857.75 56 c 0
 860.75 45 905.75 31 913.75 31 c 0
 918.75 31 917.75 3 915.75 -3 c 1
 874.75 -1 822.75 5 783.75 5 c 0
 741.75 5 695.75 -1 653.75 -3 c 1
 648.75 2 648.75 31 653.75 31 c 0
 665.75 31 708.75 45 711.75 56 c 0
 717.75 82 719.75 125 719.75 132 c 2
 719.75 278 l 2xa720
 719.75 288 717.75 336 701.75 353 c 0
 685.75 371 670.75 372 642.75 372 c 0
 539.75 372 l 2
 536.75 372 533.75 369 533.75 365 c 0
 533.75 275 533.75 149 533.75 149 c 2
 533.75 115 533.75 85 540.75 58 c 0
 543.75 47 595.75 33 603.75 33 c 0
 608.75 33 607.75 2 605.75 -4 c 1
 564.75 -2 507.75 4 468.75 4 c 0
 426.75 4 373.75 -2 331.75 -4 c 1
 326.75 1 326.75 33 331.75 33 c 0
 343.75 33 393.75 47 396.75 58 c 0
 402.75 84 403.75 127 403.75 134 c 2
EndSplineSet
Validated: 33
LCarets2: 2 314 626 
EndChar

StartChar: f_l
Encoding: 61699 61699 249
Width: 624
Flags: W
HStem: -4 37<18.1865 78.1277 236.869 295.748 334.187 394.128 552.869 611.747> 372 57<36.7968 92.75 222.75 339.204> 634 62<275.671 379.852>
VStem: 92.75 130<46.8035 371.997 430.055 534.844> 408.75 130<46.8035 602.315>
LayerCount: 2
Fore
SplineSet
408.75 134 m 2
 408.75 515 l 2
 408.75 543 406.75 561 394.75 588 c 16
 383.75 613 364.75 634 324.75 634 c 0
 266.75 634 219.75 551 221.75 475 c 2
 222.75 434 l 2
 222.75 432 225.75 429 227.75 429 c 2
 338.75 429 l 2
 343.75 429 343.75 428 343.75 422 c 0
 343.75 413 338.75 386 331.75 372 c 1
 228.75 372 l 2
 225.75 372 222.75 369 222.75 366 c 0
 222.75 276 222.75 149 222.75 149 c 2
 222.75 115 222.75 85 229.75 58 c 0
 232.75 47 284.75 33 292.75 33 c 0
 297.75 33 296.75 2 294.75 -4 c 1
 253.75 -2 196.75 4 157.75 4 c 0
 115.75 4 62.75 -2 20.75 -4 c 1
 15.75 1 15.75 33 20.75 33 c 0
 32.75 33 82.75 47 85.75 58 c 0
 91.75 84 92.75 127 92.75 134 c 2
 92.75 134 92.75 276 92.75 365 c 0
 92.75 368 90.75 372 87.75 372 c 2
 34.75 372 l 2
 32.75 372 31.75 374 31.75 378 c 0
 31.75 391 41.75 430 46.75 430 c 2
 87.75 430 l 2
 90.75 430 92.75 433 92.75 436 c 2
 92.75 440 l 0
 92.75 570 214.75 696 362.75 696 c 0
 386.75 696 411.75 678 427.75 678 c 0
 468.75 678 531.75 695 534.75 695 c 2
 536.75 695 l 2
 542.75 695 548.75 683 549.75 678 c 1
 549.75 678 538.75 633 538.75 577 c 2
 538.75 149 l 2
 538.75 115 538.75 85 545.75 58 c 0
 548.75 47 600.75 33 608.75 33 c 0
 613.75 33 612.75 2 610.75 -4 c 1
 569.75 -2 512.75 4 473.75 4 c 0
 431.75 4 378.75 -2 336.75 -4 c 1
 331.75 1 331.75 33 336.75 33 c 0
 348.75 33 398.75 47 401.75 58 c 0
 407.75 84 408.75 127 408.75 134 c 2
EndSplineSet
Validated: 33
LCarets2: 1 0 
EndChar

StartChar: f_f_l
Encoding: 61700 61700 250
Width: 930
Flags: W
HStem: -4 37<19.1865 79.1277 237.869 296.748 329.187 389.128 547.869 606.747 651.322 708.309 861.944 916.558> 370 60<38.375 93.75 223.75 403.75 533.75 649.981> 620 62<261.749 376.779> 634 62<586.44 690.852>
VStem: 93.75 130<46.8035 369.997 430.002 538> 403.75 130<46.8035 369.997 430.055 527.766> 412.75 120<434 571.145> 719.75 130<44.8035 602.315>
LayerCount: 2
Fore
SplineSet
533.75 149 m 2xdd
 533.75 115 533.75 85 540.75 58 c 0
 543.75 47 595.75 33 603.75 33 c 0
 608.75 33 607.75 2 605.75 -4 c 1
 564.75 -2 507.75 4 468.75 4 c 0
 426.75 4 373.75 -2 331.75 -4 c 1
 326.75 1 326.75 33 331.75 33 c 0
 343.75 33 393.75 47 396.75 58 c 0
 402.75 84 403.75 127 403.75 134 c 2
 403.75 134 403.75 274 403.75 363 c 0
 403.75 366 401.75 370 398.75 370 c 2
 228.75 370 l 2
 224.75 370 223.75 367 223.75 364 c 0
 223.75 274 223.75 149 223.75 149 c 2
 223.75 115 223.75 85 230.75 58 c 0
 233.75 47 285.75 33 293.75 33 c 0
 298.75 33 297.75 2 295.75 -4 c 1
 254.75 -2 197.75 4 158.75 4 c 0
 116.75 4 63.75 -2 21.75 -4 c 1
 16.75 1 16.75 33 21.75 33 c 0
 33.75 33 83.75 47 86.75 58 c 0
 92.75 84 93.75 127 93.75 134 c 2
 93.75 134 93.75 274 93.75 363 c 0
 93.75 366 91.75 370 88.75 370 c 2
 35.75 370 l 2
 33.75 370 32.75 372 32.75 376 c 0
 32.75 389 42.75 430 47.75 430 c 2
 88.75 430 l 2
 91.75 430 93.75 433 93.75 436 c 2
 93.75 443 l 0
 93.75 580 219.75 681 329.75 682 c 0xed
 390.75 682 460.75 675 493.75 642 c 1
 527.75 676 578.75 696 673.75 696 c 0
 697.75 696 722.75 678 738.75 678 c 0
 779.75 678 838.75 695 847.75 695 c 0
 853.75 695 859.75 683 860.75 678 c 1
 860.75 678 849.75 633 849.75 577 c 2
 849.75 146 l 2
 849.75 112 850.75 84 857.75 56 c 0
 860.75 45 905.75 31 913.75 31 c 0
 918.75 31 917.75 3 915.75 -3 c 1
 874.75 -1 822.75 5 783.75 5 c 0
 741.75 5 695.75 -1 653.75 -3 c 1
 648.75 2 648.75 31 653.75 31 c 0
 665.75 31 708.75 45 711.75 56 c 0
 717.75 82 719.75 124 719.75 131 c 2
 719.75 515 l 2
 719.75 543 717.75 561 705.75 588 c 16
 694.75 613 675.75 634 635.75 634 c 0
 577.75 634 530.75 551 532.75 475 c 2xdb
 533.75 434 l 2
 533.75 432 536.75 429 538.75 429 c 2
 649.75 429 l 2
 654.75 429 654.75 428 654.75 422 c 0
 654.75 413 649.75 384 642.75 370 c 1
 539.75 370 l 2
 536.75 370 533.75 367 533.75 364 c 0
 533.75 274 533.75 149 533.75 149 c 2xdd
328.75 620 m 0
 243.75 619 220.75 551 222.75 475 c 2
 223.75 434 l 2
 223.75 432 223.75 430 228.75 430 c 2
 398.75 430 l 2
 401.75 430 403.75 432 403.75 435 c 2
 403.75 437 l 0xed
 403.75 456 409.75 501 411.75 516 c 0
 411.75 519 412.75 523 412.75 528 c 0xeb
 412.75 536 406.75 557 403.75 562 c 0
 393.75 578 370.75 620 328.75 620 c 0
EndSplineSet
Validated: 33
LCarets2: 2 0 0 
EndChar

StartChar: f_b
Encoding: 61701 61701 251
Width: 878
Flags: W
HStem: -8 55<556.587 671.907> -4 37<19.4756 78.1277 236.869 295.198> 372 57<36.7968 92.75 222.75 339.204> 377 72<566.04 664.23> 634 62<275.671 379.852>
VStem: 92.75 130<46.8035 371.997 430.055 534.844> 408.75 130<65.375 357.882 410.779 602.315> 706.75 142<128.381 324.312>
LayerCount: 2
Fore
SplineSet
92.75 134 m 2x6f
 92.75 134 92.75 276 92.75 365 c 0
 92.75 368 90.75 372 87.75 372 c 2
 34.75 372 l 2x6f
 32.75 372 31.75 374 31.75 378 c 0
 31.75 391 41.75 430 46.75 430 c 2
 87.75 430 l 2
 90.75 430 92.75 433 92.75 436 c 2
 92.75 440 l 0
 92.75 570 214.75 696 362.75 696 c 0
 386.75 696 411.75 678 427.75 678 c 0
 468.75 678 527.75 695 536.75 695 c 0
 542.75 695 548.75 683 549.75 678 c 1
 549.75 678 538.75 633 538.75 577 c 2
 538.75 424 l 2
 538.75 419 538.75 406 544.75 411 c 0
 559.75 423 590.75 449 640.75 449 c 0
 760.75 449 848.75 370 848.75 232 c 0
 848.75 94 746.75 -8 616.75 -8 c 0x9f
 530.75 -8 545.75 10 487.75 10 c 0
 469.75 10 441.75 -9 435.75 -9 c 2
 429.75 -9 l 1
 422.75 -4 397.75 6 400.75 17 c 0
 408.75 49 408.75 77 408.75 128 c 2
 408.75 515 l 0
 408.75 543 406.75 561 394.75 588 c 16
 383.75 613 364.75 634 324.75 634 c 0
 266.75 634 219.75 551 221.75 475 c 2
 222.75 434 l 2
 222.75 432 225.75 429 227.75 429 c 2
 338.75 429 l 2
 343.75 429 343.75 428 343.75 422 c 0
 343.75 413 338.75 386 331.75 372 c 1
 228.75 372 l 2
 225.75 372 222.75 369 222.75 366 c 0
 222.75 276 222.75 149 222.75 149 c 2
 222.75 115 222.75 85 229.75 58 c 0
 232.75 47 284.75 33 292.75 33 c 0
 297.75 33 296.75 2 294.75 -4 c 1
 253.75 -2 196.75 4 157.75 4 c 0
 115.75 4 62.75 -2 20.75 -4 c 1
 15.75 1 15.75 33 20.75 33 c 0
 32.75 33 82.75 47 85.75 58 c 0
 91.75 84 92.75 127 92.75 134 c 2x6f
538.75 308 m 2
 538.75 113 l 2
 538.75 82 556.75 47 625.75 47 c 0
 684.75 47 706.75 115 706.75 197 c 0
 706.75 297 674.75 377 623.75 377 c 0x9f
 571.75 377 538.75 352 538.75 308 c 2
EndSplineSet
Validated: 33
LCarets2: 1 0 
EndChar

StartChar: f_f_b
Encoding: 61702 61702 252
Width: 1189
Flags: W
HStem: -8 55<867.587 982.907> -4 37<20.4756 79.1277 237.869 296.198 330.476 389.128 547.869 606.198> 370 60<38.375 93.75 223.75 403.75 533.75 649.981> 377 72<877.04 975.23> 620 62<261.749 376.779> 634 62<586.44 690.852>
VStem: 93.75 130<46.8035 369.997 430.002 538> 403.75 130<46.8035 369.997 430.055 527.766> 412.75 120<430.055 571.145> 719.75 130<65.375 357.882 410.779 602.315> 1017.75 142<128.381 324.312>
LayerCount: 2
Fore
SplineSet
403.75 134 m 2x6760
 403.75 134 403.75 274 403.75 363 c 0
 403.75 366 401.75 370 398.75 370 c 2
 228.75 370 l 2
 224.75 370 223.75 367 223.75 364 c 0
 223.75 274 223.75 149 223.75 149 c 2
 223.75 115 223.75 85 230.75 58 c 0
 233.75 47 285.75 33 293.75 33 c 0
 298.75 33 297.75 2 295.75 -4 c 1
 254.75 -2 197.75 4 158.75 4 c 0
 116.75 4 63.75 -2 21.75 -4 c 1
 16.75 1 16.75 33 21.75 33 c 0
 33.75 33 83.75 47 86.75 58 c 0
 92.75 84 93.75 127 93.75 134 c 2
 93.75 134 93.75 274 93.75 363 c 0
 93.75 366 91.75 370 88.75 370 c 2
 35.75 370 l 2
 33.75 370 32.75 372 32.75 376 c 0
 32.75 389 42.75 430 47.75 430 c 2
 88.75 430 l 2
 91.75 430 93.75 433 93.75 436 c 2
 93.75 443 l 0
 93.75 580 219.75 681 329.75 682 c 0x6b60
 390.75 682 460.75 675 493.75 642 c 1
 527.75 676 578.75 696 673.75 696 c 0
 697.75 696 722.75 678 738.75 678 c 0
 779.75 678 838.75 695 847.75 695 c 0
 853.75 695 859.75 683 860.75 678 c 1
 860.75 678 849.75 633 849.75 577 c 2
 849.75 424 l 2
 849.75 419 849.75 406 855.75 411 c 0
 870.75 423 901.75 449 951.75 449 c 0
 1071.75 449 1159.75 370 1159.75 232 c 0
 1159.75 94 1057.75 -8 927.75 -8 c 0
 841.75 -8 856.75 10 798.75 10 c 0
 780.75 10 752.75 -9 746.75 -9 c 2
 740.75 -9 l 1
 733.75 -4 708.75 6 711.75 17 c 0
 719.75 49 719.75 77 719.75 128 c 2
 719.75 515 l 0
 719.75 543 717.75 561 705.75 588 c 16
 694.75 613 675.75 634 635.75 634 c 0
 577.75 634 530.75 551 532.75 475 c 2x96e0
 533.75 434 l 2
 533.75 432 536.75 429 538.75 429 c 2
 649.75 429 l 2
 654.75 429 654.75 428 654.75 422 c 0
 654.75 413 649.75 384 642.75 370 c 1
 539.75 370 l 2
 536.75 370 533.75 367 533.75 364 c 0
 533.75 274 533.75 149 533.75 149 c 2
 533.75 115 533.75 85 540.75 58 c 0
 543.75 47 595.75 33 603.75 33 c 0
 608.75 33 607.75 2 605.75 -4 c 1
 564.75 -2 507.75 4 468.75 4 c 0
 426.75 4 373.75 -2 331.75 -4 c 1
 326.75 1 326.75 33 331.75 33 c 0
 343.75 33 393.75 47 396.75 58 c 0
 402.75 84 403.75 127 403.75 134 c 2x6760
849.75 308 m 2
 849.75 113 l 2
 849.75 82 867.75 47 936.75 47 c 0
 995.75 47 1017.75 115 1017.75 197 c 0
 1017.75 297 985.75 377 934.75 377 c 0x9260
 882.75 377 849.75 352 849.75 308 c 2
328.75 620 m 0x2b60
 243.75 619 220.75 551 222.75 475 c 2
 223.75 434 l 2
 223.75 432 223.75 430 228.75 430 c 2
 398.75 430 l 2
 401.75 430 403.75 432 403.75 435 c 2
 403.75 437 l 0x2b60
 403.75 456 409.75 501 411.75 516 c 0
 411.75 519 412.75 523 412.75 528 c 0x2ae0
 412.75 536 406.75 557 403.75 562 c 0
 393.75 578 370.75 620 328.75 620 c 0x2b60
EndSplineSet
Validated: 33
LCarets2: 2 0 0 
EndChar

StartChar: f_k
Encoding: 61703 61703 253
Width: 910
Flags: W
HStem: -4 37<18.322 75.9088 239.139 295.737 334.187 394.128 552.869 611.656 658.187 696.732 864.257 921.744> 372 57<36.7968 92.75 222.75 339.204> 405 35<643.786 690.721 805.887 868.346> 634 62<275.671 379.852>
VStem: 92.75 130<47.8035 371.997 430.055 534.844> 408.75 130<46.8035 213 259 602.315>
LayerCount: 2
Fore
SplineSet
222.75 150 m 2xdc
 222.75 116 222.75 86 229.75 59 c 0
 232.75 48 284.75 34 292.75 34 c 0
 297.75 34 296.75 3 294.75 -3 c 1
 253.75 -1 196.75 5 157.75 5 c 0
 115.75 5 62.75 -1 20.75 -3 c 1
 15.75 2 15.75 34 20.75 34 c 0
 32.75 34 82.75 48 85.75 59 c 0
 91.75 85 92.75 128 92.75 135 c 2
 92.75 135 92.75 276 92.75 365 c 0
 92.75 368 90.75 372 87.75 372 c 2
 34.75 372 l 2xdc
 32.75 372 31.75 374 31.75 378 c 0
 31.75 391 41.75 430 46.75 430 c 2
 87.75 430 l 2
 90.75 430 92.75 433 92.75 436 c 2
 92.75 440 l 0
 92.75 570 214.75 696 362.75 696 c 0
 386.75 696 411.75 678 427.75 678 c 0
 468.75 678 527.75 695 536.75 695 c 0
 542.75 695 548.75 683 549.75 678 c 1
 549.75 678 538.75 633 538.75 577 c 2
 538.75 259 l 1
 546.75 261 564.75 265 572.75 272 c 0
 661.75 349 690.75 368 690.75 388 c 0
 690.75 408 650.75 401 644.75 405 c 1
 641.75 414 641.75 439 646.75 441 c 1
 646.75 441 718.75 440 760.75 440 c 0
 796.75 440 819.75 440 864.75 442 c 1
 872.75 437 868.75 405 865.75 405 c 0xbc
 836.75 405 807.75 389 795.75 382 c 0
 774.75 370 713.75 330 658.75 273 c 1
 733.75 192 825.75 79 852.75 59 c 1
 872.75 42 908.75 33 916.75 33 c 0
 919.75 33 921.75 21 921.75 14 c 0
 921.75 9 920.75 -1 919.75 -3 c 1
 879.75 -1 831.75 3 793.75 3 c 0
 752.75 3 701.75 -2 660.75 -4 c 1
 655.75 1 655.75 33 660.75 33 c 0
 671.75 33 696.75 39 696.75 46 c 0
 696.75 47 696.75 48 695.75 49 c 2
 549.75 216 l 1
 538.75 213 l 1
 538.75 149 l 2
 538.75 115 538.75 85 545.75 58 c 0
 548.75 47 600.75 33 608.75 33 c 0
 613.75 33 612.75 2 610.75 -4 c 1
 569.75 -2 512.75 4 473.75 4 c 0
 431.75 4 378.75 -2 336.75 -4 c 1
 331.75 1 331.75 33 336.75 33 c 0
 348.75 33 398.75 47 401.75 58 c 0
 407.75 84 408.75 127 408.75 134 c 2
 408.75 515 l 2
 408.75 542 406.75 561 394.75 588 c 16
 383.75 613 364.75 634 324.75 634 c 0
 266.75 634 219.75 551 221.75 475 c 2
 222.75 434 l 2
 222.75 432 225.75 429 227.75 429 c 2
 338.75 429 l 2
 343.75 429 343.75 428 343.75 422 c 0
 343.75 413 338.75 386 331.75 372 c 1
 228.75 372 l 2
 225.75 372 222.75 369 222.75 366 c 0
 222.75 276 222.75 150 222.75 150 c 2xdc
EndSplineSet
Validated: 33
LCarets2: 1 0 
EndChar

StartChar: f_f_k
Encoding: 61704 61704 254
Width: 1221
Flags: W
HStem: -4 37<19.1865 79.1277 237.869 296.748 329.187 389.128 547.869 606.747 645.187 705.128 863.869 922.747 969.187 1007.73 1175.26 1232.74> 370 60<38.375 93.75 223.75 403.75 533.75 649.981> 405 35<954.786 1001.72 1116.89 1179.35> 620 62<261.749 376.779> 634 62<586.44 690.852>
VStem: 93.75 130<46.8035 369.997 430.002 538> 403.75 130<46.8035 369.997 430.055 527.766> 412.75 120<430.055 571.145> 719.75 130<46.8035 213 259 602.315>
LayerCount: 2
Fore
SplineSet
719.75 515 m 2xae80
 719.75 542 717.75 561 705.75 588 c 16
 694.75 613 675.75 634 635.75 634 c 0
 577.75 634 530.75 551 532.75 475 c 2xad80
 533.75 434 l 2
 533.75 432 536.75 429 538.75 429 c 2
 649.75 429 l 2
 654.75 429 654.75 428 654.75 422 c 0
 654.75 413 649.75 384 642.75 370 c 1
 539.75 370 l 2
 536.75 370 533.75 367 533.75 364 c 0
 533.75 274 533.75 149 533.75 149 c 2
 533.75 115 533.75 85 540.75 58 c 0
 543.75 47 595.75 33 603.75 33 c 0
 608.75 33 607.75 2 605.75 -4 c 1
 564.75 -2 507.75 4 468.75 4 c 0
 426.75 4 373.75 -2 331.75 -4 c 1
 326.75 1 326.75 33 331.75 33 c 0
 343.75 33 393.75 47 396.75 58 c 0
 402.75 84 403.75 127 403.75 134 c 2
 403.75 134 403.75 274 403.75 363 c 0
 403.75 366 401.75 370 398.75 370 c 2
 228.75 370 l 2
 224.75 370 223.75 367 223.75 364 c 0
 223.75 274 223.75 149 223.75 149 c 2
 223.75 115 223.75 85 230.75 58 c 0
 233.75 47 285.75 33 293.75 33 c 0
 298.75 33 297.75 2 295.75 -4 c 1
 254.75 -2 197.75 4 158.75 4 c 0
 116.75 4 63.75 -2 21.75 -4 c 1
 16.75 1 16.75 33 21.75 33 c 0
 33.75 33 83.75 47 86.75 58 c 0
 92.75 84 93.75 127 93.75 133 c 2
 93.75 133 93.75 274 93.75 363 c 0
 93.75 366 91.75 370 88.75 370 c 2
 35.75 370 l 2
 33.75 370 32.75 372 32.75 376 c 0
 32.75 389 42.75 430 47.75 430 c 2
 88.75 430 l 2
 91.75 430 93.75 433 93.75 436 c 2
 93.75 443 l 0
 93.75 580 219.75 681 329.75 682 c 0xd680
 390.75 682 460.75 675 493.75 642 c 1
 527.75 676 578.75 696 673.75 696 c 0
 697.75 696 722.75 678 738.75 678 c 0
 779.75 678 838.75 695 847.75 695 c 0
 853.75 695 859.75 683 860.75 678 c 1
 860.75 678 849.75 633 849.75 577 c 2
 849.75 259 l 1
 857.75 261 875.75 265 883.75 272 c 0
 972.75 349 1001.75 368 1001.75 388 c 0
 1001.75 408 961.75 401 955.75 405 c 1
 952.75 414 952.75 439 957.75 441 c 1
 957.75 441 1029.75 440 1071.75 440 c 0
 1107.75 440 1130.75 440 1175.75 442 c 1
 1183.75 437 1179.75 405 1176.75 405 c 0
 1147.75 405 1118.75 389 1106.75 382 c 0
 1085.75 370 1024.75 330 969.75 273 c 1
 1044.75 192 1136.75 79 1163.75 59 c 1
 1183.75 42 1219.75 33 1227.75 33 c 0
 1230.75 33 1232.75 21 1232.75 14 c 0
 1232.75 9 1231.75 -1 1230.75 -3 c 1
 1190.75 -1 1142.75 3 1104.75 3 c 0
 1063.75 3 1012.75 -2 971.75 -4 c 1
 966.75 1 966.75 33 971.75 33 c 0
 982.75 33 1007.75 39 1007.75 46 c 0
 1007.75 47 1007.75 48 1006.75 49 c 2
 860.75 216 l 1
 849.75 213 l 1
 849.75 149 l 2
 849.75 115 849.75 85 856.75 58 c 0
 859.75 47 911.75 33 919.75 33 c 0
 924.75 33 923.75 2 921.75 -4 c 1
 880.75 -2 823.75 4 784.75 4 c 0
 742.75 4 689.75 -2 647.75 -4 c 1
 642.75 1 642.75 33 647.75 33 c 0
 659.75 33 709.75 47 712.75 58 c 0
 718.75 84 719.75 127 719.75 134 c 2
 719.75 515 l 2xae80
328.75 620 m 0xd680
 243.75 619 220.75 551 222.75 475 c 2
 223.75 434 l 2
 223.75 432 223.75 430 228.75 430 c 2
 398.75 430 l 2
 401.75 430 403.75 432 403.75 435 c 2
 403.75 437 l 0xd680
 403.75 456 409.75 501 411.75 516 c 0
 411.75 519 412.75 523 412.75 528 c 0xd580
 412.75 536 406.75 557 403.75 562 c 0
 393.75 578 370.75 620 328.75 620 c 0xd680
EndSplineSet
Validated: 33
LCarets2: 2 0 0 
EndChar

StartChar: f_h
Encoding: 61705 61705 255
Width: 899
Flags: W
HStem: -4 37<18.1865 78.1277 236.869 295.748 334.187 394.128 552.583 607.747 623.187 679.465 837.869 896.747> 372 57<36.7968 92.75 222.75 339.204> 634 62<275.671 379.852>
VStem: 92.75 130<46.8035 371.997 430.055 534.844> 408.75 130<46.8035 348.197 388.003 602.315> 693.75 130<46.8035 346.244>
LayerCount: 2
Fore
SplineSet
408.75 133 m 6
 408.75 514 l 2
 408.75 542 406.75 561 394.75 588 c 16
 383.75 613 364.75 634 324.75 634 c 0
 266.75 634 219.75 551 221.75 475 c 2
 222.75 434 l 2
 222.75 432 225.75 429 227.75 429 c 2
 338.75 429 l 2
 343.75 429 343.75 428 343.75 422 c 0
 343.75 413 338.75 386 331.75 372 c 1
 228.75 372 l 2
 225.75 372 222.75 369 222.75 366 c 0
 222.75 276 222.75 149 222.75 149 c 2
 222.75 115 222.75 85 229.75 58 c 0
 232.75 47 284.75 33 292.75 33 c 0
 297.75 33 296.75 2 294.75 -4 c 1
 253.75 -2 196.75 4 157.75 4 c 0
 115.75 4 62.75 -2 20.75 -4 c 1
 15.75 1 15.75 33 20.75 33 c 0
 32.75 33 82.75 47 85.75 58 c 0
 91.75 84 92.75 127 92.75 134 c 2
 92.75 134 92.75 276 92.75 365 c 0
 92.75 368 90.75 372 87.75 372 c 2
 34.75 372 l 2
 32.75 372 31.75 374 31.75 378 c 0
 31.75 391 41.75 430 46.75 430 c 2
 87.75 430 l 2
 90.75 430 92.75 433 92.75 436 c 2
 92.75 440 l 0
 92.75 570 214.75 696 362.75 696 c 0
 386.75 696 411.75 678 427.75 678 c 0
 468.75 678 527.75 695 536.75 695 c 0
 542.75 695 548.75 683 549.75 678 c 1
 549.75 678 538.75 633 538.75 577 c 2
 538.75 396 l 2
 538.75 392 540.75 388 543.75 388 c 0
 545.75 388 547.75 392 549.75 394 c 0
 566.75 411 618.75 447 669.75 447 c 27
 752.75 447 823.75 388 823.75 300 c 2
 823.75 149 l 6
 823.75 115 823.75 85 830.75 58 c 4
 833.75 47 885.75 33 893.75 33 c 4
 898.75 33 897.75 2 895.75 -4 c 5
 854.75 -2 797.75 4 758.75 4 c 4
 716.75 4 667.75 -2 625.75 -4 c 5
 620.75 1 620.75 33 625.75 33 c 4
 637.75 33 683.75 47 686.75 58 c 4
 692.75 84 693.75 127 693.75 134 c 6
 693.75 224 l 2
 693.75 330 676.75 371 615.75 371 c 0
 580.75 371 552.75 343 542.75 328 c 0
 539.75 324 538.75 320 538.75 317 c 2
 538.75 149 l 6
 538.75 115 538.75 85 545.75 58 c 4
 548.75 47 596.75 33 604.75 33 c 4
 609.75 33 608.75 2 606.75 -4 c 5
 565.75 -2 512.75 4 473.75 4 c 4
 431.75 4 378.75 -2 336.75 -4 c 5
 331.75 1 331.75 33 336.75 33 c 4
 348.75 33 398.75 47 401.75 58 c 4
 407.75 84 408.75 127 408.75 133 c 6
EndSplineSet
Validated: 33
LCarets2: 1 354 
EndChar

StartChar: f_f_h
Encoding: 61706 61706 256
Width: 1210
Flags: W
HStem: -4 37<19.1865 79.1277 237.869 296.748 329.187 389.128 547.869 606.747 645.187 705.128 863.583 918.747 934.187 990.465 1148.87 1207.75> 370 60<38.375 93.75 223.75 403.75 533.75 649.981> 371 17<854.75 926.75> 620 62<261.749 376.779> 634 62<586.44 690.852>
VStem: 93.75 130<46.8035 369.997 430 538> 403.75 130<46.8035 369.997 430.055 527.766> 412.75 120<430.055 571.145> 719.75 130<46.8035 348.197 388.003 602.315> 1004.75 130<46.8035 346.244>
LayerCount: 2
Fore
SplineSet
719.75 133 m 2xaec0
 719.75 514 l 2
 719.75 542 717.75 561 705.75 588 c 16
 694.75 613 675.75 634 635.75 634 c 0
 577.75 634 530.75 551 532.75 475 c 2xadc0
 533.75 434 l 2
 533.75 432 536.75 429 538.75 429 c 2
 649.75 429 l 2
 654.75 429 654.75 428 654.75 422 c 0
 654.75 413 649.75 384 642.75 370 c 1
 539.75 370 l 2
 536.75 370 533.75 367 533.75 364 c 0
 533.75 274 533.75 149 533.75 149 c 2
 533.75 115 533.75 85 540.75 58 c 0
 543.75 47 595.75 33 603.75 33 c 0
 608.75 33 607.75 2 605.75 -4 c 1
 564.75 -2 507.75 4 468.75 4 c 0
 426.75 4 373.75 -2 331.75 -4 c 1
 326.75 1 326.75 33 331.75 33 c 0
 343.75 33 393.75 47 396.75 58 c 0
 402.75 84 403.75 127 403.75 134 c 2
 403.75 134 403.75 274 403.75 363 c 0
 403.75 366 401.75 370 398.75 370 c 2
 228.75 370 l 2
 224.75 370 223.75 367 223.75 364 c 0
 223.75 274 223.75 149 223.75 149 c 2
 223.75 115 223.75 85 230.75 58 c 0
 233.75 47 285.75 33 293.75 33 c 0
 298.75 33 297.75 2 295.75 -4 c 1
 254.75 -2 197.75 4 158.75 4 c 0
 116.75 4 63.75 -2 21.75 -4 c 1
 16.75 1 16.75 33 21.75 33 c 0
 33.75 33 83.75 47 86.75 58 c 0
 92.75 84 93.75 127 93.75 134 c 2
 93.75 134 93.75 274 93.75 363 c 0
 93.75 366 91.75 370 88.75 370 c 2
 35.75 370 l 2
 33.75 370 32.75 372 32.75 376 c 0
 32.75 389 42.75 430 47.75 430 c 2
 88.75 430 l 2
 91.75 430 93.75 433 93.75 436 c 2
 93.75 443 l 0
 93.75 580 219.75 681 329.75 682 c 0xd6c0
 390.75 682 460.75 675 493.75 642 c 1
 527.75 676 578.75 696 673.75 696 c 0
 697.75 696 722.75 678 738.75 678 c 0
 779.75 678 838.75 695 847.75 695 c 0
 853.75 695 859.75 683 860.75 678 c 1
 860.75 678 849.75 633 849.75 577 c 2
 849.75 396 l 2
 849.75 392 851.75 388 854.75 388 c 0
 856.75 388 858.75 392 860.75 394 c 0
 877.75 411 929.75 447 980.75 447 c 27
 1063.75 447 1134.75 388 1134.75 300 c 2
 1134.75 149 l 2
 1135.75 115 1134.75 85 1141.75 58 c 0
 1144.75 47 1196.75 33 1204.75 33 c 0
 1209.75 33 1208.75 2 1206.75 -4 c 1
 1165.75 -2 1108.75 4 1069.75 4 c 0
 1027.75 4 978.75 -2 936.75 -4 c 1
 931.75 1 931.75 33 936.75 33 c 0
 948.75 33 994.75 47 997.75 58 c 0
 1003.75 84 1004.75 127 1004.75 134 c 2
 1004.75 224 l 2
 1004.75 330 987.75 371 926.75 371 c 0
 891.75 371 863.75 343 853.75 328 c 0
 850.75 324 849.75 320 849.75 317 c 2
 849.75 149 l 2
 850.75 115 849.75 85 856.75 58 c 0
 859.75 47 907.75 33 915.75 33 c 0
 920.75 33 919.75 2 917.75 -4 c 1
 876.75 -2 823.75 4 784.75 4 c 0
 742.75 4 689.75 -2 647.75 -4 c 1
 642.75 1 642.75 33 647.75 33 c 0
 659.75 33 709.75 47 712.75 58 c 0
 718.75 84 719.75 127 719.75 133 c 2xaec0
328.75 620 m 0xd6c0
 243.75 619 220.75 551 222.75 475 c 2
 223.75 434 l 2
 223.75 432 223.75 430 228.75 430 c 2
 398.75 430 l 2
 401.75 430 403.75 432 403.75 435 c 2
 403.75 437 l 0xd6c0
 403.75 456 409.75 501 411.75 516 c 0
 411.75 519 412.75 523 412.75 528 c 0xd5c0
 412.75 536 406.75 557 403.75 562 c 0
 393.75 578 370.75 620 328.75 620 c 0xd6c0
EndSplineSet
Validated: 33
LCarets2: 2 0 0 
EndChar

